0
SECTION
2
HEADER
9
$ACADVER
1
AC1009
9
$INSUNITS
70
4
0
ENDSEC
0
SECTION
2
TABLES
0
TABLE
2
LTYPE
70
1
0
LTYPE
2
CONTINUOUS
70
0
3
Solid line
72
65
73
0
40
0.0
0
ENDTAB
0
TABLE
2
LAYER
70
14
0
LAYER
2
E_POWER_MAIN
70
0
62
1
6
CONTINUOUS
0
LAYER
2
E_POWER_FEEDERS
70
0
62
5
6
CONTINUOUS
0
LAYER
2
E_PROTECTION
70
0
62
30
6
CONTINUOUS
0
LAYER
2
E_CABLES
70
0
62
3
6
CONTINUOUS
0
LAYER
2
E_EARTHING
70
0
62
6
6
CONTINUOUS
0
LAYER
2
E_EV
70
0
62
4
6
CONTINUOUS
0
LAYER
2
E_PV
70
0
62
2
6
CONTINUOUS
0
LAYER
2
E_BESS
70
0
62
140
6
CONTINUOUS
0
LAYER
2
E_UPS_GEN
70
0
62
8
6
CONTINUOUS
0
LAYER
2
E_LIGHTING
70
0
62
40
6
CONTINUOUS
0
LAYER
2
E_BMS_EMS
70
0
62
150
6
CONTINUOUS
0
LAYER
2
E_TEXT
70
0
62
7
6
CONTINUOUS
0
LAYER
2
E_TITLE_BLOCK
70
0
62
7
6
CONTINUOUS
0
LAYER
2
E_DIMENSIONS
70
0
62
8
6
CONTINUOUS
0
ENDTAB
0
TABLE
2
STYLE
70
1
0
STYLE
2
STANDARD
70
0
40
0.0
41
1.0
50
0.0
71
0
42
2.5
3
txt
4

0
ENDTAB
0
ENDSEC
0
SECTION
2
ENTITIES
0
LINE
8
E_TITLE_BLOCK
10
8
20
8
30
0.0
11
412
21
8
31
0.0
0
LINE
8
E_TITLE_BLOCK
10
412
20
8
30
0.0
11
412
21
289
31
0.0
0
LINE
8
E_TITLE_BLOCK
10
412
20
289
30
0.0
11
8
21
289
31
0.0
0
LINE
8
E_TITLE_BLOCK
10
8
20
289
30
0.0
11
8
21
8
31
0.0
0
LINE
8
E_TITLE_BLOCK
10
10
20
10
30
0.0
11
410
21
10
31
0.0
0
LINE
8
E_TITLE_BLOCK
10
410
20
10
30
0.0
11
410
21
287
31
0.0
0
LINE
8
E_TITLE_BLOCK
10
410
20
287
30
0.0
11
10
21
287
31
0.0
0
LINE
8
E_TITLE_BLOCK
10
10
20
287
30
0.0
11
10
21
10
31
0.0
0
TEXT
8
E_TITLE_BLOCK
10
14
20
281
30
0.0
40
5.5
1
BV-02   Building View - Cable Routing
7
STANDARD
0
LINE
8
E_TITLE_BLOCK
10
12
20
12
30
0.0
11
408
21
12
31
0.0
0
LINE
8
E_TITLE_BLOCK
10
408
20
12
30
0.0
11
408
21
44
31
0.0
0
LINE
8
E_TITLE_BLOCK
10
408
20
44
30
0.0
11
12
21
44
31
0.0
0
LINE
8
E_TITLE_BLOCK
10
12
20
44
30
0.0
11
12
21
12
31
0.0
0
LINE
8
E_TITLE_BLOCK
10
12
20
32
30
0.0
11
408
21
32
31
0.0
0
LINE
8
E_TITLE_BLOCK
10
12
20
23
30
0.0
11
408
21
23
31
0.0
0
LINE
8
E_TITLE_BLOCK
10
290
20
32
30
0.0
11
290
21
23
31
0.0
0
LINE
8
E_TITLE_BLOCK
10
150
20
12
30
0.0
11
150
21
23
31
0.0
0
LINE
8
E_TITLE_BLOCK
10
230
20
12
30
0.0
11
230
21
23
31
0.0
0
LINE
8
E_TITLE_BLOCK
10
300
20
12
30
0.0
11
300
21
23
31
0.0
0
LINE
8
E_TITLE_BLOCK
10
350
20
12
30
0.0
11
350
21
23
31
0.0
0
TEXT
8
E_TITLE_BLOCK
10
15
20
35.5
30
0.0
40
3
1
PROJECT: Smart Residential Neighborhood - Power Systems (Option B, LV 22/0.4kV)
7
STANDARD
0
TEXT
8
E_TITLE_BLOCK
10
305
20
35.5
30
0.0
40
2.8
1
MILESTONE 4 - FINAL
7
STANDARD
0
TEXT
8
E_TITLE_BLOCK
10
15
20
25.5
30
0.0
40
2.8
1
DRAWING: Building View - Cable Routing
7
STANDARD
0
TEXT
8
E_TITLE_BLOCK
10
293
20
25.5
30
0.0
40
2.8
1
DWG No.: BV-02
7
STANDARD
0
TEXT
8
E_TITLE_BLOCK
10
15
20
16
30
0.0
40
2.6
1
STUDENT: __________
7
STANDARD
0
TEXT
8
E_TITLE_BLOCK
10
153
20
16
30
0.0
40
2.6
1
SUPERVISOR: ______
7
STANDARD
0
TEXT
8
E_TITLE_BLOCK
10
233
20
16
30
0.0
40
2.6
1
DATE: 2026-06-11
7
STANDARD
0
TEXT
8
E_TITLE_BLOCK
10
303
20
16
30
0.0
40
2.6
1
REV: B FINAL
7
STANDARD
0
TEXT
8
E_TITLE_BLOCK
10
353
20
16
30
0.0
40
2.6
1
SCALE: NTS
7
STANDARD
0
LINE
8
E_POWER_MAIN
10
60
20
60
30
0.0
11
160
21
60
31
0.0
0
LINE
8
E_POWER_MAIN
10
160
20
60
30
0.0
11
160
21
255
31
0.0
0
LINE
8
E_POWER_MAIN
10
160
20
255
30
0.0
11
60
21
255
31
0.0
0
LINE
8
E_POWER_MAIN
10
60
20
255
30
0.0
11
60
21
60
31
0.0
0
LINE
8
E_POWER_MAIN
10
60
20
78
30
0.0
11
160
21
78
31
0.0
0
LINE
8
E_DIMENSIONS
10
60
20
90.64
30
0.0
11
160
21
90.64
31
0.0
0
LINE
8
E_DIMENSIONS
10
60
20
103.28
30
0.0
11
160
21
103.28
31
0.0
0
LINE
8
E_DIMENSIONS
10
60
20
115.92
30
0.0
11
160
21
115.92
31
0.0
0
LINE
8
E_DIMENSIONS
10
60
20
128.56
30
0.0
11
160
21
128.56
31
0.0
0
LINE
8
E_DIMENSIONS
10
60
20
141.2
30
0.0
11
160
21
141.2
31
0.0
0
LINE
8
E_DIMENSIONS
10
60
20
153.84
30
0.0
11
160
21
153.84
31
0.0
0
LINE
8
E_DIMENSIONS
10
60
20
166.48
30
0.0
11
160
21
166.48
31
0.0
0
LINE
8
E_DIMENSIONS
10
60
20
179.12
30
0.0
11
160
21
179.12
31
0.0
0
LINE
8
E_DIMENSIONS
10
60
20
191.76
30
0.0
11
160
21
191.76
31
0.0
0
LINE
8
E_DIMENSIONS
10
60
20
204.4
30
0.0
11
160
21
204.4
31
0.0
0
LINE
8
E_DIMENSIONS
10
60
20
217.04
30
0.0
11
160
21
217.04
31
0.0
0
LINE
8
E_DIMENSIONS
10
60
20
229.68
30
0.0
11
160
21
229.68
31
0.0
0
LINE
8
E_DIMENSIONS
10
60
20
242.32
30
0.0
11
160
21
242.32
31
0.0
0
LINE
8
E_PV
10
70
20
255
30
0.0
11
150
21
255
31
0.0
0
LINE
8
E_PV
10
150
20
255
30
0.0
11
150
21
263
31
0.0
0
LINE
8
E_PV
10
150
20
263
30
0.0
11
70
21
263
31
0.0
0
LINE
8
E_PV
10
70
20
263
30
0.0
11
70
21
255
31
0.0
0
TEXT
8
E_TEXT
10
72
20
257.2
30
0.0
40
2.3
1
ROOF PV ARRAY (200kWp total)
7
STANDARD
0
TEXT
8
E_TEXT
10
62
20
70
30
0.0
40
2.3
1
GROUND FLOOR - technical/public
7
STANDARD
0
TEXT
8
E_TEXT
10
62
20
246
30
0.0
40
2.2
1
FLOOR 14
7
STANDARD
0
TEXT
8
E_TEXT
10
62
20
80.5
30
0.0
40
2.2
1
FLOOR 1
7
STANDARD
0
TEXT
8
E_TEXT
10
60
20
270
30
0.0
40
3.2
1
BUILDING VIEW 2 - CABLE ROUTING
7
STANDARD
0
LINE
8
E_DIMENSIONS
10
20
20
58
30
0.0
11
410
21
58
31
0.0
0
TEXT
8
E_DIMENSIONS
10
380
20
59.5
30
0.0
40
2.2
1
grade
7
STANDARD
0
LINE
8
E_POWER_MAIN
10
300
20
40
30
0.0
11
370
21
40
31
0.0
0
LINE
8
E_POWER_MAIN
10
370
20
40
30
0.0
11
370
21
56
31
0.0
0
LINE
8
E_POWER_MAIN
10
370
20
56
30
0.0
11
300
21
56
31
0.0
0
LINE
8
E_POWER_MAIN
10
300
20
56
30
0.0
11
300
21
40
31
0.0
0
TEXT
8
E_TEXT
10
302
20
51.5
30
0.0
40
2.8
1
FROM MDB
7
STANDARD
0
TEXT
8
E_TEXT
10
302
20
47
30
0.0
40
2.6
1
trench depth >=0.8m
7
STANDARD
0
LINE
8
E_CABLES
10
300
20
48
30
0.0
11
150
21
48
31
0.0
0
LINE
8
E_CABLES
10
150
20
48
30
0.0
11
150
21
62
31
0.0
0
TEXT
8
E_CABLES
10
170
20
50
30
0.0
40
2.3
1
underground duct + sand bed + warning tape
7
STANDARD
0
LINE
8
E_CABLES
10
103
20
78
30
0.0
11
117
21
78
31
0.0
0
LINE
8
E_CABLES
10
117
20
78
30
0.0
11
117
21
255
31
0.0
0
LINE
8
E_CABLES
10
117
20
255
30
0.0
11
103
21
255
31
0.0
0
LINE
8
E_CABLES
10
103
20
255
30
0.0
11
103
21
78
31
0.0
0
TEXT
8
E_CABLES
10
119
20
230
30
0.0
40
2.3
1
RISER SHAFT (fire-sealed each floor)
7
STANDARD
0
LINE
8
E_CABLES
10
117
20
84.32
30
0.0
11
150
21
84.32
31
0.0
0
LINE
8
E_CABLES
10
117
20
96.96
30
0.0
11
150
21
96.96
31
0.0
0
LINE
8
E_CABLES
10
117
20
109.6
30
0.0
11
150
21
109.6
31
0.0
0
LINE
8
E_CABLES
10
117
20
122.24
30
0.0
11
150
21
122.24
31
0.0
0
LINE
8
E_CABLES
10
117
20
134.88
30
0.0
11
150
21
134.88
31
0.0
0
LINE
8
E_CABLES
10
117
20
147.52
30
0.0
11
150
21
147.52
31
0.0
0
LINE
8
E_CABLES
10
117
20
160.16
30
0.0
11
150
21
160.16
31
0.0
0
LINE
8
E_CABLES
10
117
20
172.8
30
0.0
11
150
21
172.8
31
0.0
0
LINE
8
E_CABLES
10
117
20
185.44
30
0.0
11
150
21
185.44
31
0.0
0
LINE
8
E_CABLES
10
117
20
198.08
30
0.0
11
150
21
198.08
31
0.0
0
LINE
8
E_CABLES
10
117
20
210.72
30
0.0
11
150
21
210.72
31
0.0
0
LINE
8
E_CABLES
10
117
20
223.36
30
0.0
11
150
21
223.36
31
0.0
0
LINE
8
E_CABLES
10
117
20
236
30
0.0
11
150
21
236
31
0.0
0
LINE
8
E_CABLES
10
117
20
248.64
30
0.0
11
150
21
248.64
31
0.0
0
TEXT
8
E_CABLES
10
152
20
145
30
0.0
40
2.2
1
floor trunking to floor panel
7
STANDARD
0
LINE
8
E_PV
10
110
20
255
30
0.0
11
110
21
263
31
0.0
0
LINE
8
E_PV
10
110
20
263
30
0.0
11
85
21
263
31
0.0
0
TEXT
8
E_PV
10
165
20
260
30
0.0
40
2.3
1
PV DC route in dedicated conduit to inverters
7
STANDARD
0
LINE
8
E_CABLES
10
230
20
100
30
0.0
11
320
21
100
31
0.0
0
LINE
8
E_CABLES
10
320
20
100
30
0.0
11
320
21
116
31
0.0
0
LINE
8
E_CABLES
10
320
20
116
30
0.0
11
230
21
116
31
0.0
0
LINE
8
E_CABLES
10
230
20
116
30
0.0
11
230
21
100
31
0.0
0
TEXT
8
E_TEXT
10
232
20
111.5
30
0.0
40
2.8
1
SEPARATION
7
STANDARD
0
TEXT
8
E_TEXT
10
232
20
107
30
0.0
40
2.6
1
LV power / comms >=0.3m
7
STANDARD
0
TEXT
8
E_DIMENSIONS
10
14
20
47
30
0.0
40
2.6
1
NOTES: Cable containment: trench entry, sealed riser shaft, floor trunking, PV DC conduit.
7
STANDARD
0
ENDSEC
0
EOF
