0
SECTION
2
HEADER
9
$ACADVER
1
AC1009
9
$INSUNITS
70
4
0
ENDSEC
0
SECTION
2
TABLES
0
TABLE
2
LTYPE
70
1
0
LTYPE
2
CONTINUOUS
70
0
3
Solid line
72
65
73
0
40
0.0
0
ENDTAB
0
TABLE
2
LAYER
70
14
0
LAYER
2
E_POWER_MAIN
70
0
62
1
6
CONTINUOUS
0
LAYER
2
E_POWER_FEEDERS
70
0
62
5
6
CONTINUOUS
0
LAYER
2
E_PROTECTION
70
0
62
30
6
CONTINUOUS
0
LAYER
2
E_CABLES
70
0
62
3
6
CONTINUOUS
0
LAYER
2
E_EARTHING
70
0
62
6
6
CONTINUOUS
0
LAYER
2
E_EV
70
0
62
4
6
CONTINUOUS
0
LAYER
2
E_PV
70
0
62
2
6
CONTINUOUS
0
LAYER
2
E_BESS
70
0
62
140
6
CONTINUOUS
0
LAYER
2
E_UPS_GEN
70
0
62
8
6
CONTINUOUS
0
LAYER
2
E_LIGHTING
70
0
62
40
6
CONTINUOUS
0
LAYER
2
E_BMS_EMS
70
0
62
150
6
CONTINUOUS
0
LAYER
2
E_TEXT
70
0
62
7
6
CONTINUOUS
0
LAYER
2
E_TITLE_BLOCK
70
0
62
7
6
CONTINUOUS
0
LAYER
2
E_DIMENSIONS
70
0
62
8
6
CONTINUOUS
0
ENDTAB
0
TABLE
2
STYLE
70
1
0
STYLE
2
STANDARD
70
0
40
0.0
41
1.0
50
0.0
71
0
42
2.5
3
txt
4

0
ENDTAB
0
ENDSEC
0
SECTION
2
ENTITIES
0
LINE
8
E_TITLE_BLOCK
10
8
20
8
30
0.0
11
412
21
8
31
0.0
0
LINE
8
E_TITLE_BLOCK
10
412
20
8
30
0.0
11
412
21
289
31
0.0
0
LINE
8
E_TITLE_BLOCK
10
412
20
289
30
0.0
11
8
21
289
31
0.0
0
LINE
8
E_TITLE_BLOCK
10
8
20
289
30
0.0
11
8
21
8
31
0.0
0
LINE
8
E_TITLE_BLOCK
10
10
20
10
30
0.0
11
410
21
10
31
0.0
0
LINE
8
E_TITLE_BLOCK
10
410
20
10
30
0.0
11
410
21
287
31
0.0
0
LINE
8
E_TITLE_BLOCK
10
410
20
287
30
0.0
11
10
21
287
31
0.0
0
LINE
8
E_TITLE_BLOCK
10
10
20
287
30
0.0
11
10
21
10
31
0.0
0
TEXT
8
E_TITLE_BLOCK
10
14
20
281
30
0.0
40
5.5
1
E-002   Typical Building SLD
7
STANDARD
0
LINE
8
E_TITLE_BLOCK
10
12
20
12
30
0.0
11
408
21
12
31
0.0
0
LINE
8
E_TITLE_BLOCK
10
408
20
12
30
0.0
11
408
21
44
31
0.0
0
LINE
8
E_TITLE_BLOCK
10
408
20
44
30
0.0
11
12
21
44
31
0.0
0
LINE
8
E_TITLE_BLOCK
10
12
20
44
30
0.0
11
12
21
12
31
0.0
0
LINE
8
E_TITLE_BLOCK
10
12
20
32
30
0.0
11
408
21
32
31
0.0
0
LINE
8
E_TITLE_BLOCK
10
12
20
23
30
0.0
11
408
21
23
31
0.0
0
LINE
8
E_TITLE_BLOCK
10
290
20
32
30
0.0
11
290
21
23
31
0.0
0
LINE
8
E_TITLE_BLOCK
10
150
20
12
30
0.0
11
150
21
23
31
0.0
0
LINE
8
E_TITLE_BLOCK
10
230
20
12
30
0.0
11
230
21
23
31
0.0
0
LINE
8
E_TITLE_BLOCK
10
300
20
12
30
0.0
11
300
21
23
31
0.0
0
LINE
8
E_TITLE_BLOCK
10
350
20
12
30
0.0
11
350
21
23
31
0.0
0
TEXT
8
E_TITLE_BLOCK
10
15
20
35.5
30
0.0
40
3
1
PROJECT: Smart Residential Neighborhood - Power Systems (Option B, LV 22/0.4kV)
7
STANDARD
0
TEXT
8
E_TITLE_BLOCK
10
305
20
35.5
30
0.0
40
2.8
1
MILESTONE 4 - FINAL
7
STANDARD
0
TEXT
8
E_TITLE_BLOCK
10
15
20
25.5
30
0.0
40
2.8
1
DRAWING: Typical Building SLD
7
STANDARD
0
TEXT
8
E_TITLE_BLOCK
10
293
20
25.5
30
0.0
40
2.8
1
DWG No.: E-002
7
STANDARD
0
TEXT
8
E_TITLE_BLOCK
10
15
20
16
30
0.0
40
2.6
1
STUDENT: __________
7
STANDARD
0
TEXT
8
E_TITLE_BLOCK
10
153
20
16
30
0.0
40
2.6
1
SUPERVISOR: ______
7
STANDARD
0
TEXT
8
E_TITLE_BLOCK
10
233
20
16
30
0.0
40
2.6
1
DATE: 2026-06-11
7
STANDARD
0
TEXT
8
E_TITLE_BLOCK
10
303
20
16
30
0.0
40
2.6
1
REV: B FINAL
7
STANDARD
0
TEXT
8
E_TITLE_BLOCK
10
353
20
16
30
0.0
40
2.6
1
SCALE: NTS
7
STANDARD
0
LINE
8
E_POWER_FEEDERS
10
30
20
250
30
0.0
11
90
21
250
31
0.0
0
LINE
8
E_POWER_FEEDERS
10
90
20
250
30
0.0
11
90
21
266
31
0.0
0
LINE
8
E_POWER_FEEDERS
10
90
20
266
30
0.0
11
30
21
266
31
0.0
0
LINE
8
E_POWER_FEEDERS
10
30
20
266
30
0.0
11
30
21
250
31
0.0
0
TEXT
8
E_TEXT
10
32
20
261.5
30
0.0
40
2.8
1
FROM MDB
7
STANDARD
0
TEXT
8
E_TEXT
10
32
20
257
30
0.0
40
2.6
1
MCCB 800A
7
STANDARD
0
LINE
8
E_CABLES
10
60
20
250
30
0.0
11
60
21
235
31
0.0
0
TEXT
8
E_CABLES
10
62
20
242
30
0.0
40
2.6
1
Cu 2x(4x300)+PE150
7
STANDARD
0
LINE
8
E_POWER_MAIN
10
25
20
222
30
0.0
11
145
21
222
31
0.0
0
LINE
8
E_POWER_MAIN
10
145
20
222
30
0.0
11
145
21
234
31
0.0
0
LINE
8
E_POWER_MAIN
10
145
20
234
30
0.0
11
25
21
234
31
0.0
0
LINE
8
E_POWER_MAIN
10
25
20
234
30
0.0
11
25
21
222
31
0.0
0
TEXT
8
E_POWER_MAIN
10
35
20
225
30
0.0
40
3
1
BUILDING MAIN BUSBAR
7
STANDARD
0
LINE
8
E_POWER_FEEDERS
10
200
20
234
30
0.0
11
200
21
70
31
0.0
0
TEXT
8
E_POWER_FEEDERS
10
202
20
150
30
0.0
40
2.8
1
RISER
7
STANDARD
0
LINE
8
E_CABLES
10
145
20
228
30
0.0
11
200
21
228
31
0.0
0
LINE
8
E_POWER_FEEDERS
10
210
20
210
30
0.0
11
280
21
210
31
0.0
0
LINE
8
E_POWER_FEEDERS
10
280
20
210
30
0.0
11
280
21
228
31
0.0
0
LINE
8
E_POWER_FEEDERS
10
280
20
228
30
0.0
11
210
21
228
31
0.0
0
LINE
8
E_POWER_FEEDERS
10
210
20
228
30
0.0
11
210
21
210
31
0.0
0
TEXT
8
E_TEXT
10
212
20
223.5
30
0.0
40
2.8
1
FLOOR 14 PANEL
7
STANDARD
0
TEXT
8
E_TEXT
10
212
20
219
30
0.0
40
2.6
1
MCCB 80A; 4x apt 3x25A
7
STANDARD
0
LINE
8
E_CABLES
10
200
20
219
30
0.0
11
210
21
219
31
0.0
0
LINE
8
E_POWER_FEEDERS
10
210
20
182
30
0.0
11
280
21
182
31
0.0
0
LINE
8
E_POWER_FEEDERS
10
280
20
182
30
0.0
11
280
21
200
31
0.0
0
LINE
8
E_POWER_FEEDERS
10
280
20
200
30
0.0
11
210
21
200
31
0.0
0
LINE
8
E_POWER_FEEDERS
10
210
20
200
30
0.0
11
210
21
182
31
0.0
0
TEXT
8
E_TEXT
10
212
20
195.5
30
0.0
40
2.8
1
FLOOR 11 PANEL
7
STANDARD
0
TEXT
8
E_TEXT
10
212
20
191
30
0.0
40
2.6
1
MCCB 80A; 4x apt 3x25A
7
STANDARD
0
LINE
8
E_CABLES
10
200
20
191
30
0.0
11
210
21
191
31
0.0
0
LINE
8
E_POWER_FEEDERS
10
210
20
154
30
0.0
11
280
21
154
31
0.0
0
LINE
8
E_POWER_FEEDERS
10
280
20
154
30
0.0
11
280
21
172
31
0.0
0
LINE
8
E_POWER_FEEDERS
10
280
20
172
30
0.0
11
210
21
172
31
0.0
0
LINE
8
E_POWER_FEEDERS
10
210
20
172
30
0.0
11
210
21
154
31
0.0
0
TEXT
8
E_TEXT
10
212
20
167.5
30
0.0
40
2.8
1
FLOOR 8 PANEL
7
STANDARD
0
TEXT
8
E_TEXT
10
212
20
163
30
0.0
40
2.6
1
MCCB 80A; 4x apt 3x25A
7
STANDARD
0
LINE
8
E_CABLES
10
200
20
163
30
0.0
11
210
21
163
31
0.0
0
LINE
8
E_POWER_FEEDERS
10
210
20
126
30
0.0
11
280
21
126
31
0.0
0
LINE
8
E_POWER_FEEDERS
10
280
20
126
30
0.0
11
280
21
144
31
0.0
0
LINE
8
E_POWER_FEEDERS
10
280
20
144
30
0.0
11
210
21
144
31
0.0
0
LINE
8
E_POWER_FEEDERS
10
210
20
144
30
0.0
11
210
21
126
31
0.0
0
TEXT
8
E_TEXT
10
212
20
139.5
30
0.0
40
2.8
1
FLOOR 5 PANEL
7
STANDARD
0
TEXT
8
E_TEXT
10
212
20
135
30
0.0
40
2.6
1
MCCB 80A; 4x apt 3x25A
7
STANDARD
0
LINE
8
E_CABLES
10
200
20
135
30
0.0
11
210
21
135
31
0.0
0
LINE
8
E_POWER_FEEDERS
10
210
20
98
30
0.0
11
280
21
98
31
0.0
0
LINE
8
E_POWER_FEEDERS
10
280
20
98
30
0.0
11
280
21
116
31
0.0
0
LINE
8
E_POWER_FEEDERS
10
280
20
116
30
0.0
11
210
21
116
31
0.0
0
LINE
8
E_POWER_FEEDERS
10
210
20
116
30
0.0
11
210
21
98
31
0.0
0
TEXT
8
E_TEXT
10
212
20
111.5
30
0.0
40
2.8
1
FLOOR 2 PANEL
7
STANDARD
0
TEXT
8
E_TEXT
10
212
20
107
30
0.0
40
2.6
1
MCCB 80A; 4x apt 3x25A
7
STANDARD
0
LINE
8
E_CABLES
10
200
20
107
30
0.0
11
210
21
107
31
0.0
0
LINE
8
E_PROTECTION
10
300
20
150
30
0.0
11
370
21
150
31
0.0
0
LINE
8
E_PROTECTION
10
370
20
150
30
0.0
11
370
21
168
31
0.0
0
LINE
8
E_PROTECTION
10
370
20
168
30
0.0
11
300
21
168
31
0.0
0
LINE
8
E_PROTECTION
10
300
20
168
30
0.0
11
300
21
150
31
0.0
0
TEXT
8
E_TEXT
10
302
20
163.5
30
0.0
40
2.8
1
APT PANEL 3x25A
7
STANDARD
0
TEXT
8
E_TEXT
10
302
20
159
30
0.0
40
2.6
1
MCB+RCD 30mA TypeA
7
STANDARD
0
LINE
8
E_CABLES
10
280
20
159
30
0.0
11
300
21
159
31
0.0
0
LINE
8
E_LIGHTING
10
300
20
120
30
0.0
11
370
21
120
31
0.0
0
LINE
8
E_LIGHTING
10
370
20
120
30
0.0
11
370
21
134
31
0.0
0
LINE
8
E_LIGHTING
10
370
20
134
30
0.0
11
300
21
134
31
0.0
0
LINE
8
E_LIGHTING
10
300
20
134
30
0.0
11
300
21
120
31
0.0
0
TEXT
8
E_TEXT
10
302
20
129.5
30
0.0
40
2.8
1
FINAL CIRCUITS
7
STANDARD
0
TEXT
8
E_TEXT
10
302
20
125
30
0.0
40
2.6
1
MCB C16 / C10
7
STANDARD
0
LINE
8
E_CABLES
10
335
20
150
30
0.0
11
335
21
134
31
0.0
0
TEXT
8
E_DIMENSIONS
10
14
20
47
30
0.0
40
2.6
1
NOTES: 56 apt/building (14 floors x 4). Apartment 17.32kVA. Building installed 969.9kVA.
7
STANDARD
0
ENDSEC
0
EOF
