0
SECTION
2
HEADER
9
$ACADVER
1
AC1009
9
$INSUNITS
70
4
0
ENDSEC
0
SECTION
2
TABLES
0
TABLE
2
LTYPE
70
1
0
LTYPE
2
CONTINUOUS
70
0
3
Solid line
72
65
73
0
40
0.0
0
ENDTAB
0
TABLE
2
LAYER
70
14
0
LAYER
2
E_POWER_MAIN
70
0
62
1
6
CONTINUOUS
0
LAYER
2
E_POWER_FEEDERS
70
0
62
5
6
CONTINUOUS
0
LAYER
2
E_PROTECTION
70
0
62
30
6
CONTINUOUS
0
LAYER
2
E_CABLES
70
0
62
3
6
CONTINUOUS
0
LAYER
2
E_EARTHING
70
0
62
6
6
CONTINUOUS
0
LAYER
2
E_EV
70
0
62
4
6
CONTINUOUS
0
LAYER
2
E_PV
70
0
62
2
6
CONTINUOUS
0
LAYER
2
E_BESS
70
0
62
140
6
CONTINUOUS
0
LAYER
2
E_UPS_GEN
70
0
62
8
6
CONTINUOUS
0
LAYER
2
E_LIGHTING
70
0
62
40
6
CONTINUOUS
0
LAYER
2
E_BMS_EMS
70
0
62
150
6
CONTINUOUS
0
LAYER
2
E_TEXT
70
0
62
7
6
CONTINUOUS
0
LAYER
2
E_TITLE_BLOCK
70
0
62
7
6
CONTINUOUS
0
LAYER
2
E_DIMENSIONS
70
0
62
8
6
CONTINUOUS
0
ENDTAB
0
TABLE
2
STYLE
70
1
0
STYLE
2
STANDARD
70
0
40
0.0
41
1.0
50
0.0
71
0
42
2.5
3
txt
4

0
ENDTAB
0
ENDSEC
0
SECTION
2
ENTITIES
0
LINE
8
E_TITLE_BLOCK
10
8
20
8
30
0.0
11
412
21
8
31
0.0
0
LINE
8
E_TITLE_BLOCK
10
412
20
8
30
0.0
11
412
21
289
31
0.0
0
LINE
8
E_TITLE_BLOCK
10
412
20
289
30
0.0
11
8
21
289
31
0.0
0
LINE
8
E_TITLE_BLOCK
10
8
20
289
30
0.0
11
8
21
8
31
0.0
0
LINE
8
E_TITLE_BLOCK
10
10
20
10
30
0.0
11
410
21
10
31
0.0
0
LINE
8
E_TITLE_BLOCK
10
410
20
10
30
0.0
11
410
21
287
31
0.0
0
LINE
8
E_TITLE_BLOCK
10
410
20
287
30
0.0
11
10
21
287
31
0.0
0
LINE
8
E_TITLE_BLOCK
10
10
20
287
30
0.0
11
10
21
10
31
0.0
0
TEXT
8
E_TITLE_BLOCK
10
14
20
281
30
0.0
40
5.5
1
E-003   Main LV MDB Layout
7
STANDARD
0
LINE
8
E_TITLE_BLOCK
10
12
20
12
30
0.0
11
408
21
12
31
0.0
0
LINE
8
E_TITLE_BLOCK
10
408
20
12
30
0.0
11
408
21
44
31
0.0
0
LINE
8
E_TITLE_BLOCK
10
408
20
44
30
0.0
11
12
21
44
31
0.0
0
LINE
8
E_TITLE_BLOCK
10
12
20
44
30
0.0
11
12
21
12
31
0.0
0
LINE
8
E_TITLE_BLOCK
10
12
20
32
30
0.0
11
408
21
32
31
0.0
0
LINE
8
E_TITLE_BLOCK
10
12
20
23
30
0.0
11
408
21
23
31
0.0
0
LINE
8
E_TITLE_BLOCK
10
290
20
32
30
0.0
11
290
21
23
31
0.0
0
LINE
8
E_TITLE_BLOCK
10
150
20
12
30
0.0
11
150
21
23
31
0.0
0
LINE
8
E_TITLE_BLOCK
10
230
20
12
30
0.0
11
230
21
23
31
0.0
0
LINE
8
E_TITLE_BLOCK
10
300
20
12
30
0.0
11
300
21
23
31
0.0
0
LINE
8
E_TITLE_BLOCK
10
350
20
12
30
0.0
11
350
21
23
31
0.0
0
TEXT
8
E_TITLE_BLOCK
10
15
20
35.5
30
0.0
40
3
1
PROJECT: Smart Residential Neighborhood - Power Systems (Option B, LV 22/0.4kV)
7
STANDARD
0
TEXT
8
E_TITLE_BLOCK
10
305
20
35.5
30
0.0
40
2.8
1
MILESTONE 4 - FINAL
7
STANDARD
0
TEXT
8
E_TITLE_BLOCK
10
15
20
25.5
30
0.0
40
2.8
1
DRAWING: Main LV MDB Layout
7
STANDARD
0
TEXT
8
E_TITLE_BLOCK
10
293
20
25.5
30
0.0
40
2.8
1
DWG No.: E-003
7
STANDARD
0
TEXT
8
E_TITLE_BLOCK
10
15
20
16
30
0.0
40
2.6
1
STUDENT: __________
7
STANDARD
0
TEXT
8
E_TITLE_BLOCK
10
153
20
16
30
0.0
40
2.6
1
SUPERVISOR: ______
7
STANDARD
0
TEXT
8
E_TITLE_BLOCK
10
233
20
16
30
0.0
40
2.6
1
DATE: 2026-06-11
7
STANDARD
0
TEXT
8
E_TITLE_BLOCK
10
303
20
16
30
0.0
40
2.6
1
REV: B FINAL
7
STANDARD
0
TEXT
8
E_TITLE_BLOCK
10
353
20
16
30
0.0
40
2.6
1
SCALE: NTS
7
STANDARD
0
LINE
8
E_POWER_MAIN
10
30
20
70
30
0.0
11
380
21
70
31
0.0
0
LINE
8
E_POWER_MAIN
10
380
20
70
30
0.0
11
380
21
270
31
0.0
0
LINE
8
E_POWER_MAIN
10
380
20
270
30
0.0
11
30
21
270
31
0.0
0
LINE
8
E_POWER_MAIN
10
30
20
270
30
0.0
11
30
21
70
31
0.0
0
TEXT
8
E_POWER_MAIN
10
150
20
262
30
0.0
40
3
1
MDB CABINET - 2500A / Icw 65kA
7
STANDARD
0
LINE
8
E_POWER_MAIN
10
30
20
250
30
0.0
11
380
21
250
31
0.0
0
TEXT
8
E_POWER_MAIN
10
150
20
253
30
0.0
40
2.8
1
BUSBAR 2500A (Cu)
7
STANDARD
0
LINE
8
E_PROTECTION
10
45
20
215
30
0.0
11
135
21
215
31
0.0
0
LINE
8
E_PROTECTION
10
135
20
215
30
0.0
11
135
21
243
31
0.0
0
LINE
8
E_PROTECTION
10
135
20
243
30
0.0
11
45
21
243
31
0.0
0
LINE
8
E_PROTECTION
10
45
20
243
30
0.0
11
45
21
215
31
0.0
0
TEXT
8
E_TEXT
10
47
20
238.5
30
0.0
40
2.8
1
INCOMER 1
7
STANDARD
0
TEXT
8
E_TEXT
10
47
20
234
30
0.0
40
2.6
1
ACB 1600A / 65kA
7
STANDARD
0
LINE
8
E_PROTECTION
10
275
20
215
30
0.0
11
365
21
215
31
0.0
0
LINE
8
E_PROTECTION
10
365
20
215
30
0.0
11
365
21
243
31
0.0
0
LINE
8
E_PROTECTION
10
365
20
243
30
0.0
11
275
21
243
31
0.0
0
LINE
8
E_PROTECTION
10
275
20
243
30
0.0
11
275
21
215
31
0.0
0
TEXT
8
E_TEXT
10
277
20
238.5
30
0.0
40
2.8
1
INCOMER 2
7
STANDARD
0
TEXT
8
E_TEXT
10
277
20
234
30
0.0
40
2.6
1
ACB 1600A / 65kA
7
STANDARD
0
LINE
8
E_PROTECTION
10
160
20
215
30
0.0
11
250
21
215
31
0.0
0
LINE
8
E_PROTECTION
10
250
20
215
30
0.0
11
250
21
243
31
0.0
0
LINE
8
E_PROTECTION
10
250
20
243
30
0.0
11
160
21
243
31
0.0
0
LINE
8
E_PROTECTION
10
160
20
243
30
0.0
11
160
21
215
31
0.0
0
TEXT
8
E_TEXT
10
162
20
238.5
30
0.0
40
2.8
1
BUS-TIE
7
STANDARD
0
TEXT
8
E_TEXT
10
162
20
234
30
0.0
40
2.6
1
1600A
7
STANDARD
0
LINE
8
E_POWER_FEEDERS
10
32
20
110
30
0.0
11
64
21
110
31
0.0
0
LINE
8
E_POWER_FEEDERS
10
64
20
110
30
0.0
11
64
21
134
31
0.0
0
LINE
8
E_POWER_FEEDERS
10
64
20
134
30
0.0
11
32
21
134
31
0.0
0
LINE
8
E_POWER_FEEDERS
10
32
20
134
30
0.0
11
32
21
110
31
0.0
0
TEXT
8
E_TEXT
10
34
20
129.5
30
0.0
40
2.8
1
OUT
7
STANDARD
0
TEXT
8
E_TEXT
10
34
20
125
30
0.0
40
2.6
1
BLDG A 800A
7
STANDARD
0
LINE
8
E_CABLES
10
48
20
134
30
0.0
11
48
21
145
31
0.0
0
LINE
8
E_POWER_FEEDERS
10
67
20
110
30
0.0
11
99
21
110
31
0.0
0
LINE
8
E_POWER_FEEDERS
10
99
20
110
30
0.0
11
99
21
134
31
0.0
0
LINE
8
E_POWER_FEEDERS
10
99
20
134
30
0.0
11
67
21
134
31
0.0
0
LINE
8
E_POWER_FEEDERS
10
67
20
134
30
0.0
11
67
21
110
31
0.0
0
TEXT
8
E_TEXT
10
69
20
129.5
30
0.0
40
2.8
1
OUT
7
STANDARD
0
TEXT
8
E_TEXT
10
69
20
125
30
0.0
40
2.6
1
BLDG B 800A
7
STANDARD
0
LINE
8
E_CABLES
10
83
20
134
30
0.0
11
83
21
145
31
0.0
0
LINE
8
E_POWER_FEEDERS
10
102
20
110
30
0.0
11
134
21
110
31
0.0
0
LINE
8
E_POWER_FEEDERS
10
134
20
110
30
0.0
11
134
21
134
31
0.0
0
LINE
8
E_POWER_FEEDERS
10
134
20
134
30
0.0
11
102
21
134
31
0.0
0
LINE
8
E_POWER_FEEDERS
10
102
20
134
30
0.0
11
102
21
110
31
0.0
0
TEXT
8
E_TEXT
10
104
20
129.5
30
0.0
40
2.8
1
OUT
7
STANDARD
0
TEXT
8
E_TEXT
10
104
20
125
30
0.0
40
2.6
1
BLDG C 800A
7
STANDARD
0
LINE
8
E_CABLES
10
118
20
134
30
0.0
11
118
21
145
31
0.0
0
LINE
8
E_POWER_FEEDERS
10
137
20
110
30
0.0
11
169
21
110
31
0.0
0
LINE
8
E_POWER_FEEDERS
10
169
20
110
30
0.0
11
169
21
134
31
0.0
0
LINE
8
E_POWER_FEEDERS
10
169
20
134
30
0.0
11
137
21
134
31
0.0
0
LINE
8
E_POWER_FEEDERS
10
137
20
134
30
0.0
11
137
21
110
31
0.0
0
TEXT
8
E_TEXT
10
139
20
129.5
30
0.0
40
2.8
1
OUT
7
STANDARD
0
TEXT
8
E_TEXT
10
139
20
125
30
0.0
40
2.6
1
EV 250A
7
STANDARD
0
LINE
8
E_CABLES
10
153
20
134
30
0.0
11
153
21
145
31
0.0
0
LINE
8
E_POWER_FEEDERS
10
172
20
110
30
0.0
11
204
21
110
31
0.0
0
LINE
8
E_POWER_FEEDERS
10
204
20
110
30
0.0
11
204
21
134
31
0.0
0
LINE
8
E_POWER_FEEDERS
10
204
20
134
30
0.0
11
172
21
134
31
0.0
0
LINE
8
E_POWER_FEEDERS
10
172
20
134
30
0.0
11
172
21
110
31
0.0
0
TEXT
8
E_TEXT
10
174
20
129.5
30
0.0
40
2.8
1
OUT
7
STANDARD
0
TEXT
8
E_TEXT
10
174
20
125
30
0.0
40
2.6
1
PV 315A
7
STANDARD
0
LINE
8
E_CABLES
10
188
20
134
30
0.0
11
188
21
145
31
0.0
0
LINE
8
E_POWER_FEEDERS
10
207
20
110
30
0.0
11
239
21
110
31
0.0
0
LINE
8
E_POWER_FEEDERS
10
239
20
110
30
0.0
11
239
21
134
31
0.0
0
LINE
8
E_POWER_FEEDERS
10
239
20
134
30
0.0
11
207
21
134
31
0.0
0
LINE
8
E_POWER_FEEDERS
10
207
20
134
30
0.0
11
207
21
110
31
0.0
0
TEXT
8
E_TEXT
10
209
20
129.5
30
0.0
40
2.8
1
OUT
7
STANDARD
0
TEXT
8
E_TEXT
10
209
20
125
30
0.0
40
2.6
1
BESS 400A Ir380
7
STANDARD
0
LINE
8
E_CABLES
10
223
20
134
30
0.0
11
223
21
145
31
0.0
0
LINE
8
E_POWER_FEEDERS
10
242
20
110
30
0.0
11
274
21
110
31
0.0
0
LINE
8
E_POWER_FEEDERS
10
274
20
110
30
0.0
11
274
21
134
31
0.0
0
LINE
8
E_POWER_FEEDERS
10
274
20
134
30
0.0
11
242
21
134
31
0.0
0
LINE
8
E_POWER_FEEDERS
10
242
20
134
30
0.0
11
242
21
110
31
0.0
0
TEXT
8
E_TEXT
10
244
20
129.5
30
0.0
40
2.8
1
OUT
7
STANDARD
0
TEXT
8
E_TEXT
10
244
20
125
30
0.0
40
2.6
1
GEN/ATS 630A
7
STANDARD
0
LINE
8
E_CABLES
10
258
20
134
30
0.0
11
258
21
145
31
0.0
0
LINE
8
E_POWER_FEEDERS
10
277
20
110
30
0.0
11
309
21
110
31
0.0
0
LINE
8
E_POWER_FEEDERS
10
309
20
110
30
0.0
11
309
21
134
31
0.0
0
LINE
8
E_POWER_FEEDERS
10
309
20
134
30
0.0
11
277
21
134
31
0.0
0
LINE
8
E_POWER_FEEDERS
10
277
20
134
30
0.0
11
277
21
110
31
0.0
0
TEXT
8
E_TEXT
10
279
20
129.5
30
0.0
40
2.8
1
OUT
7
STANDARD
0
TEXT
8
E_TEXT
10
279
20
125
30
0.0
40
2.6
1
CAP 315A
7
STANDARD
0
LINE
8
E_CABLES
10
293
20
134
30
0.0
11
293
21
145
31
0.0
0
LINE
8
E_POWER_FEEDERS
10
312
20
110
30
0.0
11
344
21
110
31
0.0
0
LINE
8
E_POWER_FEEDERS
10
344
20
110
30
0.0
11
344
21
134
31
0.0
0
LINE
8
E_POWER_FEEDERS
10
344
20
134
30
0.0
11
312
21
134
31
0.0
0
LINE
8
E_POWER_FEEDERS
10
312
20
134
30
0.0
11
312
21
110
31
0.0
0
TEXT
8
E_TEXT
10
314
20
129.5
30
0.0
40
2.8
1
OUT
7
STANDARD
0
TEXT
8
E_TEXT
10
314
20
125
30
0.0
40
2.6
1
PUBLIC 32A
7
STANDARD
0
LINE
8
E_CABLES
10
328
20
134
30
0.0
11
328
21
145
31
0.0
0
LINE
8
E_POWER_FEEDERS
10
347
20
110
30
0.0
11
379
21
110
31
0.0
0
LINE
8
E_POWER_FEEDERS
10
379
20
110
30
0.0
11
379
21
134
31
0.0
0
LINE
8
E_POWER_FEEDERS
10
379
20
134
30
0.0
11
347
21
134
31
0.0
0
LINE
8
E_POWER_FEEDERS
10
347
20
134
30
0.0
11
347
21
110
31
0.0
0
TEXT
8
E_TEXT
10
349
20
129.5
30
0.0
40
2.8
1
OUT
7
STANDARD
0
TEXT
8
E_TEXT
10
349
20
125
30
0.0
40
2.6
1
UPS 40A
7
STANDARD
0
LINE
8
E_CABLES
10
363
20
134
30
0.0
11
363
21
145
31
0.0
0
TEXT
8
E_DIMENSIONS
10
40
20
90
30
0.0
40
2.6
1
Form 4 segregation, IP41, copper busbar, TN-S
7
STANDARD
0
TEXT
8
E_DIMENSIONS
10
14
20
47
30
0.0
40
2.6
1
NOTES: Two-section MDB; each section fed by one 1000kVA transformer; bus-tie for N-1.
7
STANDARD
0
ENDSEC
0
EOF
