0
SECTION
2
HEADER
9
$ACADVER
1
AC1009
9
$INSUNITS
70
4
0
ENDSEC
0
SECTION
2
TABLES
0
TABLE
2
LTYPE
70
1
0
LTYPE
2
CONTINUOUS
70
0
3
Solid line
72
65
73
0
40
0.0
0
ENDTAB
0
TABLE
2
LAYER
70
14
0
LAYER
2
E_POWER_MAIN
70
0
62
1
6
CONTINUOUS
0
LAYER
2
E_POWER_FEEDERS
70
0
62
5
6
CONTINUOUS
0
LAYER
2
E_PROTECTION
70
0
62
30
6
CONTINUOUS
0
LAYER
2
E_CABLES
70
0
62
3
6
CONTINUOUS
0
LAYER
2
E_EARTHING
70
0
62
6
6
CONTINUOUS
0
LAYER
2
E_EV
70
0
62
4
6
CONTINUOUS
0
LAYER
2
E_PV
70
0
62
2
6
CONTINUOUS
0
LAYER
2
E_BESS
70
0
62
140
6
CONTINUOUS
0
LAYER
2
E_UPS_GEN
70
0
62
8
6
CONTINUOUS
0
LAYER
2
E_LIGHTING
70
0
62
40
6
CONTINUOUS
0
LAYER
2
E_BMS_EMS
70
0
62
150
6
CONTINUOUS
0
LAYER
2
E_TEXT
70
0
62
7
6
CONTINUOUS
0
LAYER
2
E_TITLE_BLOCK
70
0
62
7
6
CONTINUOUS
0
LAYER
2
E_DIMENSIONS
70
0
62
8
6
CONTINUOUS
0
ENDTAB
0
TABLE
2
STYLE
70
1
0
STYLE
2
STANDARD
70
0
40
0.0
41
1.0
50
0.0
71
0
42
2.5
3
txt
4

0
ENDTAB
0
ENDSEC
0
SECTION
2
ENTITIES
0
LINE
8
E_TITLE_BLOCK
10
8
20
8
30
0.0
11
412
21
8
31
0.0
0
LINE
8
E_TITLE_BLOCK
10
412
20
8
30
0.0
11
412
21
289
31
0.0
0
LINE
8
E_TITLE_BLOCK
10
412
20
289
30
0.0
11
8
21
289
31
0.0
0
LINE
8
E_TITLE_BLOCK
10
8
20
289
30
0.0
11
8
21
8
31
0.0
0
LINE
8
E_TITLE_BLOCK
10
10
20
10
30
0.0
11
410
21
10
31
0.0
0
LINE
8
E_TITLE_BLOCK
10
410
20
10
30
0.0
11
410
21
287
31
0.0
0
LINE
8
E_TITLE_BLOCK
10
410
20
287
30
0.0
11
10
21
287
31
0.0
0
LINE
8
E_TITLE_BLOCK
10
10
20
287
30
0.0
11
10
21
10
31
0.0
0
TEXT
8
E_TITLE_BLOCK
10
14
20
281
30
0.0
40
5.5
1
E-004   Sub Panels Layout
7
STANDARD
0
LINE
8
E_TITLE_BLOCK
10
12
20
12
30
0.0
11
408
21
12
31
0.0
0
LINE
8
E_TITLE_BLOCK
10
408
20
12
30
0.0
11
408
21
44
31
0.0
0
LINE
8
E_TITLE_BLOCK
10
408
20
44
30
0.0
11
12
21
44
31
0.0
0
LINE
8
E_TITLE_BLOCK
10
12
20
44
30
0.0
11
12
21
12
31
0.0
0
LINE
8
E_TITLE_BLOCK
10
12
20
32
30
0.0
11
408
21
32
31
0.0
0
LINE
8
E_TITLE_BLOCK
10
12
20
23
30
0.0
11
408
21
23
31
0.0
0
LINE
8
E_TITLE_BLOCK
10
290
20
32
30
0.0
11
290
21
23
31
0.0
0
LINE
8
E_TITLE_BLOCK
10
150
20
12
30
0.0
11
150
21
23
31
0.0
0
LINE
8
E_TITLE_BLOCK
10
230
20
12
30
0.0
11
230
21
23
31
0.0
0
LINE
8
E_TITLE_BLOCK
10
300
20
12
30
0.0
11
300
21
23
31
0.0
0
LINE
8
E_TITLE_BLOCK
10
350
20
12
30
0.0
11
350
21
23
31
0.0
0
TEXT
8
E_TITLE_BLOCK
10
15
20
35.5
30
0.0
40
3
1
PROJECT: Smart Residential Neighborhood - Power Systems (Option B, LV 22/0.4kV)
7
STANDARD
0
TEXT
8
E_TITLE_BLOCK
10
305
20
35.5
30
0.0
40
2.8
1
MILESTONE 4 - FINAL
7
STANDARD
0
TEXT
8
E_TITLE_BLOCK
10
15
20
25.5
30
0.0
40
2.8
1
DRAWING: Sub Panels Layout
7
STANDARD
0
TEXT
8
E_TITLE_BLOCK
10
293
20
25.5
30
0.0
40
2.8
1
DWG No.: E-004
7
STANDARD
0
TEXT
8
E_TITLE_BLOCK
10
15
20
16
30
0.0
40
2.6
1
STUDENT: __________
7
STANDARD
0
TEXT
8
E_TITLE_BLOCK
10
153
20
16
30
0.0
40
2.6
1
SUPERVISOR: ______
7
STANDARD
0
TEXT
8
E_TITLE_BLOCK
10
233
20
16
30
0.0
40
2.6
1
DATE: 2026-06-11
7
STANDARD
0
TEXT
8
E_TITLE_BLOCK
10
303
20
16
30
0.0
40
2.6
1
REV: B FINAL
7
STANDARD
0
TEXT
8
E_TITLE_BLOCK
10
353
20
16
30
0.0
40
2.6
1
SCALE: NTS
7
STANDARD
0
LINE
8
E_POWER_MAIN
10
170
20
250
30
0.0
11
240
21
250
31
0.0
0
LINE
8
E_POWER_MAIN
10
240
20
250
30
0.0
11
240
21
268
31
0.0
0
LINE
8
E_POWER_MAIN
10
240
20
268
30
0.0
11
170
21
268
31
0.0
0
LINE
8
E_POWER_MAIN
10
170
20
268
30
0.0
11
170
21
250
31
0.0
0
TEXT
8
E_TEXT
10
172
20
263.5
30
0.0
40
2.8
1
MDB 2500A
7
STANDARD
0
TEXT
8
E_TEXT
10
172
20
259
30
0.0
40
2.6
1
Icw 65kA
7
STANDARD
0
LINE
8
E_POWER_FEEDERS
10
20
20
190
30
0.0
11
86
21
190
31
0.0
0
LINE
8
E_POWER_FEEDERS
10
86
20
190
30
0.0
11
86
21
212
31
0.0
0
LINE
8
E_POWER_FEEDERS
10
86
20
212
30
0.0
11
20
21
212
31
0.0
0
LINE
8
E_POWER_FEEDERS
10
20
20
212
30
0.0
11
20
21
190
31
0.0
0
TEXT
8
E_TEXT
10
22
20
207.5
30
0.0
40
2.8
1
PANEL
7
STANDARD
0
TEXT
8
E_TEXT
10
22
20
203
30
0.0
40
2.6
1
BLDG A 800A
7
STANDARD
0
LINE
8
E_CABLES
10
205
20
250
30
0.0
11
53
21
212
31
0.0
0
LINE
8
E_POWER_FEEDERS
10
98
20
190
30
0.0
11
164
21
190
31
0.0
0
LINE
8
E_POWER_FEEDERS
10
164
20
190
30
0.0
11
164
21
212
31
0.0
0
LINE
8
E_POWER_FEEDERS
10
164
20
212
30
0.0
11
98
21
212
31
0.0
0
LINE
8
E_POWER_FEEDERS
10
98
20
212
30
0.0
11
98
21
190
31
0.0
0
TEXT
8
E_TEXT
10
100
20
207.5
30
0.0
40
2.8
1
PANEL
7
STANDARD
0
TEXT
8
E_TEXT
10
100
20
203
30
0.0
40
2.6
1
BLDG B 800A
7
STANDARD
0
LINE
8
E_CABLES
10
205
20
250
30
0.0
11
131
21
212
31
0.0
0
LINE
8
E_POWER_FEEDERS
10
176
20
190
30
0.0
11
242
21
190
31
0.0
0
LINE
8
E_POWER_FEEDERS
10
242
20
190
30
0.0
11
242
21
212
31
0.0
0
LINE
8
E_POWER_FEEDERS
10
242
20
212
30
0.0
11
176
21
212
31
0.0
0
LINE
8
E_POWER_FEEDERS
10
176
20
212
30
0.0
11
176
21
190
31
0.0
0
TEXT
8
E_TEXT
10
178
20
207.5
30
0.0
40
2.8
1
PANEL
7
STANDARD
0
TEXT
8
E_TEXT
10
178
20
203
30
0.0
40
2.6
1
BLDG C 800A
7
STANDARD
0
LINE
8
E_CABLES
10
205
20
250
30
0.0
11
209
21
212
31
0.0
0
LINE
8
E_POWER_FEEDERS
10
254
20
190
30
0.0
11
320
21
190
31
0.0
0
LINE
8
E_POWER_FEEDERS
10
320
20
190
30
0.0
11
320
21
212
31
0.0
0
LINE
8
E_POWER_FEEDERS
10
320
20
212
30
0.0
11
254
21
212
31
0.0
0
LINE
8
E_POWER_FEEDERS
10
254
20
212
30
0.0
11
254
21
190
31
0.0
0
TEXT
8
E_TEXT
10
256
20
207.5
30
0.0
40
2.8
1
PANEL
7
STANDARD
0
TEXT
8
E_TEXT
10
256
20
203
30
0.0
40
2.6
1
EV 250A
7
STANDARD
0
LINE
8
E_CABLES
10
205
20
250
30
0.0
11
287
21
212
31
0.0
0
LINE
8
E_POWER_FEEDERS
10
332
20
190
30
0.0
11
398
21
190
31
0.0
0
LINE
8
E_POWER_FEEDERS
10
398
20
190
30
0.0
11
398
21
212
31
0.0
0
LINE
8
E_POWER_FEEDERS
10
398
20
212
30
0.0
11
332
21
212
31
0.0
0
LINE
8
E_POWER_FEEDERS
10
332
20
212
30
0.0
11
332
21
190
31
0.0
0
TEXT
8
E_TEXT
10
334
20
207.5
30
0.0
40
2.8
1
PANEL
7
STANDARD
0
TEXT
8
E_TEXT
10
334
20
203
30
0.0
40
2.6
1
PV 315A
7
STANDARD
0
LINE
8
E_CABLES
10
205
20
250
30
0.0
11
365
21
212
31
0.0
0
LINE
8
E_POWER_FEEDERS
10
20
20
130
30
0.0
11
86
21
130
31
0.0
0
LINE
8
E_POWER_FEEDERS
10
86
20
130
30
0.0
11
86
21
152
31
0.0
0
LINE
8
E_POWER_FEEDERS
10
86
20
152
30
0.0
11
20
21
152
31
0.0
0
LINE
8
E_POWER_FEEDERS
10
20
20
152
30
0.0
11
20
21
130
31
0.0
0
TEXT
8
E_TEXT
10
22
20
147.5
30
0.0
40
2.8
1
PANEL
7
STANDARD
0
TEXT
8
E_TEXT
10
22
20
143
30
0.0
40
2.6
1
BESS 400A Ir380
7
STANDARD
0
LINE
8
E_CABLES
10
205
20
250
30
0.0
11
53
21
152
31
0.0
0
LINE
8
E_POWER_FEEDERS
10
98
20
130
30
0.0
11
164
21
130
31
0.0
0
LINE
8
E_POWER_FEEDERS
10
164
20
130
30
0.0
11
164
21
152
31
0.0
0
LINE
8
E_POWER_FEEDERS
10
164
20
152
30
0.0
11
98
21
152
31
0.0
0
LINE
8
E_POWER_FEEDERS
10
98
20
152
30
0.0
11
98
21
130
31
0.0
0
TEXT
8
E_TEXT
10
100
20
147.5
30
0.0
40
2.8
1
PANEL
7
STANDARD
0
TEXT
8
E_TEXT
10
100
20
143
30
0.0
40
2.6
1
PUBLIC 32A
7
STANDARD
0
LINE
8
E_CABLES
10
205
20
250
30
0.0
11
131
21
152
31
0.0
0
LINE
8
E_POWER_FEEDERS
10
176
20
130
30
0.0
11
242
21
130
31
0.0
0
LINE
8
E_POWER_FEEDERS
10
242
20
130
30
0.0
11
242
21
152
31
0.0
0
LINE
8
E_POWER_FEEDERS
10
242
20
152
30
0.0
11
176
21
152
31
0.0
0
LINE
8
E_POWER_FEEDERS
10
176
20
152
30
0.0
11
176
21
130
31
0.0
0
TEXT
8
E_TEXT
10
178
20
147.5
30
0.0
40
2.8
1
PANEL
7
STANDARD
0
TEXT
8
E_TEXT
10
178
20
143
30
0.0
40
2.6
1
UPS 40A
7
STANDARD
0
LINE
8
E_CABLES
10
205
20
250
30
0.0
11
209
21
152
31
0.0
0
LINE
8
E_POWER_FEEDERS
10
254
20
130
30
0.0
11
320
21
130
31
0.0
0
LINE
8
E_POWER_FEEDERS
10
320
20
130
30
0.0
11
320
21
152
31
0.0
0
LINE
8
E_POWER_FEEDERS
10
320
20
152
30
0.0
11
254
21
152
31
0.0
0
LINE
8
E_POWER_FEEDERS
10
254
20
152
30
0.0
11
254
21
130
31
0.0
0
TEXT
8
E_TEXT
10
256
20
147.5
30
0.0
40
2.8
1
PANEL
7
STANDARD
0
TEXT
8
E_TEXT
10
256
20
143
30
0.0
40
2.6
1
CAP 200kvar
7
STANDARD
0
LINE
8
E_CABLES
10
205
20
250
30
0.0
11
287
21
152
31
0.0
0
LINE
8
E_POWER_FEEDERS
10
332
20
130
30
0.0
11
398
21
130
31
0.0
0
LINE
8
E_POWER_FEEDERS
10
398
20
130
30
0.0
11
398
21
152
31
0.0
0
LINE
8
E_POWER_FEEDERS
10
398
20
152
30
0.0
11
332
21
152
31
0.0
0
LINE
8
E_POWER_FEEDERS
10
332
20
152
30
0.0
11
332
21
130
31
0.0
0
TEXT
8
E_TEXT
10
334
20
147.5
30
0.0
40
2.8
1
PANEL
7
STANDARD
0
TEXT
8
E_TEXT
10
334
20
143
30
0.0
40
2.6
1
GEN/ATS 630A
7
STANDARD
0
LINE
8
E_CABLES
10
205
20
250
30
0.0
11
365
21
152
31
0.0
0
TEXT
8
E_DIMENSIONS
10
14
20
47
30
0.0
40
2.6
1
NOTES: Panel hierarchy from MDB to all sub-distribution boards.
7
STANDARD
0
ENDSEC
0
EOF
