0
SECTION
2
HEADER
9
$ACADVER
1
AC1009
9
$INSUNITS
70
4
0
ENDSEC
0
SECTION
2
TABLES
0
TABLE
2
LTYPE
70
1
0
LTYPE
2
CONTINUOUS
70
0
3
Solid line
72
65
73
0
40
0.0
0
ENDTAB
0
TABLE
2
LAYER
70
14
0
LAYER
2
E_POWER_MAIN
70
0
62
1
6
CONTINUOUS
0
LAYER
2
E_POWER_FEEDERS
70
0
62
5
6
CONTINUOUS
0
LAYER
2
E_PROTECTION
70
0
62
30
6
CONTINUOUS
0
LAYER
2
E_CABLES
70
0
62
3
6
CONTINUOUS
0
LAYER
2
E_EARTHING
70
0
62
6
6
CONTINUOUS
0
LAYER
2
E_EV
70
0
62
4
6
CONTINUOUS
0
LAYER
2
E_PV
70
0
62
2
6
CONTINUOUS
0
LAYER
2
E_BESS
70
0
62
140
6
CONTINUOUS
0
LAYER
2
E_UPS_GEN
70
0
62
8
6
CONTINUOUS
0
LAYER
2
E_LIGHTING
70
0
62
40
6
CONTINUOUS
0
LAYER
2
E_BMS_EMS
70
0
62
150
6
CONTINUOUS
0
LAYER
2
E_TEXT
70
0
62
7
6
CONTINUOUS
0
LAYER
2
E_TITLE_BLOCK
70
0
62
7
6
CONTINUOUS
0
LAYER
2
E_DIMENSIONS
70
0
62
8
6
CONTINUOUS
0
ENDTAB
0
TABLE
2
STYLE
70
1
0
STYLE
2
STANDARD
70
0
40
0.0
41
1.0
50
0.0
71
0
42
2.5
3
txt
4

0
ENDTAB
0
ENDSEC
0
SECTION
2
ENTITIES
0
LINE
8
E_TITLE_BLOCK
10
8
20
8
30
0.0
11
412
21
8
31
0.0
0
LINE
8
E_TITLE_BLOCK
10
412
20
8
30
0.0
11
412
21
289
31
0.0
0
LINE
8
E_TITLE_BLOCK
10
412
20
289
30
0.0
11
8
21
289
31
0.0
0
LINE
8
E_TITLE_BLOCK
10
8
20
289
30
0.0
11
8
21
8
31
0.0
0
LINE
8
E_TITLE_BLOCK
10
10
20
10
30
0.0
11
410
21
10
31
0.0
0
LINE
8
E_TITLE_BLOCK
10
410
20
10
30
0.0
11
410
21
287
31
0.0
0
LINE
8
E_TITLE_BLOCK
10
410
20
287
30
0.0
11
10
21
287
31
0.0
0
LINE
8
E_TITLE_BLOCK
10
10
20
287
30
0.0
11
10
21
10
31
0.0
0
TEXT
8
E_TITLE_BLOCK
10
14
20
281
30
0.0
40
5.5
1
E-001   Main SLD - Neighborhood
7
STANDARD
0
LINE
8
E_TITLE_BLOCK
10
12
20
12
30
0.0
11
408
21
12
31
0.0
0
LINE
8
E_TITLE_BLOCK
10
408
20
12
30
0.0
11
408
21
44
31
0.0
0
LINE
8
E_TITLE_BLOCK
10
408
20
44
30
0.0
11
12
21
44
31
0.0
0
LINE
8
E_TITLE_BLOCK
10
12
20
44
30
0.0
11
12
21
12
31
0.0
0
LINE
8
E_TITLE_BLOCK
10
12
20
32
30
0.0
11
408
21
32
31
0.0
0
LINE
8
E_TITLE_BLOCK
10
12
20
23
30
0.0
11
408
21
23
31
0.0
0
LINE
8
E_TITLE_BLOCK
10
290
20
32
30
0.0
11
290
21
23
31
0.0
0
LINE
8
E_TITLE_BLOCK
10
150
20
12
30
0.0
11
150
21
23
31
0.0
0
LINE
8
E_TITLE_BLOCK
10
230
20
12
30
0.0
11
230
21
23
31
0.0
0
LINE
8
E_TITLE_BLOCK
10
300
20
12
30
0.0
11
300
21
23
31
0.0
0
LINE
8
E_TITLE_BLOCK
10
350
20
12
30
0.0
11
350
21
23
31
0.0
0
TEXT
8
E_TITLE_BLOCK
10
15
20
35.5
30
0.0
40
3
1
PROJECT: Smart Residential Neighborhood - Power Systems (Option B, LV 22/0.4kV)
7
STANDARD
0
TEXT
8
E_TITLE_BLOCK
10
305
20
35.5
30
0.0
40
2.8
1
MILESTONE 4 - FINAL
7
STANDARD
0
TEXT
8
E_TITLE_BLOCK
10
15
20
25.5
30
0.0
40
2.8
1
DRAWING: Main SLD - Neighborhood
7
STANDARD
0
TEXT
8
E_TITLE_BLOCK
10
293
20
25.5
30
0.0
40
2.8
1
DWG No.: E-001
7
STANDARD
0
TEXT
8
E_TITLE_BLOCK
10
15
20
16
30
0.0
40
2.6
1
STUDENT: __________
7
STANDARD
0
TEXT
8
E_TITLE_BLOCK
10
153
20
16
30
0.0
40
2.6
1
SUPERVISOR: ______
7
STANDARD
0
TEXT
8
E_TITLE_BLOCK
10
233
20
16
30
0.0
40
2.6
1
DATE: 2026-06-11
7
STANDARD
0
TEXT
8
E_TITLE_BLOCK
10
303
20
16
30
0.0
40
2.6
1
REV: B FINAL
7
STANDARD
0
TEXT
8
E_TITLE_BLOCK
10
353
20
16
30
0.0
40
2.6
1
SCALE: NTS
7
STANDARD
0
TEXT
8
E_POWER_MAIN
10
200
20
270
30
0.0
40
3.2
1
22kV NETWORK SUPPLY (incoming MV)
7
STANDARD
0
LINE
8
E_POWER_MAIN
10
120
20
268
30
0.0
11
120
21
258
31
0.0
0
LINE
8
E_POWER_MAIN
10
300
20
268
30
0.0
11
300
21
258
31
0.0
0
LINE
8
E_POWER_MAIN
10
95
20
240
30
0.0
11
150
21
240
31
0.0
0
LINE
8
E_POWER_MAIN
10
150
20
240
30
0.0
11
150
21
258
31
0.0
0
LINE
8
E_POWER_MAIN
10
150
20
258
30
0.0
11
95
21
258
31
0.0
0
LINE
8
E_POWER_MAIN
10
95
20
258
30
0.0
11
95
21
240
31
0.0
0
TEXT
8
E_TEXT
10
97
20
253.5
30
0.0
40
2.8
1
TR-1  22/0.4kV
7
STANDARD
0
TEXT
8
E_TEXT
10
97
20
249
30
0.0
40
2.6
1
1000kVA  Dyn11
7
STANDARD
0
LINE
8
E_POWER_MAIN
10
275
20
240
30
0.0
11
330
21
240
31
0.0
0
LINE
8
E_POWER_MAIN
10
330
20
240
30
0.0
11
330
21
258
31
0.0
0
LINE
8
E_POWER_MAIN
10
330
20
258
30
0.0
11
275
21
258
31
0.0
0
LINE
8
E_POWER_MAIN
10
275
20
258
30
0.0
11
275
21
240
31
0.0
0
TEXT
8
E_TEXT
10
277
20
253.5
30
0.0
40
2.8
1
TR-2  22/0.4kV
7
STANDARD
0
TEXT
8
E_TEXT
10
277
20
249
30
0.0
40
2.6
1
1000kVA  Dyn11
7
STANDARD
0
LINE
8
E_POWER_FEEDERS
10
122
20
240
30
0.0
11
122
21
225
31
0.0
0
LINE
8
E_POWER_FEEDERS
10
302
20
240
30
0.0
11
302
21
225
31
0.0
0
LINE
8
E_PROTECTION
10
100
20
212
30
0.0
11
148
21
212
31
0.0
0
LINE
8
E_PROTECTION
10
148
20
212
30
0.0
11
148
21
225
31
0.0
0
LINE
8
E_PROTECTION
10
148
20
225
30
0.0
11
100
21
225
31
0.0
0
LINE
8
E_PROTECTION
10
100
20
225
30
0.0
11
100
21
212
31
0.0
0
TEXT
8
E_TEXT
10
102
20
220.5
30
0.0
40
2.8
1
ACB 1600A
7
STANDARD
0
TEXT
8
E_TEXT
10
102
20
216
30
0.0
40
2.6
1
Icu/Ics 65kA
7
STANDARD
0
LINE
8
E_PROTECTION
10
282
20
212
30
0.0
11
330
21
212
31
0.0
0
LINE
8
E_PROTECTION
10
330
20
212
30
0.0
11
330
21
225
31
0.0
0
LINE
8
E_PROTECTION
10
330
20
225
30
0.0
11
282
21
225
31
0.0
0
LINE
8
E_PROTECTION
10
282
20
225
30
0.0
11
282
21
212
31
0.0
0
TEXT
8
E_TEXT
10
284
20
220.5
30
0.0
40
2.8
1
ACB 1600A
7
STANDARD
0
TEXT
8
E_TEXT
10
284
20
216
30
0.0
40
2.6
1
Icu/Ics 65kA
7
STANDARD
0
LINE
8
E_POWER_MAIN
10
70
20
195
30
0.0
11
370
21
195
31
0.0
0
LINE
8
E_POWER_MAIN
10
370
20
195
30
0.0
11
370
21
207
31
0.0
0
LINE
8
E_POWER_MAIN
10
370
20
207
30
0.0
11
70
21
207
31
0.0
0
LINE
8
E_POWER_MAIN
10
70
20
207
30
0.0
11
70
21
195
31
0.0
0
TEXT
8
E_POWER_MAIN
10
150
20
198
30
0.0
40
3
1
MDB BUSBAR 2500A / Icw 65kA 1s  (TN-S)
7
STANDARD
0
LINE
8
E_PROTECTION
10
200
20
196
30
0.0
11
240
21
196
31
0.0
0
LINE
8
E_PROTECTION
10
240
20
196
30
0.0
11
240
21
206
31
0.0
0
LINE
8
E_PROTECTION
10
240
20
206
30
0.0
11
200
21
206
31
0.0
0
LINE
8
E_PROTECTION
10
200
20
206
30
0.0
11
200
21
196
31
0.0
0
TEXT
8
E_TEXT
10
202
20
201.5
30
0.0
40
2.8
1
BUS-TIE 1600A
7
STANDARD
0
LINE
8
E_POWER_FEEDERS
10
70
20
165
30
0.0
11
110
21
165
31
0.0
0
LINE
8
E_POWER_FEEDERS
10
110
20
165
30
0.0
11
110
21
181
31
0.0
0
LINE
8
E_POWER_FEEDERS
10
110
20
181
30
0.0
11
70
21
181
31
0.0
0
LINE
8
E_POWER_FEEDERS
10
70
20
181
30
0.0
11
70
21
165
31
0.0
0
TEXT
8
E_TEXT
10
72
20
176.5
30
0.0
40
2.8
1
BLDG A
7
STANDARD
0
TEXT
8
E_TEXT
10
72
20
172
30
0.0
40
2.6
1
MCCB 800A
7
STANDARD
0
LINE
8
E_POWER_FEEDERS
10
120
20
165
30
0.0
11
160
21
165
31
0.0
0
LINE
8
E_POWER_FEEDERS
10
160
20
165
30
0.0
11
160
21
181
31
0.0
0
LINE
8
E_POWER_FEEDERS
10
160
20
181
30
0.0
11
120
21
181
31
0.0
0
LINE
8
E_POWER_FEEDERS
10
120
20
181
30
0.0
11
120
21
165
31
0.0
0
TEXT
8
E_TEXT
10
122
20
176.5
30
0.0
40
2.8
1
BLDG B
7
STANDARD
0
TEXT
8
E_TEXT
10
122
20
172
30
0.0
40
2.6
1
MCCB 800A
7
STANDARD
0
LINE
8
E_POWER_FEEDERS
10
170
20
165
30
0.0
11
210
21
165
31
0.0
0
LINE
8
E_POWER_FEEDERS
10
210
20
165
30
0.0
11
210
21
181
31
0.0
0
LINE
8
E_POWER_FEEDERS
10
210
20
181
30
0.0
11
170
21
181
31
0.0
0
LINE
8
E_POWER_FEEDERS
10
170
20
181
30
0.0
11
170
21
165
31
0.0
0
TEXT
8
E_TEXT
10
172
20
176.5
30
0.0
40
2.8
1
BLDG C
7
STANDARD
0
TEXT
8
E_TEXT
10
172
20
172
30
0.0
40
2.6
1
MCCB 800A
7
STANDARD
0
LINE
8
E_EV
10
220
20
165
30
0.0
11
260
21
165
31
0.0
0
LINE
8
E_EV
10
260
20
165
30
0.0
11
260
21
181
31
0.0
0
LINE
8
E_EV
10
260
20
181
30
0.0
11
220
21
181
31
0.0
0
LINE
8
E_EV
10
220
20
181
30
0.0
11
220
21
165
31
0.0
0
TEXT
8
E_TEXT
10
222
20
176.5
30
0.0
40
2.8
1
EV PANEL
7
STANDARD
0
TEXT
8
E_TEXT
10
222
20
172
30
0.0
40
2.6
1
MCCB 250A
7
STANDARD
0
LINE
8
E_PV
10
270
20
165
30
0.0
11
315
21
165
31
0.0
0
LINE
8
E_PV
10
315
20
165
30
0.0
11
315
21
181
31
0.0
0
LINE
8
E_PV
10
315
20
181
30
0.0
11
270
21
181
31
0.0
0
LINE
8
E_PV
10
270
20
181
30
0.0
11
270
21
165
31
0.0
0
TEXT
8
E_TEXT
10
272
20
176.5
30
0.0
40
2.8
1
PV/BESS
7
STANDARD
0
TEXT
8
E_TEXT
10
272
20
172
30
0.0
40
2.6
1
MCCB 400A
7
STANDARD
0
LINE
8
E_UPS_GEN
10
325
20
165
30
0.0
11
370
21
165
31
0.0
0
LINE
8
E_UPS_GEN
10
370
20
165
30
0.0
11
370
21
181
31
0.0
0
LINE
8
E_UPS_GEN
10
370
20
181
30
0.0
11
325
21
181
31
0.0
0
LINE
8
E_UPS_GEN
10
325
20
181
30
0.0
11
325
21
165
31
0.0
0
TEXT
8
E_TEXT
10
327
20
176.5
30
0.0
40
2.8
1
GEN/ATS
7
STANDARD
0
TEXT
8
E_TEXT
10
327
20
172
30
0.0
40
2.6
1
300kVA
7
STANDARD
0
LINE
8
E_CABLES
10
90
20
195
30
0.0
11
90
21
181
31
0.0
0
LINE
8
E_CABLES
10
140
20
195
30
0.0
11
140
21
181
31
0.0
0
LINE
8
E_CABLES
10
190
20
195
30
0.0
11
190
21
181
31
0.0
0
LINE
8
E_CABLES
10
240
20
195
30
0.0
11
240
21
181
31
0.0
0
LINE
8
E_CABLES
10
292
20
195
30
0.0
11
292
21
181
31
0.0
0
LINE
8
E_CABLES
10
347
20
195
30
0.0
11
347
21
181
31
0.0
0
LINE
8
E_UPS_GEN
10
70
20
140
30
0.0
11
130
21
140
31
0.0
0
LINE
8
E_UPS_GEN
10
130
20
140
30
0.0
11
130
21
154
31
0.0
0
LINE
8
E_UPS_GEN
10
130
20
154
30
0.0
11
70
21
154
31
0.0
0
LINE
8
E_UPS_GEN
10
70
20
154
30
0.0
11
70
21
140
31
0.0
0
TEXT
8
E_TEXT
10
72
20
149.5
30
0.0
40
2.8
1
UPS 20kVA/8.75kWh
7
STANDARD
0
TEXT
8
E_TEXT
10
72
20
145
30
0.0
40
2.6
1
critical loads
7
STANDARD
0
LINE
8
E_PROTECTION
10
140
20
140
30
0.0
11
200
21
140
31
0.0
0
LINE
8
E_PROTECTION
10
200
20
140
30
0.0
11
200
21
154
31
0.0
0
LINE
8
E_PROTECTION
10
200
20
154
30
0.0
11
140
21
154
31
0.0
0
LINE
8
E_PROTECTION
10
140
20
154
30
0.0
11
140
21
140
31
0.0
0
TEXT
8
E_TEXT
10
142
20
149.5
30
0.0
40
2.8
1
PUBLIC PANEL
7
STANDARD
0
TEXT
8
E_TEXT
10
142
20
145
30
0.0
40
2.6
1
MCB 32A (23A)
7
STANDARD
0
LINE
8
E_PROTECTION
10
210
20
140
30
0.0
11
270
21
140
31
0.0
0
LINE
8
E_PROTECTION
10
270
20
140
30
0.0
11
270
21
154
31
0.0
0
LINE
8
E_PROTECTION
10
270
20
154
30
0.0
11
210
21
154
31
0.0
0
LINE
8
E_PROTECTION
10
210
20
154
30
0.0
11
210
21
140
31
0.0
0
TEXT
8
E_TEXT
10
212
20
149.5
30
0.0
40
2.8
1
CAP BANK 200kvar
7
STANDARD
0
TEXT
8
E_TEXT
10
212
20
145
30
0.0
40
2.6
1
detuned 7%, 0.90->0.95
7
STANDARD
0
TEXT
8
E_DIMENSIONS
10
14
20
47
30
0.0
40
2.6
1
NOTES: Demand 1312.7kVA(practical)/1603.7kVA(conservative); loading 65.6%/80.2%. Earthing TN-S.
7
STANDARD
0
ENDSEC
0
EOF
