0
SECTION
2
HEADER
9
$ACADVER
1
AC1009
9
$INSUNITS
70
4
0
ENDSEC
0
SECTION
2
TABLES
0
TABLE
2
LTYPE
70
1
0
LTYPE
2
CONTINUOUS
70
0
3
Solid line
72
65
73
0
40
0.0
0
ENDTAB
0
TABLE
2
LAYER
70
14
0
LAYER
2
E_POWER_MAIN
70
0
62
1
6
CONTINUOUS
0
LAYER
2
E_POWER_FEEDERS
70
0
62
5
6
CONTINUOUS
0
LAYER
2
E_PROTECTION
70
0
62
30
6
CONTINUOUS
0
LAYER
2
E_CABLES
70
0
62
3
6
CONTINUOUS
0
LAYER
2
E_EARTHING
70
0
62
6
6
CONTINUOUS
0
LAYER
2
E_EV
70
0
62
4
6
CONTINUOUS
0
LAYER
2
E_PV
70
0
62
2
6
CONTINUOUS
0
LAYER
2
E_BESS
70
0
62
140
6
CONTINUOUS
0
LAYER
2
E_UPS_GEN
70
0
62
8
6
CONTINUOUS
0
LAYER
2
E_LIGHTING
70
0
62
40
6
CONTINUOUS
0
LAYER
2
E_BMS_EMS
70
0
62
150
6
CONTINUOUS
0
LAYER
2
E_TEXT
70
0
62
7
6
CONTINUOUS
0
LAYER
2
E_TITLE_BLOCK
70
0
62
7
6
CONTINUOUS
0
LAYER
2
E_DIMENSIONS
70
0
62
8
6
CONTINUOUS
0
ENDTAB
0
TABLE
2
STYLE
70
1
0
STYLE
2
STANDARD
70
0
40
0.0
41
1.0
50
0.0
71
0
42
2.5
3
txt
4

0
ENDTAB
0
ENDSEC
0
SECTION
2
ENTITIES
0
LINE
8
E_TITLE_BLOCK
10
8
20
8
30
0.0
11
412
21
8
31
0.0
0
LINE
8
E_TITLE_BLOCK
10
412
20
8
30
0.0
11
412
21
289
31
0.0
0
LINE
8
E_TITLE_BLOCK
10
412
20
289
30
0.0
11
8
21
289
31
0.0
0
LINE
8
E_TITLE_BLOCK
10
8
20
289
30
0.0
11
8
21
8
31
0.0
0
LINE
8
E_TITLE_BLOCK
10
10
20
10
30
0.0
11
410
21
10
31
0.0
0
LINE
8
E_TITLE_BLOCK
10
410
20
10
30
0.0
11
410
21
287
31
0.0
0
LINE
8
E_TITLE_BLOCK
10
410
20
287
30
0.0
11
10
21
287
31
0.0
0
LINE
8
E_TITLE_BLOCK
10
10
20
287
30
0.0
11
10
21
10
31
0.0
0
TEXT
8
E_TITLE_BLOCK
10
14
20
281
30
0.0
40
5.5
1
E-008   Generator ATS UPS SLD
7
STANDARD
0
LINE
8
E_TITLE_BLOCK
10
12
20
12
30
0.0
11
408
21
12
31
0.0
0
LINE
8
E_TITLE_BLOCK
10
408
20
12
30
0.0
11
408
21
44
31
0.0
0
LINE
8
E_TITLE_BLOCK
10
408
20
44
30
0.0
11
12
21
44
31
0.0
0
LINE
8
E_TITLE_BLOCK
10
12
20
44
30
0.0
11
12
21
12
31
0.0
0
LINE
8
E_TITLE_BLOCK
10
12
20
32
30
0.0
11
408
21
32
31
0.0
0
LINE
8
E_TITLE_BLOCK
10
12
20
23
30
0.0
11
408
21
23
31
0.0
0
LINE
8
E_TITLE_BLOCK
10
290
20
32
30
0.0
11
290
21
23
31
0.0
0
LINE
8
E_TITLE_BLOCK
10
150
20
12
30
0.0
11
150
21
23
31
0.0
0
LINE
8
E_TITLE_BLOCK
10
230
20
12
30
0.0
11
230
21
23
31
0.0
0
LINE
8
E_TITLE_BLOCK
10
300
20
12
30
0.0
11
300
21
23
31
0.0
0
LINE
8
E_TITLE_BLOCK
10
350
20
12
30
0.0
11
350
21
23
31
0.0
0
TEXT
8
E_TITLE_BLOCK
10
15
20
35.5
30
0.0
40
3
1
PROJECT: Smart Residential Neighborhood - Power Systems (Option B, LV 22/0.4kV)
7
STANDARD
0
TEXT
8
E_TITLE_BLOCK
10
305
20
35.5
30
0.0
40
2.8
1
MILESTONE 4 - FINAL
7
STANDARD
0
TEXT
8
E_TITLE_BLOCK
10
15
20
25.5
30
0.0
40
2.8
1
DRAWING: Generator ATS UPS SLD
7
STANDARD
0
TEXT
8
E_TITLE_BLOCK
10
293
20
25.5
30
0.0
40
2.8
1
DWG No.: E-008
7
STANDARD
0
TEXT
8
E_TITLE_BLOCK
10
15
20
16
30
0.0
40
2.6
1
STUDENT: __________
7
STANDARD
0
TEXT
8
E_TITLE_BLOCK
10
153
20
16
30
0.0
40
2.6
1
SUPERVISOR: ______
7
STANDARD
0
TEXT
8
E_TITLE_BLOCK
10
233
20
16
30
0.0
40
2.6
1
DATE: 2026-06-11
7
STANDARD
0
TEXT
8
E_TITLE_BLOCK
10
303
20
16
30
0.0
40
2.6
1
REV: B FINAL
7
STANDARD
0
TEXT
8
E_TITLE_BLOCK
10
353
20
16
30
0.0
40
2.6
1
SCALE: NTS
7
STANDARD
0
LINE
8
E_POWER_MAIN
10
40
20
240
30
0.0
11
110
21
240
31
0.0
0
LINE
8
E_POWER_MAIN
10
110
20
240
30
0.0
11
110
21
258
31
0.0
0
LINE
8
E_POWER_MAIN
10
110
20
258
30
0.0
11
40
21
258
31
0.0
0
LINE
8
E_POWER_MAIN
10
40
20
258
30
0.0
11
40
21
240
31
0.0
0
TEXT
8
E_TEXT
10
42
20
253.5
30
0.0
40
2.8
1
GRID (MDB)
7
STANDARD
0
TEXT
8
E_TEXT
10
42
20
249
30
0.0
40
2.6
1
normal source
7
STANDARD
0
LINE
8
E_UPS_GEN
10
250
20
240
30
0.0
11
330
21
240
31
0.0
0
LINE
8
E_UPS_GEN
10
330
20
240
30
0.0
11
330
21
258
31
0.0
0
LINE
8
E_UPS_GEN
10
330
20
258
30
0.0
11
250
21
258
31
0.0
0
LINE
8
E_UPS_GEN
10
250
20
258
30
0.0
11
250
21
240
31
0.0
0
TEXT
8
E_TEXT
10
252
20
253.5
30
0.0
40
2.8
1
GENERATOR 300kVA
7
STANDARD
0
TEXT
8
E_TEXT
10
252
20
249
30
0.0
40
2.6
1
emergency source
7
STANDARD
0
LINE
8
E_UPS_GEN
10
150
20
195
30
0.0
11
240
21
195
31
0.0
0
LINE
8
E_UPS_GEN
10
240
20
195
30
0.0
11
240
21
217
31
0.0
0
LINE
8
E_UPS_GEN
10
240
20
217
30
0.0
11
150
21
217
31
0.0
0
LINE
8
E_UPS_GEN
10
150
20
217
30
0.0
11
150
21
195
31
0.0
0
TEXT
8
E_TEXT
10
152
20
212.5
30
0.0
40
2.8
1
ATS
7
STANDARD
0
TEXT
8
E_TEXT
10
152
20
208
30
0.0
40
2.6
1
auto transfer switch
7
STANDARD
0
LINE
8
E_CABLES
10
75
20
240
30
0.0
11
180
21
217
31
0.0
0
LINE
8
E_CABLES
10
290
20
240
30
0.0
11
210
21
217
31
0.0
0
LINE
8
E_CABLES
10
195
20
195
30
0.0
11
195
21
170
31
0.0
0
LINE
8
E_POWER_FEEDERS
10
140
20
150
30
0.0
11
250
21
150
31
0.0
0
LINE
8
E_POWER_FEEDERS
10
250
20
150
30
0.0
11
250
21
168
31
0.0
0
LINE
8
E_POWER_FEEDERS
10
250
20
168
30
0.0
11
140
21
168
31
0.0
0
LINE
8
E_POWER_FEEDERS
10
140
20
168
30
0.0
11
140
21
150
31
0.0
0
TEXT
8
E_TEXT
10
142
20
163.5
30
0.0
40
2.8
1
EMERGENCY PANEL
7
STANDARD
0
TEXT
8
E_TEXT
10
142
20
159
30
0.0
40
2.6
1
lifts/pumps/em.light
7
STANDARD
0
LINE
8
E_UPS_GEN
10
60
20
150
30
0.0
11
120
21
150
31
0.0
0
LINE
8
E_UPS_GEN
10
120
20
150
30
0.0
11
120
21
168
31
0.0
0
LINE
8
E_UPS_GEN
10
120
20
168
30
0.0
11
60
21
168
31
0.0
0
LINE
8
E_UPS_GEN
10
60
20
168
30
0.0
11
60
21
150
31
0.0
0
TEXT
8
E_TEXT
10
62
20
163.5
30
0.0
40
2.8
1
UPS 20kVA
7
STANDARD
0
TEXT
8
E_TEXT
10
62
20
159
30
0.0
40
2.6
1
8.75kWh / ~1.1h
7
STANDARD
0
LINE
8
E_CABLES
10
90
20
150
30
0.0
11
90
21
120
31
0.0
0
LINE
8
E_BMS_EMS
10
50
20
95
30
0.0
11
180
21
95
31
0.0
0
LINE
8
E_BMS_EMS
10
180
20
95
30
0.0
11
180
21
113
31
0.0
0
LINE
8
E_BMS_EMS
10
180
20
113
30
0.0
11
50
21
113
31
0.0
0
LINE
8
E_BMS_EMS
10
50
20
113
30
0.0
11
50
21
95
31
0.0
0
TEXT
8
E_TEXT
10
52
20
108.5
30
0.0
40
2.8
1
CRITICAL LOADS
7
STANDARD
0
TEXT
8
E_TEXT
10
52
20
104
30
0.0
40
2.6
1
fire/comms/EMS/BMS
7
STANDARD
0
TEXT
8
E_DIMENSIONS
10
14
20
47
30
0.0
40
2.6
1
NOTES: On grid failure: gen start -> ATS transfer; UPS bridges critical loads.
7
STANDARD
0
TEXT
8
E_DIMENSIONS
10
14
20
42
30
0.0
40
2.6
1
INTERLOCK: PV/BESS blocked from emergency bus during generator operation (ATS + EMS anti-parallel).
7
STANDARD
0
ENDSEC
0
EOF
