0
SECTION
2
HEADER
9
$ACADVER
1
AC1009
9
$INSUNITS
70
4
0
ENDSEC
0
SECTION
2
TABLES
0
TABLE
2
LTYPE
70
1
0
LTYPE
2
CONTINUOUS
70
0
3
Solid line
72
65
73
0
40
0.0
0
ENDTAB
0
TABLE
2
LAYER
70
14
0
LAYER
2
E_POWER_MAIN
70
0
62
1
6
CONTINUOUS
0
LAYER
2
E_POWER_FEEDERS
70
0
62
5
6
CONTINUOUS
0
LAYER
2
E_PROTECTION
70
0
62
30
6
CONTINUOUS
0
LAYER
2
E_CABLES
70
0
62
3
6
CONTINUOUS
0
LAYER
2
E_EARTHING
70
0
62
6
6
CONTINUOUS
0
LAYER
2
E_EV
70
0
62
4
6
CONTINUOUS
0
LAYER
2
E_PV
70
0
62
2
6
CONTINUOUS
0
LAYER
2
E_BESS
70
0
62
140
6
CONTINUOUS
0
LAYER
2
E_UPS_GEN
70
0
62
8
6
CONTINUOUS
0
LAYER
2
E_LIGHTING
70
0
62
40
6
CONTINUOUS
0
LAYER
2
E_BMS_EMS
70
0
62
150
6
CONTINUOUS
0
LAYER
2
E_TEXT
70
0
62
7
6
CONTINUOUS
0
LAYER
2
E_TITLE_BLOCK
70
0
62
7
6
CONTINUOUS
0
LAYER
2
E_DIMENSIONS
70
0
62
8
6
CONTINUOUS
0
ENDTAB
0
TABLE
2
STYLE
70
1
0
STYLE
2
STANDARD
70
0
40
0.0
41
1.0
50
0.0
71
0
42
2.5
3
txt
4

0
ENDTAB
0
ENDSEC
0
SECTION
2
ENTITIES
0
LINE
8
E_TITLE_BLOCK
10
8
20
8
30
0.0
11
412
21
8
31
0.0
0
LINE
8
E_TITLE_BLOCK
10
412
20
8
30
0.0
11
412
21
289
31
0.0
0
LINE
8
E_TITLE_BLOCK
10
412
20
289
30
0.0
11
8
21
289
31
0.0
0
LINE
8
E_TITLE_BLOCK
10
8
20
289
30
0.0
11
8
21
8
31
0.0
0
LINE
8
E_TITLE_BLOCK
10
10
20
10
30
0.0
11
410
21
10
31
0.0
0
LINE
8
E_TITLE_BLOCK
10
410
20
10
30
0.0
11
410
21
287
31
0.0
0
LINE
8
E_TITLE_BLOCK
10
410
20
287
30
0.0
11
10
21
287
31
0.0
0
LINE
8
E_TITLE_BLOCK
10
10
20
287
30
0.0
11
10
21
10
31
0.0
0
TEXT
8
E_TITLE_BLOCK
10
14
20
281
30
0.0
40
5.5
1
E-009   PV BESS EV SLD
7
STANDARD
0
LINE
8
E_TITLE_BLOCK
10
12
20
12
30
0.0
11
408
21
12
31
0.0
0
LINE
8
E_TITLE_BLOCK
10
408
20
12
30
0.0
11
408
21
44
31
0.0
0
LINE
8
E_TITLE_BLOCK
10
408
20
44
30
0.0
11
12
21
44
31
0.0
0
LINE
8
E_TITLE_BLOCK
10
12
20
44
30
0.0
11
12
21
12
31
0.0
0
LINE
8
E_TITLE_BLOCK
10
12
20
32
30
0.0
11
408
21
32
31
0.0
0
LINE
8
E_TITLE_BLOCK
10
12
20
23
30
0.0
11
408
21
23
31
0.0
0
LINE
8
E_TITLE_BLOCK
10
290
20
32
30
0.0
11
290
21
23
31
0.0
0
LINE
8
E_TITLE_BLOCK
10
150
20
12
30
0.0
11
150
21
23
31
0.0
0
LINE
8
E_TITLE_BLOCK
10
230
20
12
30
0.0
11
230
21
23
31
0.0
0
LINE
8
E_TITLE_BLOCK
10
300
20
12
30
0.0
11
300
21
23
31
0.0
0
LINE
8
E_TITLE_BLOCK
10
350
20
12
30
0.0
11
350
21
23
31
0.0
0
TEXT
8
E_TITLE_BLOCK
10
15
20
35.5
30
0.0
40
3
1
PROJECT: Smart Residential Neighborhood - Power Systems (Option B, LV 22/0.4kV)
7
STANDARD
0
TEXT
8
E_TITLE_BLOCK
10
305
20
35.5
30
0.0
40
2.8
1
MILESTONE 4 - FINAL
7
STANDARD
0
TEXT
8
E_TITLE_BLOCK
10
15
20
25.5
30
0.0
40
2.8
1
DRAWING: PV BESS EV SLD
7
STANDARD
0
TEXT
8
E_TITLE_BLOCK
10
293
20
25.5
30
0.0
40
2.8
1
DWG No.: E-009
7
STANDARD
0
TEXT
8
E_TITLE_BLOCK
10
15
20
16
30
0.0
40
2.6
1
STUDENT: __________
7
STANDARD
0
TEXT
8
E_TITLE_BLOCK
10
153
20
16
30
0.0
40
2.6
1
SUPERVISOR: ______
7
STANDARD
0
TEXT
8
E_TITLE_BLOCK
10
233
20
16
30
0.0
40
2.6
1
DATE: 2026-06-11
7
STANDARD
0
TEXT
8
E_TITLE_BLOCK
10
303
20
16
30
0.0
40
2.6
1
REV: B FINAL
7
STANDARD
0
TEXT
8
E_TITLE_BLOCK
10
353
20
16
30
0.0
40
2.6
1
SCALE: NTS
7
STANDARD
0
LINE
8
E_PV
10
30
20
240
30
0.0
11
90
21
240
31
0.0
0
LINE
8
E_PV
10
90
20
240
30
0.0
11
90
21
258
31
0.0
0
LINE
8
E_PV
10
90
20
258
30
0.0
11
30
21
258
31
0.0
0
LINE
8
E_PV
10
30
20
258
30
0.0
11
30
21
240
31
0.0
0
TEXT
8
E_TEXT
10
32
20
253.5
30
0.0
40
2.8
1
PV ARRAY
7
STANDARD
0
TEXT
8
E_TEXT
10
32
20
249
30
0.0
40
2.6
1
200kWp
7
STANDARD
0
LINE
8
E_PV
10
30
20
205
30
0.0
11
90
21
205
31
0.0
0
LINE
8
E_PV
10
90
20
205
30
0.0
11
90
21
221
31
0.0
0
LINE
8
E_PV
10
90
20
221
30
0.0
11
30
21
221
31
0.0
0
LINE
8
E_PV
10
30
20
221
30
0.0
11
30
21
205
31
0.0
0
TEXT
8
E_TEXT
10
32
20
216.5
30
0.0
40
2.8
1
INVERTER
7
STANDARD
0
TEXT
8
E_TEXT
10
32
20
212
30
0.0
40
2.6
1
4x50kW
7
STANDARD
0
LINE
8
E_PV
10
30
20
172
30
0.0
11
90
21
172
31
0.0
0
LINE
8
E_PV
10
90
20
172
30
0.0
11
90
21
188
31
0.0
0
LINE
8
E_PV
10
90
20
188
30
0.0
11
30
21
188
31
0.0
0
LINE
8
E_PV
10
30
20
188
30
0.0
11
30
21
172
31
0.0
0
TEXT
8
E_TEXT
10
32
20
183.5
30
0.0
40
2.8
1
PV PANEL
7
STANDARD
0
TEXT
8
E_TEXT
10
32
20
179
30
0.0
40
2.6
1
MCCB+SPD
7
STANDARD
0
LINE
8
E_CABLES
10
60
20
240
30
0.0
11
60
21
221
31
0.0
0
LINE
8
E_CABLES
10
60
20
205
30
0.0
11
60
21
188
31
0.0
0
LINE
8
E_BESS
10
165
20
240
30
0.0
11
235
21
240
31
0.0
0
LINE
8
E_BESS
10
235
20
240
30
0.0
11
235
21
258
31
0.0
0
LINE
8
E_BESS
10
235
20
258
30
0.0
11
165
21
258
31
0.0
0
LINE
8
E_BESS
10
165
20
258
30
0.0
11
165
21
240
31
0.0
0
TEXT
8
E_TEXT
10
167
20
253.5
30
0.0
40
2.8
1
BESS 250kW
7
STANDARD
0
TEXT
8
E_TEXT
10
167
20
249
30
0.0
40
2.6
1
500kWh (2h)
7
STANDARD
0
LINE
8
E_BESS
10
165
20
205
30
0.0
11
235
21
205
31
0.0
0
LINE
8
E_BESS
10
235
20
205
30
0.0
11
235
21
221
31
0.0
0
LINE
8
E_BESS
10
235
20
221
30
0.0
11
165
21
221
31
0.0
0
LINE
8
E_BESS
10
165
20
221
30
0.0
11
165
21
205
31
0.0
0
TEXT
8
E_TEXT
10
167
20
216.5
30
0.0
40
2.8
1
PCS / INVERTER
7
STANDARD
0
TEXT
8
E_TEXT
10
167
20
212
30
0.0
40
2.6
1
interlock
7
STANDARD
0
LINE
8
E_BESS
10
165
20
172
30
0.0
11
235
21
172
31
0.0
0
LINE
8
E_BESS
10
235
20
172
30
0.0
11
235
21
188
31
0.0
0
LINE
8
E_BESS
10
235
20
188
30
0.0
11
165
21
188
31
0.0
0
LINE
8
E_BESS
10
165
20
188
30
0.0
11
165
21
172
31
0.0
0
TEXT
8
E_TEXT
10
167
20
183.5
30
0.0
40
2.8
1
BESS PANEL
7
STANDARD
0
TEXT
8
E_TEXT
10
167
20
179
30
0.0
40
2.6
1
MCCB+SPD
7
STANDARD
0
LINE
8
E_CABLES
10
200
20
240
30
0.0
11
200
21
221
31
0.0
0
LINE
8
E_CABLES
10
200
20
205
30
0.0
11
200
21
188
31
0.0
0
LINE
8
E_EV
10
310
20
240
30
0.0
11
380
21
240
31
0.0
0
LINE
8
E_EV
10
380
20
240
30
0.0
11
380
21
258
31
0.0
0
LINE
8
E_EV
10
380
20
258
30
0.0
11
310
21
258
31
0.0
0
LINE
8
E_EV
10
310
20
258
30
0.0
11
310
21
240
31
0.0
0
TEXT
8
E_TEXT
10
312
20
253.5
30
0.0
40
2.8
1
EV 30x11kW
7
STANDARD
0
TEXT
8
E_TEXT
10
312
20
249
30
0.0
40
2.6
1
installed 330kW
7
STANDARD
0
LINE
8
E_EV
10
310
20
205
30
0.0
11
380
21
205
31
0.0
0
LINE
8
E_EV
10
380
20
205
30
0.0
11
380
21
221
31
0.0
0
LINE
8
E_EV
10
380
20
221
30
0.0
11
310
21
221
31
0.0
0
LINE
8
E_EV
10
310
20
221
30
0.0
11
310
21
205
31
0.0
0
TEXT
8
E_TEXT
10
312
20
216.5
30
0.0
40
2.8
1
EV PANEL
7
STANDARD
0
TEXT
8
E_TEXT
10
312
20
212
30
0.0
40
2.6
1
MCCB 250A / DLM
7
STANDARD
0
LINE
8
E_EV
10
310
20
172
30
0.0
11
380
21
172
31
0.0
0
LINE
8
E_EV
10
380
20
172
30
0.0
11
380
21
188
31
0.0
0
LINE
8
E_EV
10
380
20
188
30
0.0
11
310
21
188
31
0.0
0
LINE
8
E_EV
10
310
20
188
30
0.0
11
310
21
172
31
0.0
0
TEXT
8
E_TEXT
10
312
20
183.5
30
0.0
40
2.8
1
managed 115.5kW
7
STANDARD
0
TEXT
8
E_TEXT
10
312
20
179
30
0.0
40
2.6
1
DLM 0.35
7
STANDARD
0
LINE
8
E_CABLES
10
345
20
240
30
0.0
11
345
21
221
31
0.0
0
LINE
8
E_CABLES
10
345
20
205
30
0.0
11
345
21
188
31
0.0
0
LINE
8
E_POWER_MAIN
10
30
20
140
30
0.0
11
380
21
140
31
0.0
0
LINE
8
E_POWER_MAIN
10
380
20
140
30
0.0
11
380
21
152
31
0.0
0
LINE
8
E_POWER_MAIN
10
380
20
152
30
0.0
11
30
21
152
31
0.0
0
LINE
8
E_POWER_MAIN
10
30
20
152
30
0.0
11
30
21
140
31
0.0
0
TEXT
8
E_POWER_MAIN
10
150
20
143
30
0.0
40
3
1
MDB 2500A / Icw 65kA
7
STANDARD
0
LINE
8
E_CABLES
10
60
20
172
30
0.0
11
60
21
152
31
0.0
0
LINE
8
E_CABLES
10
200
20
172
30
0.0
11
200
21
152
31
0.0
0
LINE
8
E_CABLES
10
345
20
172
30
0.0
11
345
21
152
31
0.0
0
TEXT
8
E_DIMENSIONS
10
14
20
47
30
0.0
40
2.6
1
NOTES: PV/BESS/EV integrated; no transformer downsizing. Anti-islanding + EMS interlock vs generator.
7
STANDARD
0
ENDSEC
0
EOF
