0
SECTION
2
HEADER
9
$ACADVER
1
AC1009
9
$INSUNITS
70
4
0
ENDSEC
0
SECTION
2
TABLES
0
TABLE
2
LTYPE
70
1
0
LTYPE
2
CONTINUOUS
70
0
3
Solid line
72
65
73
0
40
0.0
0
ENDTAB
0
TABLE
2
LAYER
70
14
0
LAYER
2
E_POWER_MAIN
70
0
62
1
6
CONTINUOUS
0
LAYER
2
E_POWER_FEEDERS
70
0
62
5
6
CONTINUOUS
0
LAYER
2
E_PROTECTION
70
0
62
30
6
CONTINUOUS
0
LAYER
2
E_CABLES
70
0
62
3
6
CONTINUOUS
0
LAYER
2
E_EARTHING
70
0
62
6
6
CONTINUOUS
0
LAYER
2
E_EV
70
0
62
4
6
CONTINUOUS
0
LAYER
2
E_PV
70
0
62
2
6
CONTINUOUS
0
LAYER
2
E_BESS
70
0
62
140
6
CONTINUOUS
0
LAYER
2
E_UPS_GEN
70
0
62
8
6
CONTINUOUS
0
LAYER
2
E_LIGHTING
70
0
62
40
6
CONTINUOUS
0
LAYER
2
E_BMS_EMS
70
0
62
150
6
CONTINUOUS
0
LAYER
2
E_TEXT
70
0
62
7
6
CONTINUOUS
0
LAYER
2
E_TITLE_BLOCK
70
0
62
7
6
CONTINUOUS
0
LAYER
2
E_DIMENSIONS
70
0
62
8
6
CONTINUOUS
0
ENDTAB
0
TABLE
2
STYLE
70
1
0
STYLE
2
STANDARD
70
0
40
0.0
41
1.0
50
0.0
71
0
42
2.5
3
txt
4

0
ENDTAB
0
ENDSEC
0
SECTION
2
ENTITIES
0
LINE
8
E_TITLE_BLOCK
10
8
20
8
30
0.0
11
412
21
8
31
0.0
0
LINE
8
E_TITLE_BLOCK
10
412
20
8
30
0.0
11
412
21
289
31
0.0
0
LINE
8
E_TITLE_BLOCK
10
412
20
289
30
0.0
11
8
21
289
31
0.0
0
LINE
8
E_TITLE_BLOCK
10
8
20
289
30
0.0
11
8
21
8
31
0.0
0
LINE
8
E_TITLE_BLOCK
10
10
20
10
30
0.0
11
410
21
10
31
0.0
0
LINE
8
E_TITLE_BLOCK
10
410
20
10
30
0.0
11
410
21
287
31
0.0
0
LINE
8
E_TITLE_BLOCK
10
410
20
287
30
0.0
11
10
21
287
31
0.0
0
LINE
8
E_TITLE_BLOCK
10
10
20
287
30
0.0
11
10
21
10
31
0.0
0
TEXT
8
E_TITLE_BLOCK
10
14
20
281
30
0.0
40
5.5
1
E-016   PV BESS Detailed SLD
7
STANDARD
0
LINE
8
E_TITLE_BLOCK
10
12
20
12
30
0.0
11
408
21
12
31
0.0
0
LINE
8
E_TITLE_BLOCK
10
408
20
12
30
0.0
11
408
21
44
31
0.0
0
LINE
8
E_TITLE_BLOCK
10
408
20
44
30
0.0
11
12
21
44
31
0.0
0
LINE
8
E_TITLE_BLOCK
10
12
20
44
30
0.0
11
12
21
12
31
0.0
0
LINE
8
E_TITLE_BLOCK
10
12
20
32
30
0.0
11
408
21
32
31
0.0
0
LINE
8
E_TITLE_BLOCK
10
12
20
23
30
0.0
11
408
21
23
31
0.0
0
LINE
8
E_TITLE_BLOCK
10
290
20
32
30
0.0
11
290
21
23
31
0.0
0
LINE
8
E_TITLE_BLOCK
10
150
20
12
30
0.0
11
150
21
23
31
0.0
0
LINE
8
E_TITLE_BLOCK
10
230
20
12
30
0.0
11
230
21
23
31
0.0
0
LINE
8
E_TITLE_BLOCK
10
300
20
12
30
0.0
11
300
21
23
31
0.0
0
LINE
8
E_TITLE_BLOCK
10
350
20
12
30
0.0
11
350
21
23
31
0.0
0
TEXT
8
E_TITLE_BLOCK
10
15
20
35.5
30
0.0
40
3
1
PROJECT: Smart Residential Neighborhood - Power Systems (Option B, LV 22/0.4kV)
7
STANDARD
0
TEXT
8
E_TITLE_BLOCK
10
305
20
35.5
30
0.0
40
2.8
1
MILESTONE 4 - FINAL
7
STANDARD
0
TEXT
8
E_TITLE_BLOCK
10
15
20
25.5
30
0.0
40
2.8
1
DRAWING: PV BESS Detailed SLD
7
STANDARD
0
TEXT
8
E_TITLE_BLOCK
10
293
20
25.5
30
0.0
40
2.8
1
DWG No.: E-016
7
STANDARD
0
TEXT
8
E_TITLE_BLOCK
10
15
20
16
30
0.0
40
2.6
1
STUDENT: __________
7
STANDARD
0
TEXT
8
E_TITLE_BLOCK
10
153
20
16
30
0.0
40
2.6
1
SUPERVISOR: ______
7
STANDARD
0
TEXT
8
E_TITLE_BLOCK
10
233
20
16
30
0.0
40
2.6
1
DATE: 2026-06-11
7
STANDARD
0
TEXT
8
E_TITLE_BLOCK
10
303
20
16
30
0.0
40
2.6
1
REV: B FINAL
7
STANDARD
0
TEXT
8
E_TITLE_BLOCK
10
353
20
16
30
0.0
40
2.6
1
SCALE: NTS
7
STANDARD
0
LINE
8
E_PV
10
30
20
245
30
0.0
11
66
21
245
31
0.0
0
LINE
8
E_PV
10
66
20
245
30
0.0
11
66
21
261
31
0.0
0
LINE
8
E_PV
10
66
20
261
30
0.0
11
30
21
261
31
0.0
0
LINE
8
E_PV
10
30
20
261
30
0.0
11
30
21
245
31
0.0
0
TEXT
8
E_TEXT
10
32
20
256.5
30
0.0
40
2.8
1
STRINGS
7
STANDARD
0
TEXT
8
E_TEXT
10
32
20
252
30
0.0
40
2.6
1
array 1
7
STANDARD
0
LINE
8
E_PV
10
70
20
245
30
0.0
11
106
21
245
31
0.0
0
LINE
8
E_PV
10
106
20
245
30
0.0
11
106
21
261
31
0.0
0
LINE
8
E_PV
10
106
20
261
30
0.0
11
70
21
261
31
0.0
0
LINE
8
E_PV
10
70
20
261
30
0.0
11
70
21
245
31
0.0
0
TEXT
8
E_TEXT
10
72
20
256.5
30
0.0
40
2.8
1
STRINGS
7
STANDARD
0
TEXT
8
E_TEXT
10
72
20
252
30
0.0
40
2.6
1
array 2
7
STANDARD
0
LINE
8
E_PV
10
110
20
245
30
0.0
11
146
21
245
31
0.0
0
LINE
8
E_PV
10
146
20
245
30
0.0
11
146
21
261
31
0.0
0
LINE
8
E_PV
10
146
20
261
30
0.0
11
110
21
261
31
0.0
0
LINE
8
E_PV
10
110
20
261
30
0.0
11
110
21
245
31
0.0
0
TEXT
8
E_TEXT
10
112
20
256.5
30
0.0
40
2.8
1
STRINGS
7
STANDARD
0
TEXT
8
E_TEXT
10
112
20
252
30
0.0
40
2.6
1
array 3
7
STANDARD
0
LINE
8
E_PV
10
150
20
245
30
0.0
11
186
21
245
31
0.0
0
LINE
8
E_PV
10
186
20
245
30
0.0
11
186
21
261
31
0.0
0
LINE
8
E_PV
10
186
20
261
30
0.0
11
150
21
261
31
0.0
0
LINE
8
E_PV
10
150
20
261
30
0.0
11
150
21
245
31
0.0
0
TEXT
8
E_TEXT
10
152
20
256.5
30
0.0
40
2.8
1
STRINGS
7
STANDARD
0
TEXT
8
E_TEXT
10
152
20
252
30
0.0
40
2.6
1
array 4
7
STANDARD
0
LINE
8
E_PV
10
60
20
215
30
0.0
11
150
21
215
31
0.0
0
LINE
8
E_PV
10
150
20
215
30
0.0
11
150
21
231
31
0.0
0
LINE
8
E_PV
10
150
20
231
30
0.0
11
60
21
231
31
0.0
0
LINE
8
E_PV
10
60
20
231
30
0.0
11
60
21
215
31
0.0
0
TEXT
8
E_TEXT
10
62
20
226.5
30
0.0
40
2.8
1
DC COMBINER
7
STANDARD
0
TEXT
8
E_TEXT
10
62
20
222
30
0.0
40
2.6
1
DC fuse/isolator
7
STANDARD
0
LINE
8
E_CABLES
10
48
20
245
30
0.0
11
105
21
231
31
0.0
0
LINE
8
E_CABLES
10
88
20
245
30
0.0
11
105
21
231
31
0.0
0
LINE
8
E_CABLES
10
128
20
245
30
0.0
11
105
21
231
31
0.0
0
LINE
8
E_CABLES
10
168
20
245
30
0.0
11
105
21
231
31
0.0
0
LINE
8
E_PV
10
30
20
185
30
0.0
11
120
21
185
31
0.0
0
LINE
8
E_PV
10
120
20
185
30
0.0
11
120
21
201
31
0.0
0
LINE
8
E_PV
10
120
20
201
30
0.0
11
30
21
201
31
0.0
0
LINE
8
E_PV
10
30
20
201
30
0.0
11
30
21
185
31
0.0
0
TEXT
8
E_TEXT
10
32
20
196.5
30
0.0
40
2.8
1
INVERTERS 4x50kW
7
STANDARD
0
TEXT
8
E_TEXT
10
32
20
192
30
0.0
40
2.6
1
AC breaker+SPD
7
STANDARD
0
LINE
8
E_PV
10
30
20
155
30
0.0
11
120
21
155
31
0.0
0
LINE
8
E_PV
10
120
20
155
30
0.0
11
120
21
171
31
0.0
0
LINE
8
E_PV
10
120
20
171
30
0.0
11
30
21
171
31
0.0
0
LINE
8
E_PV
10
30
20
171
30
0.0
11
30
21
155
31
0.0
0
TEXT
8
E_TEXT
10
32
20
166.5
30
0.0
40
2.8
1
PV PANEL 200kWp
7
STANDARD
0
TEXT
8
E_TEXT
10
32
20
162
30
0.0
40
2.6
1
to MDB/BESS
7
STANDARD
0
LINE
8
E_CABLES
10
105
20
215
30
0.0
11
105
21
201
31
0.0
0
LINE
8
E_CABLES
10
75
20
185
30
0.0
11
75
21
171
31
0.0
0
LINE
8
E_BESS
10
250
20
245
30
0.0
11
360
21
245
31
0.0
0
LINE
8
E_BESS
10
360
20
245
30
0.0
11
360
21
263
31
0.0
0
LINE
8
E_BESS
10
360
20
263
30
0.0
11
250
21
263
31
0.0
0
LINE
8
E_BESS
10
250
20
263
30
0.0
11
250
21
245
31
0.0
0
TEXT
8
E_TEXT
10
252
20
258.5
30
0.0
40
2.8
1
BESS MODULES
7
STANDARD
0
TEXT
8
E_TEXT
10
252
20
254
30
0.0
40
2.6
1
500kWh
7
STANDARD
0
LINE
8
E_BESS
10
250
20
210
30
0.0
11
360
21
210
31
0.0
0
LINE
8
E_BESS
10
360
20
210
30
0.0
11
360
21
228
31
0.0
0
LINE
8
E_BESS
10
360
20
228
30
0.0
11
250
21
228
31
0.0
0
LINE
8
E_BESS
10
250
20
228
30
0.0
11
250
21
210
31
0.0
0
TEXT
8
E_TEXT
10
252
20
223.5
30
0.0
40
2.8
1
PCS 250kW
7
STANDARD
0
TEXT
8
E_TEXT
10
252
20
219
30
0.0
40
2.6
1
bidirectional
7
STANDARD
0
LINE
8
E_BESS
10
250
20
175
30
0.0
11
360
21
175
31
0.0
0
LINE
8
E_BESS
10
360
20
175
30
0.0
11
360
21
193
31
0.0
0
LINE
8
E_BESS
10
360
20
193
30
0.0
11
250
21
193
31
0.0
0
LINE
8
E_BESS
10
250
20
193
30
0.0
11
250
21
175
31
0.0
0
TEXT
8
E_TEXT
10
252
20
188.5
30
0.0
40
2.8
1
BESS PANEL
7
STANDARD
0
TEXT
8
E_TEXT
10
252
20
184
30
0.0
40
2.6
1
MCCB+SPD+E-stop
7
STANDARD
0
LINE
8
E_CABLES
10
305
20
245
30
0.0
11
305
21
228
31
0.0
0
LINE
8
E_CABLES
10
305
20
210
30
0.0
11
305
21
193
31
0.0
0
TEXT
8
E_DIMENSIONS
10
14
20
47
30
0.0
40
2.6
1
NOTES: PV: strings->combiner->4x50kW inverters->PV panel. BESS: modules->PCS->panel.
7
STANDARD
0
ENDSEC
0
EOF
