0
SECTION
2
HEADER
9
$ACADVER
1
AC1009
9
$INSUNITS
70
4
0
ENDSEC
0
SECTION
2
TABLES
0
TABLE
2
LTYPE
70
1
0
LTYPE
2
CONTINUOUS
70
0
3
Solid line
72
65
73
0
40
0.0
0
ENDTAB
0
TABLE
2
LAYER
70
14
0
LAYER
2
E_POWER_MAIN
70
0
62
1
6
CONTINUOUS
0
LAYER
2
E_POWER_FEEDERS
70
0
62
5
6
CONTINUOUS
0
LAYER
2
E_PROTECTION
70
0
62
30
6
CONTINUOUS
0
LAYER
2
E_CABLES
70
0
62
3
6
CONTINUOUS
0
LAYER
2
E_EARTHING
70
0
62
6
6
CONTINUOUS
0
LAYER
2
E_EV
70
0
62
4
6
CONTINUOUS
0
LAYER
2
E_PV
70
0
62
2
6
CONTINUOUS
0
LAYER
2
E_BESS
70
0
62
140
6
CONTINUOUS
0
LAYER
2
E_UPS_GEN
70
0
62
8
6
CONTINUOUS
0
LAYER
2
E_LIGHTING
70
0
62
40
6
CONTINUOUS
0
LAYER
2
E_BMS_EMS
70
0
62
150
6
CONTINUOUS
0
LAYER
2
E_TEXT
70
0
62
7
6
CONTINUOUS
0
LAYER
2
E_TITLE_BLOCK
70
0
62
7
6
CONTINUOUS
0
LAYER
2
E_DIMENSIONS
70
0
62
8
6
CONTINUOUS
0
ENDTAB
0
TABLE
2
STYLE
70
1
0
STYLE
2
STANDARD
70
0
40
0.0
41
1.0
50
0.0
71
0
42
2.5
3
txt
4

0
ENDTAB
0
ENDSEC
0
SECTION
2
ENTITIES
0
LINE
8
E_TITLE_BLOCK
10
8
20
8
30
0.0
11
412
21
8
31
0.0
0
LINE
8
E_TITLE_BLOCK
10
412
20
8
30
0.0
11
412
21
289
31
0.0
0
LINE
8
E_TITLE_BLOCK
10
412
20
289
30
0.0
11
8
21
289
31
0.0
0
LINE
8
E_TITLE_BLOCK
10
8
20
289
30
0.0
11
8
21
8
31
0.0
0
LINE
8
E_TITLE_BLOCK
10
10
20
10
30
0.0
11
410
21
10
31
0.0
0
LINE
8
E_TITLE_BLOCK
10
410
20
10
30
0.0
11
410
21
287
31
0.0
0
LINE
8
E_TITLE_BLOCK
10
410
20
287
30
0.0
11
10
21
287
31
0.0
0
LINE
8
E_TITLE_BLOCK
10
10
20
287
30
0.0
11
10
21
10
31
0.0
0
TEXT
8
E_TITLE_BLOCK
10
14
20
281
30
0.0
40
5.5
1
E-014   Overall System Overview
7
STANDARD
0
LINE
8
E_TITLE_BLOCK
10
12
20
12
30
0.0
11
408
21
12
31
0.0
0
LINE
8
E_TITLE_BLOCK
10
408
20
12
30
0.0
11
408
21
44
31
0.0
0
LINE
8
E_TITLE_BLOCK
10
408
20
44
30
0.0
11
12
21
44
31
0.0
0
LINE
8
E_TITLE_BLOCK
10
12
20
44
30
0.0
11
12
21
12
31
0.0
0
LINE
8
E_TITLE_BLOCK
10
12
20
32
30
0.0
11
408
21
32
31
0.0
0
LINE
8
E_TITLE_BLOCK
10
12
20
23
30
0.0
11
408
21
23
31
0.0
0
LINE
8
E_TITLE_BLOCK
10
290
20
32
30
0.0
11
290
21
23
31
0.0
0
LINE
8
E_TITLE_BLOCK
10
150
20
12
30
0.0
11
150
21
23
31
0.0
0
LINE
8
E_TITLE_BLOCK
10
230
20
12
30
0.0
11
230
21
23
31
0.0
0
LINE
8
E_TITLE_BLOCK
10
300
20
12
30
0.0
11
300
21
23
31
0.0
0
LINE
8
E_TITLE_BLOCK
10
350
20
12
30
0.0
11
350
21
23
31
0.0
0
TEXT
8
E_TITLE_BLOCK
10
15
20
35.5
30
0.0
40
3
1
PROJECT: Smart Residential Neighborhood - Power Systems (Option B, LV 22/0.4kV)
7
STANDARD
0
TEXT
8
E_TITLE_BLOCK
10
305
20
35.5
30
0.0
40
2.8
1
MILESTONE 4 - FINAL
7
STANDARD
0
TEXT
8
E_TITLE_BLOCK
10
15
20
25.5
30
0.0
40
2.8
1
DRAWING: Overall System Overview
7
STANDARD
0
TEXT
8
E_TITLE_BLOCK
10
293
20
25.5
30
0.0
40
2.8
1
DWG No.: E-014
7
STANDARD
0
TEXT
8
E_TITLE_BLOCK
10
15
20
16
30
0.0
40
2.6
1
STUDENT: __________
7
STANDARD
0
TEXT
8
E_TITLE_BLOCK
10
153
20
16
30
0.0
40
2.6
1
SUPERVISOR: ______
7
STANDARD
0
TEXT
8
E_TITLE_BLOCK
10
233
20
16
30
0.0
40
2.6
1
DATE: 2026-06-11
7
STANDARD
0
TEXT
8
E_TITLE_BLOCK
10
303
20
16
30
0.0
40
2.6
1
REV: B FINAL
7
STANDARD
0
TEXT
8
E_TITLE_BLOCK
10
353
20
16
30
0.0
40
2.6
1
SCALE: NTS
7
STANDARD
0
LINE
8
E_POWER_MAIN
10
165
20
250
30
0.0
11
255
21
250
31
0.0
0
LINE
8
E_POWER_MAIN
10
255
20
250
30
0.0
11
255
21
270
31
0.0
0
LINE
8
E_POWER_MAIN
10
255
20
270
30
0.0
11
165
21
270
31
0.0
0
LINE
8
E_POWER_MAIN
10
165
20
270
30
0.0
11
165
21
250
31
0.0
0
TEXT
8
E_TEXT
10
167
20
265.5
30
0.0
40
2.8
1
22kV / 2x1000kVA
7
STANDARD
0
TEXT
8
E_TEXT
10
167
20
261
30
0.0
40
2.6
1
MDB 2500A/65kA
7
STANDARD
0
LINE
8
E_POWER_FEEDERS
10
35
20
190
30
0.0
11
145
21
190
31
0.0
0
LINE
8
E_POWER_FEEDERS
10
145
20
190
30
0.0
11
145
21
214
31
0.0
0
LINE
8
E_POWER_FEEDERS
10
145
20
214
30
0.0
11
35
21
214
31
0.0
0
LINE
8
E_POWER_FEEDERS
10
35
20
214
30
0.0
11
35
21
190
31
0.0
0
TEXT
8
E_TEXT
10
37
20
209.5
30
0.0
40
2.8
1
BUILDINGS A/B/C
7
STANDARD
0
LINE
8
E_CABLES
10
90
20
214
30
0.0
11
210
21
250
31
0.0
0
LINE
8
E_POWER_FEEDERS
10
163
20
190
30
0.0
11
273
21
190
31
0.0
0
LINE
8
E_POWER_FEEDERS
10
273
20
190
30
0.0
11
273
21
214
31
0.0
0
LINE
8
E_POWER_FEEDERS
10
273
20
214
30
0.0
11
163
21
214
31
0.0
0
LINE
8
E_POWER_FEEDERS
10
163
20
214
30
0.0
11
163
21
190
31
0.0
0
TEXT
8
E_TEXT
10
165
20
209.5
30
0.0
40
2.8
1
EV 330->115.5kW
7
STANDARD
0
LINE
8
E_CABLES
10
218
20
214
30
0.0
11
210
21
250
31
0.0
0
LINE
8
E_POWER_FEEDERS
10
291
20
190
30
0.0
11
401
21
190
31
0.0
0
LINE
8
E_POWER_FEEDERS
10
401
20
190
30
0.0
11
401
21
214
31
0.0
0
LINE
8
E_POWER_FEEDERS
10
401
20
214
30
0.0
11
291
21
214
31
0.0
0
LINE
8
E_POWER_FEEDERS
10
291
20
214
30
0.0
11
291
21
190
31
0.0
0
TEXT
8
E_TEXT
10
293
20
209.5
30
0.0
40
2.8
1
PV 200kWp
7
STANDARD
0
LINE
8
E_CABLES
10
346
20
214
30
0.0
11
210
21
250
31
0.0
0
LINE
8
E_POWER_FEEDERS
10
35
20
138
30
0.0
11
145
21
138
31
0.0
0
LINE
8
E_POWER_FEEDERS
10
145
20
138
30
0.0
11
145
21
162
31
0.0
0
LINE
8
E_POWER_FEEDERS
10
145
20
162
30
0.0
11
35
21
162
31
0.0
0
LINE
8
E_POWER_FEEDERS
10
35
20
162
30
0.0
11
35
21
138
31
0.0
0
TEXT
8
E_TEXT
10
37
20
157.5
30
0.0
40
2.8
1
BESS 250kW/500kWh
7
STANDARD
0
LINE
8
E_CABLES
10
90
20
162
30
0.0
11
210
21
250
31
0.0
0
LINE
8
E_POWER_FEEDERS
10
163
20
138
30
0.0
11
273
21
138
31
0.0
0
LINE
8
E_POWER_FEEDERS
10
273
20
138
30
0.0
11
273
21
162
31
0.0
0
LINE
8
E_POWER_FEEDERS
10
273
20
162
30
0.0
11
163
21
162
31
0.0
0
LINE
8
E_POWER_FEEDERS
10
163
20
162
30
0.0
11
163
21
138
31
0.0
0
TEXT
8
E_TEXT
10
165
20
157.5
30
0.0
40
2.8
1
GEN 300kVA + ATS
7
STANDARD
0
LINE
8
E_CABLES
10
218
20
162
30
0.0
11
210
21
250
31
0.0
0
LINE
8
E_POWER_FEEDERS
10
291
20
138
30
0.0
11
401
21
138
31
0.0
0
LINE
8
E_POWER_FEEDERS
10
401
20
138
30
0.0
11
401
21
162
31
0.0
0
LINE
8
E_POWER_FEEDERS
10
401
20
162
30
0.0
11
291
21
162
31
0.0
0
LINE
8
E_POWER_FEEDERS
10
291
20
162
30
0.0
11
291
21
138
31
0.0
0
TEXT
8
E_TEXT
10
293
20
157.5
30
0.0
40
2.8
1
UPS 20kVA
7
STANDARD
0
LINE
8
E_CABLES
10
346
20
162
30
0.0
11
210
21
250
31
0.0
0
LINE
8
E_POWER_FEEDERS
10
35
20
86
30
0.0
11
145
21
86
31
0.0
0
LINE
8
E_POWER_FEEDERS
10
145
20
86
30
0.0
11
145
21
110
31
0.0
0
LINE
8
E_POWER_FEEDERS
10
145
20
110
30
0.0
11
35
21
110
31
0.0
0
LINE
8
E_POWER_FEEDERS
10
35
20
110
30
0.0
11
35
21
86
31
0.0
0
TEXT
8
E_TEXT
10
37
20
105.5
30
0.0
40
2.8
1
PUBLIC + LIGHTING
7
STANDARD
0
LINE
8
E_CABLES
10
90
20
110
30
0.0
11
210
21
250
31
0.0
0
LINE
8
E_POWER_FEEDERS
10
163
20
86
30
0.0
11
273
21
86
31
0.0
0
LINE
8
E_POWER_FEEDERS
10
273
20
86
30
0.0
11
273
21
110
31
0.0
0
LINE
8
E_POWER_FEEDERS
10
273
20
110
30
0.0
11
163
21
110
31
0.0
0
LINE
8
E_POWER_FEEDERS
10
163
20
110
30
0.0
11
163
21
86
31
0.0
0
TEXT
8
E_TEXT
10
165
20
105.5
30
0.0
40
2.8
1
CAP 200kvar
7
STANDARD
0
LINE
8
E_CABLES
10
218
20
110
30
0.0
11
210
21
250
31
0.0
0
LINE
8
E_POWER_FEEDERS
10
291
20
86
30
0.0
11
401
21
86
31
0.0
0
LINE
8
E_POWER_FEEDERS
10
401
20
86
30
0.0
11
401
21
110
31
0.0
0
LINE
8
E_POWER_FEEDERS
10
401
20
110
30
0.0
11
291
21
110
31
0.0
0
LINE
8
E_POWER_FEEDERS
10
291
20
110
30
0.0
11
291
21
86
31
0.0
0
TEXT
8
E_TEXT
10
293
20
105.5
30
0.0
40
2.8
1
EMS/BMS
7
STANDARD
0
LINE
8
E_CABLES
10
346
20
110
30
0.0
11
210
21
250
31
0.0
0
TEXT
8
E_DIMENSIONS
10
14
20
47
30
0.0
40
2.6
1
NOTES: System overview: distribution + backup + innovation (PV/BESS/EV/EMS).
7
STANDARD
0
ENDSEC
0
EOF
