0
SECTION
2
HEADER
9
$ACADVER
1
AC1009
9
$INSUNITS
70
4
0
ENDSEC
0
SECTION
2
TABLES
0
TABLE
2
LTYPE
70
1
0
LTYPE
2
CONTINUOUS
70
0
3
Solid line
72
65
73
0
40
0.0
0
ENDTAB
0
TABLE
2
LAYER
70
14
0
LAYER
2
E_POWER_MAIN
70
0
62
1
6
CONTINUOUS
0
LAYER
2
E_POWER_FEEDERS
70
0
62
5
6
CONTINUOUS
0
LAYER
2
E_PROTECTION
70
0
62
30
6
CONTINUOUS
0
LAYER
2
E_CABLES
70
0
62
3
6
CONTINUOUS
0
LAYER
2
E_EARTHING
70
0
62
6
6
CONTINUOUS
0
LAYER
2
E_EV
70
0
62
4
6
CONTINUOUS
0
LAYER
2
E_PV
70
0
62
2
6
CONTINUOUS
0
LAYER
2
E_BESS
70
0
62
140
6
CONTINUOUS
0
LAYER
2
E_UPS_GEN
70
0
62
8
6
CONTINUOUS
0
LAYER
2
E_LIGHTING
70
0
62
40
6
CONTINUOUS
0
LAYER
2
E_BMS_EMS
70
0
62
150
6
CONTINUOUS
0
LAYER
2
E_TEXT
70
0
62
7
6
CONTINUOUS
0
LAYER
2
E_TITLE_BLOCK
70
0
62
7
6
CONTINUOUS
0
LAYER
2
E_DIMENSIONS
70
0
62
8
6
CONTINUOUS
0
ENDTAB
0
TABLE
2
STYLE
70
1
0
STYLE
2
STANDARD
70
0
40
0.0
41
1.0
50
0.0
71
0
42
2.5
3
txt
4

0
ENDTAB
0
ENDSEC
0
SECTION
2
ENTITIES
0
LINE
8
E_TITLE_BLOCK
10
8
20
8
30
0.0
11
412
21
8
31
0.0
0
LINE
8
E_TITLE_BLOCK
10
412
20
8
30
0.0
11
412
21
289
31
0.0
0
LINE
8
E_TITLE_BLOCK
10
412
20
289
30
0.0
11
8
21
289
31
0.0
0
LINE
8
E_TITLE_BLOCK
10
8
20
289
30
0.0
11
8
21
8
31
0.0
0
LINE
8
E_TITLE_BLOCK
10
10
20
10
30
0.0
11
410
21
10
31
0.0
0
LINE
8
E_TITLE_BLOCK
10
410
20
10
30
0.0
11
410
21
287
31
0.0
0
LINE
8
E_TITLE_BLOCK
10
410
20
287
30
0.0
11
10
21
287
31
0.0
0
LINE
8
E_TITLE_BLOCK
10
10
20
287
30
0.0
11
10
21
10
31
0.0
0
TEXT
8
E_TITLE_BLOCK
10
14
20
281
30
0.0
40
5.5
1
E-011   Protection Selectivity
7
STANDARD
0
LINE
8
E_TITLE_BLOCK
10
12
20
12
30
0.0
11
408
21
12
31
0.0
0
LINE
8
E_TITLE_BLOCK
10
408
20
12
30
0.0
11
408
21
44
31
0.0
0
LINE
8
E_TITLE_BLOCK
10
408
20
44
30
0.0
11
12
21
44
31
0.0
0
LINE
8
E_TITLE_BLOCK
10
12
20
44
30
0.0
11
12
21
12
31
0.0
0
LINE
8
E_TITLE_BLOCK
10
12
20
32
30
0.0
11
408
21
32
31
0.0
0
LINE
8
E_TITLE_BLOCK
10
12
20
23
30
0.0
11
408
21
23
31
0.0
0
LINE
8
E_TITLE_BLOCK
10
290
20
32
30
0.0
11
290
21
23
31
0.0
0
LINE
8
E_TITLE_BLOCK
10
150
20
12
30
0.0
11
150
21
23
31
0.0
0
LINE
8
E_TITLE_BLOCK
10
230
20
12
30
0.0
11
230
21
23
31
0.0
0
LINE
8
E_TITLE_BLOCK
10
300
20
12
30
0.0
11
300
21
23
31
0.0
0
LINE
8
E_TITLE_BLOCK
10
350
20
12
30
0.0
11
350
21
23
31
0.0
0
TEXT
8
E_TITLE_BLOCK
10
15
20
35.5
30
0.0
40
3
1
PROJECT: Smart Residential Neighborhood - Power Systems (Option B, LV 22/0.4kV)
7
STANDARD
0
TEXT
8
E_TITLE_BLOCK
10
305
20
35.5
30
0.0
40
2.8
1
MILESTONE 4 - FINAL
7
STANDARD
0
TEXT
8
E_TITLE_BLOCK
10
15
20
25.5
30
0.0
40
2.8
1
DRAWING: Protection Selectivity
7
STANDARD
0
TEXT
8
E_TITLE_BLOCK
10
293
20
25.5
30
0.0
40
2.8
1
DWG No.: E-011
7
STANDARD
0
TEXT
8
E_TITLE_BLOCK
10
15
20
16
30
0.0
40
2.6
1
STUDENT: __________
7
STANDARD
0
TEXT
8
E_TITLE_BLOCK
10
153
20
16
30
0.0
40
2.6
1
SUPERVISOR: ______
7
STANDARD
0
TEXT
8
E_TITLE_BLOCK
10
233
20
16
30
0.0
40
2.6
1
DATE: 2026-06-11
7
STANDARD
0
TEXT
8
E_TITLE_BLOCK
10
303
20
16
30
0.0
40
2.6
1
REV: B FINAL
7
STANDARD
0
TEXT
8
E_TITLE_BLOCK
10
353
20
16
30
0.0
40
2.6
1
SCALE: NTS
7
STANDARD
0
LINE
8
E_PROTECTION
10
60
20
235
30
0.0
11
180
21
235
31
0.0
0
LINE
8
E_PROTECTION
10
180
20
235
30
0.0
11
180
21
257
31
0.0
0
LINE
8
E_PROTECTION
10
180
20
257
30
0.0
11
60
21
257
31
0.0
0
LINE
8
E_PROTECTION
10
60
20
257
30
0.0
11
60
21
235
31
0.0
0
TEXT
8
E_TEXT
10
62
20
252.5
30
0.0
40
2.8
1
ACB 1600A
7
STANDARD
0
TEXT
8
E_TEXT
10
62
20
248
30
0.0
40
2.6
1
Icu 65kA  LSIG  ST=200ms
7
STANDARD
0
LINE
8
E_PROTECTION
10
60
20
201
30
0.0
11
180
21
201
31
0.0
0
LINE
8
E_PROTECTION
10
180
20
201
30
0.0
11
180
21
223
31
0.0
0
LINE
8
E_PROTECTION
10
180
20
223
30
0.0
11
60
21
223
31
0.0
0
LINE
8
E_PROTECTION
10
60
20
223
30
0.0
11
60
21
201
31
0.0
0
TEXT
8
E_TEXT
10
62
20
218.5
30
0.0
40
2.8
1
MCCB 800A
7
STANDARD
0
TEXT
8
E_TEXT
10
62
20
214
30
0.0
40
2.6
1
Icu 36kA  LSI  ST=100ms
7
STANDARD
0
LINE
8
E_CABLES
10
120
20
223
30
0.0
11
120
21
235
31
0.0
0
LINE
8
E_PROTECTION
10
60
20
167
30
0.0
11
180
21
167
31
0.0
0
LINE
8
E_PROTECTION
10
180
20
167
30
0.0
11
180
21
189
31
0.0
0
LINE
8
E_PROTECTION
10
180
20
189
30
0.0
11
60
21
189
31
0.0
0
LINE
8
E_PROTECTION
10
60
20
189
30
0.0
11
60
21
167
31
0.0
0
TEXT
8
E_TEXT
10
62
20
184.5
30
0.0
40
2.8
1
MCCB 80A
7
STANDARD
0
TEXT
8
E_TEXT
10
62
20
180
30
0.0
40
2.6
1
Icu 25kA  LI  50ms
7
STANDARD
0
LINE
8
E_CABLES
10
120
20
189
30
0.0
11
120
21
201
31
0.0
0
LINE
8
E_PROTECTION
10
60
20
133
30
0.0
11
180
21
133
31
0.0
0
LINE
8
E_PROTECTION
10
180
20
133
30
0.0
11
180
21
155
31
0.0
0
LINE
8
E_PROTECTION
10
180
20
155
30
0.0
11
60
21
155
31
0.0
0
LINE
8
E_PROTECTION
10
60
20
155
30
0.0
11
60
21
133
31
0.0
0
TEXT
8
E_TEXT
10
62
20
150.5
30
0.0
40
2.8
1
MCB+RCD 3x25A
7
STANDARD
0
TEXT
8
E_TEXT
10
62
20
146
30
0.0
40
2.6
1
10kA  C  RCD 30mA TypeA
7
STANDARD
0
LINE
8
E_CABLES
10
120
20
155
30
0.0
11
120
21
167
31
0.0
0
LINE
8
E_PROTECTION
10
60
20
99
30
0.0
11
180
21
99
31
0.0
0
LINE
8
E_PROTECTION
10
180
20
99
30
0.0
11
180
21
121
31
0.0
0
LINE
8
E_PROTECTION
10
180
20
121
30
0.0
11
60
21
121
31
0.0
0
LINE
8
E_PROTECTION
10
60
20
121
30
0.0
11
60
21
99
31
0.0
0
TEXT
8
E_TEXT
10
62
20
116.5
30
0.0
40
2.8
1
MCB C16
7
STANDARD
0
TEXT
8
E_TEXT
10
62
20
112
30
0.0
40
2.6
1
final circuit  instant
7
STANDARD
0
LINE
8
E_CABLES
10
120
20
121
30
0.0
11
120
21
133
31
0.0
0
TEXT
8
E_TEXT
10
210
20
235
30
0.0
40
2.8
1
Selectivity: time grading + current grading
7
STANDARD
0
TEXT
8
E_TEXT
10
210
20
220
30
0.0
40
2.6
1
Lower-level breaker trips before upstream.
7
STANDARD
0
TEXT
8
E_DIMENSIONS
10
210
20
205
30
0.0
40
2.6
1
Settings matched to LSIG trip characteristics.
7
STANDARD
0
TEXT
8
E_DIMENSIONS
10
14
20
47
30
0.0
40
2.6
1
NOTES: Five protection levels, MDB ACB to final MCB; final LSIG settings per ch.12 table.
7
STANDARD
0
ENDSEC
0
EOF
