0
SECTION
2
HEADER
9
$ACADVER
1
AC1009
9
$INSUNITS
70
4
0
ENDSEC
0
SECTION
2
TABLES
0
TABLE
2
LTYPE
70
1
0
LTYPE
2
CONTINUOUS
70
0
3
Solid line
72
65
73
0
40
0.0
0
ENDTAB
0
TABLE
2
LAYER
70
14
0
LAYER
2
E_POWER_MAIN
70
0
62
1
6
CONTINUOUS
0
LAYER
2
E_POWER_FEEDERS
70
0
62
5
6
CONTINUOUS
0
LAYER
2
E_PROTECTION
70
0
62
30
6
CONTINUOUS
0
LAYER
2
E_CABLES
70
0
62
3
6
CONTINUOUS
0
LAYER
2
E_EARTHING
70
0
62
6
6
CONTINUOUS
0
LAYER
2
E_EV
70
0
62
4
6
CONTINUOUS
0
LAYER
2
E_PV
70
0
62
2
6
CONTINUOUS
0
LAYER
2
E_BESS
70
0
62
140
6
CONTINUOUS
0
LAYER
2
E_UPS_GEN
70
0
62
8
6
CONTINUOUS
0
LAYER
2
E_LIGHTING
70
0
62
40
6
CONTINUOUS
0
LAYER
2
E_BMS_EMS
70
0
62
150
6
CONTINUOUS
0
LAYER
2
E_TEXT
70
0
62
7
6
CONTINUOUS
0
LAYER
2
E_TITLE_BLOCK
70
0
62
7
6
CONTINUOUS
0
LAYER
2
E_DIMENSIONS
70
0
62
8
6
CONTINUOUS
0
ENDTAB
0
TABLE
2
STYLE
70
1
0
STYLE
2
STANDARD
70
0
40
0.0
41
1.0
50
0.0
71
0
42
2.5
3
txt
4

0
ENDTAB
0
ENDSEC
0
SECTION
2
ENTITIES
0
LINE
8
E_TITLE_BLOCK
10
8
20
8
30
0.0
11
412
21
8
31
0.0
0
LINE
8
E_TITLE_BLOCK
10
412
20
8
30
0.0
11
412
21
289
31
0.0
0
LINE
8
E_TITLE_BLOCK
10
412
20
289
30
0.0
11
8
21
289
31
0.0
0
LINE
8
E_TITLE_BLOCK
10
8
20
289
30
0.0
11
8
21
8
31
0.0
0
LINE
8
E_TITLE_BLOCK
10
10
20
10
30
0.0
11
410
21
10
31
0.0
0
LINE
8
E_TITLE_BLOCK
10
410
20
10
30
0.0
11
410
21
287
31
0.0
0
LINE
8
E_TITLE_BLOCK
10
410
20
287
30
0.0
11
10
21
287
31
0.0
0
LINE
8
E_TITLE_BLOCK
10
10
20
287
30
0.0
11
10
21
10
31
0.0
0
TEXT
8
E_TITLE_BLOCK
10
14
20
281
30
0.0
40
5.5
1
E-010   Earthing Bonding TN-S
7
STANDARD
0
LINE
8
E_TITLE_BLOCK
10
12
20
12
30
0.0
11
408
21
12
31
0.0
0
LINE
8
E_TITLE_BLOCK
10
408
20
12
30
0.0
11
408
21
44
31
0.0
0
LINE
8
E_TITLE_BLOCK
10
408
20
44
30
0.0
11
12
21
44
31
0.0
0
LINE
8
E_TITLE_BLOCK
10
12
20
44
30
0.0
11
12
21
12
31
0.0
0
LINE
8
E_TITLE_BLOCK
10
12
20
32
30
0.0
11
408
21
32
31
0.0
0
LINE
8
E_TITLE_BLOCK
10
12
20
23
30
0.0
11
408
21
23
31
0.0
0
LINE
8
E_TITLE_BLOCK
10
290
20
32
30
0.0
11
290
21
23
31
0.0
0
LINE
8
E_TITLE_BLOCK
10
150
20
12
30
0.0
11
150
21
23
31
0.0
0
LINE
8
E_TITLE_BLOCK
10
230
20
12
30
0.0
11
230
21
23
31
0.0
0
LINE
8
E_TITLE_BLOCK
10
300
20
12
30
0.0
11
300
21
23
31
0.0
0
LINE
8
E_TITLE_BLOCK
10
350
20
12
30
0.0
11
350
21
23
31
0.0
0
TEXT
8
E_TITLE_BLOCK
10
15
20
35.5
30
0.0
40
3
1
PROJECT: Smart Residential Neighborhood - Power Systems (Option B, LV 22/0.4kV)
7
STANDARD
0
TEXT
8
E_TITLE_BLOCK
10
305
20
35.5
30
0.0
40
2.8
1
MILESTONE 4 - FINAL
7
STANDARD
0
TEXT
8
E_TITLE_BLOCK
10
15
20
25.5
30
0.0
40
2.8
1
DRAWING: Earthing Bonding TN-S
7
STANDARD
0
TEXT
8
E_TITLE_BLOCK
10
293
20
25.5
30
0.0
40
2.8
1
DWG No.: E-010
7
STANDARD
0
TEXT
8
E_TITLE_BLOCK
10
15
20
16
30
0.0
40
2.6
1
STUDENT: __________
7
STANDARD
0
TEXT
8
E_TITLE_BLOCK
10
153
20
16
30
0.0
40
2.6
1
SUPERVISOR: ______
7
STANDARD
0
TEXT
8
E_TITLE_BLOCK
10
233
20
16
30
0.0
40
2.6
1
DATE: 2026-06-11
7
STANDARD
0
TEXT
8
E_TITLE_BLOCK
10
303
20
16
30
0.0
40
2.6
1
REV: B FINAL
7
STANDARD
0
TEXT
8
E_TITLE_BLOCK
10
353
20
16
30
0.0
40
2.6
1
SCALE: NTS
7
STANDARD
0
LINE
8
E_POWER_MAIN
10
150
20
245
30
0.0
11
260
21
245
31
0.0
0
LINE
8
E_POWER_MAIN
10
260
20
245
30
0.0
11
260
21
263
31
0.0
0
LINE
8
E_POWER_MAIN
10
260
20
263
30
0.0
11
150
21
263
31
0.0
0
LINE
8
E_POWER_MAIN
10
150
20
263
30
0.0
11
150
21
245
31
0.0
0
TEXT
8
E_TEXT
10
152
20
258.5
30
0.0
40
2.8
1
TR NEUTRAL POINT
7
STANDARD
0
TEXT
8
E_TEXT
10
152
20
254
30
0.0
40
2.6
1
Dyn11
7
STANDARD
0
LINE
8
E_EARTHING
10
205
20
245
30
0.0
11
205
21
220
31
0.0
0
LINE
8
E_EARTHING
10
150
20
200
30
0.0
11
260
21
200
31
0.0
0
LINE
8
E_EARTHING
10
260
20
200
30
0.0
11
260
21
218
31
0.0
0
LINE
8
E_EARTHING
10
260
20
218
30
0.0
11
150
21
218
31
0.0
0
LINE
8
E_EARTHING
10
150
20
218
30
0.0
11
150
21
200
31
0.0
0
TEXT
8
E_TEXT
10
152
20
213.5
30
0.0
40
2.8
1
MAIN EARTH BAR (MET)
7
STANDARD
0
TEXT
8
E_TEXT
10
152
20
209
30
0.0
40
2.6
1
N / PE separated
7
STANDARD
0
LINE
8
E_EARTHING
10
160
20
200
30
0.0
11
160
21
150
31
0.0
0
TEXT
8
E_EARTHING
10
120
20
175
30
0.0
40
2.6
1
PE
7
STANDARD
0
LINE
8
E_POWER_FEEDERS
10
250
20
200
30
0.0
11
250
21
150
31
0.0
0
TEXT
8
E_POWER_FEEDERS
10
255
20
175
30
0.0
40
2.6
1
N
7
STANDARD
0
LINE
8
E_EARTHING
10
110
20
130
30
0.0
11
200
21
130
31
0.0
0
LINE
8
E_EARTHING
10
200
20
130
30
0.0
11
200
21
146
31
0.0
0
LINE
8
E_EARTHING
10
200
20
146
30
0.0
11
110
21
146
31
0.0
0
LINE
8
E_EARTHING
10
110
20
146
30
0.0
11
110
21
130
31
0.0
0
TEXT
8
E_TEXT
10
112
20
141.5
30
0.0
40
2.8
1
EQUIPOTENTIAL BOND
7
STANDARD
0
TEXT
8
E_TEXT
10
112
20
137
30
0.0
40
2.6
1
pipes/structure
7
STANDARD
0
LINE
8
E_EARTHING
10
220
20
130
30
0.0
11
310
21
130
31
0.0
0
LINE
8
E_EARTHING
10
310
20
130
30
0.0
11
310
21
146
31
0.0
0
LINE
8
E_EARTHING
10
310
20
146
30
0.0
11
220
21
146
31
0.0
0
LINE
8
E_EARTHING
10
220
20
146
30
0.0
11
220
21
130
31
0.0
0
TEXT
8
E_TEXT
10
222
20
141.5
30
0.0
40
2.8
1
EARTH ELECTRODE
7
STANDARD
0
TEXT
8
E_TEXT
10
222
20
137
30
0.0
40
2.6
1
Re <= 1 ohm (target)
7
STANDARD
0
CIRCLE
8
E_EARTHING
10
205
20
110
30
0.0
40
6
0
LINE
8
E_EARTHING
10
205
20
130
30
0.0
11
205
21
116
31
0.0
0
TEXT
8
E_DIMENSIONS
10
14
20
47
30
0.0
40
2.6
1
NOTES: TN-S: N and PE separated from transformer neutral; RCD protection downstream.
7
STANDARD
0
ENDSEC
0
EOF
