0
SECTION
2
HEADER
9
$ACADVER
1
AC1009
9
$INSUNITS
70
4
0
ENDSEC
0
SECTION
2
TABLES
0
TABLE
2
LTYPE
70
1
0
LTYPE
2
CONTINUOUS
70
0
3
Solid line
72
65
73
0
40
0.0
0
ENDTAB
0
TABLE
2
LAYER
70
14
0
LAYER
2
E_POWER_MAIN
70
0
62
1
6
CONTINUOUS
0
LAYER
2
E_POWER_FEEDERS
70
0
62
5
6
CONTINUOUS
0
LAYER
2
E_PROTECTION
70
0
62
30
6
CONTINUOUS
0
LAYER
2
E_CABLES
70
0
62
3
6
CONTINUOUS
0
LAYER
2
E_EARTHING
70
0
62
6
6
CONTINUOUS
0
LAYER
2
E_EV
70
0
62
4
6
CONTINUOUS
0
LAYER
2
E_PV
70
0
62
2
6
CONTINUOUS
0
LAYER
2
E_BESS
70
0
62
140
6
CONTINUOUS
0
LAYER
2
E_UPS_GEN
70
0
62
8
6
CONTINUOUS
0
LAYER
2
E_LIGHTING
70
0
62
40
6
CONTINUOUS
0
LAYER
2
E_BMS_EMS
70
0
62
150
6
CONTINUOUS
0
LAYER
2
E_TEXT
70
0
62
7
6
CONTINUOUS
0
LAYER
2
E_TITLE_BLOCK
70
0
62
7
6
CONTINUOUS
0
LAYER
2
E_DIMENSIONS
70
0
62
8
6
CONTINUOUS
0
ENDTAB
0
TABLE
2
STYLE
70
1
0
STYLE
2
STANDARD
70
0
40
0.0
41
1.0
50
0.0
71
0
42
2.5
3
txt
4

0
ENDTAB
0
ENDSEC
0
SECTION
2
ENTITIES
0
LINE
8
E_TITLE_BLOCK
10
8
20
8
30
0.0
11
412
21
8
31
0.0
0
LINE
8
E_TITLE_BLOCK
10
412
20
8
30
0.0
11
412
21
289
31
0.0
0
LINE
8
E_TITLE_BLOCK
10
412
20
289
30
0.0
11
8
21
289
31
0.0
0
LINE
8
E_TITLE_BLOCK
10
8
20
289
30
0.0
11
8
21
8
31
0.0
0
LINE
8
E_TITLE_BLOCK
10
10
20
10
30
0.0
11
410
21
10
31
0.0
0
LINE
8
E_TITLE_BLOCK
10
410
20
10
30
0.0
11
410
21
287
31
0.0
0
LINE
8
E_TITLE_BLOCK
10
410
20
287
30
0.0
11
10
21
287
31
0.0
0
LINE
8
E_TITLE_BLOCK
10
10
20
287
30
0.0
11
10
21
10
31
0.0
0
TEXT
8
E_TITLE_BLOCK
10
14
20
281
30
0.0
40
5.5
1
E-015   EV Charging Detailed SLD
7
STANDARD
0
LINE
8
E_TITLE_BLOCK
10
12
20
12
30
0.0
11
408
21
12
31
0.0
0
LINE
8
E_TITLE_BLOCK
10
408
20
12
30
0.0
11
408
21
44
31
0.0
0
LINE
8
E_TITLE_BLOCK
10
408
20
44
30
0.0
11
12
21
44
31
0.0
0
LINE
8
E_TITLE_BLOCK
10
12
20
44
30
0.0
11
12
21
12
31
0.0
0
LINE
8
E_TITLE_BLOCK
10
12
20
32
30
0.0
11
408
21
32
31
0.0
0
LINE
8
E_TITLE_BLOCK
10
12
20
23
30
0.0
11
408
21
23
31
0.0
0
LINE
8
E_TITLE_BLOCK
10
290
20
32
30
0.0
11
290
21
23
31
0.0
0
LINE
8
E_TITLE_BLOCK
10
150
20
12
30
0.0
11
150
21
23
31
0.0
0
LINE
8
E_TITLE_BLOCK
10
230
20
12
30
0.0
11
230
21
23
31
0.0
0
LINE
8
E_TITLE_BLOCK
10
300
20
12
30
0.0
11
300
21
23
31
0.0
0
LINE
8
E_TITLE_BLOCK
10
350
20
12
30
0.0
11
350
21
23
31
0.0
0
TEXT
8
E_TITLE_BLOCK
10
15
20
35.5
30
0.0
40
3
1
PROJECT: Smart Residential Neighborhood - Power Systems (Option B, LV 22/0.4kV)
7
STANDARD
0
TEXT
8
E_TITLE_BLOCK
10
305
20
35.5
30
0.0
40
2.8
1
MILESTONE 4 - FINAL
7
STANDARD
0
TEXT
8
E_TITLE_BLOCK
10
15
20
25.5
30
0.0
40
2.8
1
DRAWING: EV Charging Detailed SLD
7
STANDARD
0
TEXT
8
E_TITLE_BLOCK
10
293
20
25.5
30
0.0
40
2.8
1
DWG No.: E-015
7
STANDARD
0
TEXT
8
E_TITLE_BLOCK
10
15
20
16
30
0.0
40
2.6
1
STUDENT: __________
7
STANDARD
0
TEXT
8
E_TITLE_BLOCK
10
153
20
16
30
0.0
40
2.6
1
SUPERVISOR: ______
7
STANDARD
0
TEXT
8
E_TITLE_BLOCK
10
233
20
16
30
0.0
40
2.6
1
DATE: 2026-06-11
7
STANDARD
0
TEXT
8
E_TITLE_BLOCK
10
303
20
16
30
0.0
40
2.6
1
REV: B FINAL
7
STANDARD
0
TEXT
8
E_TITLE_BLOCK
10
353
20
16
30
0.0
40
2.6
1
SCALE: NTS
7
STANDARD
0
LINE
8
E_POWER_MAIN
10
40
20
245
30
0.0
11
110
21
245
31
0.0
0
LINE
8
E_POWER_MAIN
10
110
20
245
30
0.0
11
110
21
263
31
0.0
0
LINE
8
E_POWER_MAIN
10
110
20
263
30
0.0
11
40
21
263
31
0.0
0
LINE
8
E_POWER_MAIN
10
40
20
263
30
0.0
11
40
21
245
31
0.0
0
TEXT
8
E_TEXT
10
42
20
258.5
30
0.0
40
2.8
1
FROM MDB
7
STANDARD
0
TEXT
8
E_TEXT
10
42
20
254
30
0.0
40
2.6
1
2500A
7
STANDARD
0
LINE
8
E_EV
10
40
20
205
30
0.0
11
120
21
205
31
0.0
0
LINE
8
E_EV
10
120
20
205
30
0.0
11
120
21
225
31
0.0
0
LINE
8
E_EV
10
120
20
225
30
0.0
11
40
21
225
31
0.0
0
LINE
8
E_EV
10
40
20
225
30
0.0
11
40
21
205
31
0.0
0
TEXT
8
E_TEXT
10
42
20
220.5
30
0.0
40
2.8
1
EV PANEL MAIN
7
STANDARD
0
TEXT
8
E_TEXT
10
42
20
216
30
0.0
40
2.6
1
MCCB 250A (~175A)
7
STANDARD
0
LINE
8
E_CABLES
10
75
20
245
30
0.0
11
80
21
225
31
0.0
0
LINE
8
E_EV
10
150
20
200
30
0.0
11
194
21
200
31
0.0
0
LINE
8
E_EV
10
194
20
200
30
0.0
11
194
21
222
31
0.0
0
LINE
8
E_EV
10
194
20
222
30
0.0
11
150
21
222
31
0.0
0
LINE
8
E_EV
10
150
20
222
30
0.0
11
150
21
200
31
0.0
0
TEXT
8
E_TEXT
10
152
20
217.5
30
0.0
40
2.8
1
GROUP 1
7
STANDARD
0
TEXT
8
E_TEXT
10
152
20
213
30
0.0
40
2.6
1
6x 11kW
7
STANDARD
0
LINE
8
E_CABLES
10
120
20
215
30
0.0
11
150
21
211
31
0.0
0
LINE
8
E_EV
10
198
20
200
30
0.0
11
242
21
200
31
0.0
0
LINE
8
E_EV
10
242
20
200
30
0.0
11
242
21
222
31
0.0
0
LINE
8
E_EV
10
242
20
222
30
0.0
11
198
21
222
31
0.0
0
LINE
8
E_EV
10
198
20
222
30
0.0
11
198
21
200
31
0.0
0
TEXT
8
E_TEXT
10
200
20
217.5
30
0.0
40
2.8
1
GROUP 2
7
STANDARD
0
TEXT
8
E_TEXT
10
200
20
213
30
0.0
40
2.6
1
6x 11kW
7
STANDARD
0
LINE
8
E_CABLES
10
120
20
215
30
0.0
11
198
21
211
31
0.0
0
LINE
8
E_EV
10
246
20
200
30
0.0
11
290
21
200
31
0.0
0
LINE
8
E_EV
10
290
20
200
30
0.0
11
290
21
222
31
0.0
0
LINE
8
E_EV
10
290
20
222
30
0.0
11
246
21
222
31
0.0
0
LINE
8
E_EV
10
246
20
222
30
0.0
11
246
21
200
31
0.0
0
TEXT
8
E_TEXT
10
248
20
217.5
30
0.0
40
2.8
1
GROUP 3
7
STANDARD
0
TEXT
8
E_TEXT
10
248
20
213
30
0.0
40
2.6
1
6x 11kW
7
STANDARD
0
LINE
8
E_CABLES
10
120
20
215
30
0.0
11
246
21
211
31
0.0
0
LINE
8
E_EV
10
294
20
200
30
0.0
11
338
21
200
31
0.0
0
LINE
8
E_EV
10
338
20
200
30
0.0
11
338
21
222
31
0.0
0
LINE
8
E_EV
10
338
20
222
30
0.0
11
294
21
222
31
0.0
0
LINE
8
E_EV
10
294
20
222
30
0.0
11
294
21
200
31
0.0
0
TEXT
8
E_TEXT
10
296
20
217.5
30
0.0
40
2.8
1
GROUP 4
7
STANDARD
0
TEXT
8
E_TEXT
10
296
20
213
30
0.0
40
2.6
1
6x 11kW
7
STANDARD
0
LINE
8
E_CABLES
10
120
20
215
30
0.0
11
294
21
211
31
0.0
0
LINE
8
E_EV
10
342
20
200
30
0.0
11
386
21
200
31
0.0
0
LINE
8
E_EV
10
386
20
200
30
0.0
11
386
21
222
31
0.0
0
LINE
8
E_EV
10
386
20
222
30
0.0
11
342
21
222
31
0.0
0
LINE
8
E_EV
10
342
20
222
30
0.0
11
342
21
200
31
0.0
0
TEXT
8
E_TEXT
10
344
20
217.5
30
0.0
40
2.8
1
GROUP 5
7
STANDARD
0
TEXT
8
E_TEXT
10
344
20
213
30
0.0
40
2.6
1
6x 11kW
7
STANDARD
0
LINE
8
E_CABLES
10
120
20
215
30
0.0
11
342
21
211
31
0.0
0
LINE
8
E_PROTECTION
10
150
20
150
30
0.0
11
194
21
150
31
0.0
0
LINE
8
E_PROTECTION
10
194
20
150
30
0.0
11
194
21
168
31
0.0
0
LINE
8
E_PROTECTION
10
194
20
168
30
0.0
11
150
21
168
31
0.0
0
LINE
8
E_PROTECTION
10
150
20
168
30
0.0
11
150
21
150
31
0.0
0
TEXT
8
E_TEXT
10
152
20
163.5
30
0.0
40
2.8
1
RCD TypeB
7
STANDARD
0
TEXT
8
E_TEXT
10
152
20
159
30
0.0
40
2.6
1
+MCB
7
STANDARD
0
LINE
8
E_PROTECTION
10
198
20
150
30
0.0
11
242
21
150
31
0.0
0
LINE
8
E_PROTECTION
10
242
20
150
30
0.0
11
242
21
168
31
0.0
0
LINE
8
E_PROTECTION
10
242
20
168
30
0.0
11
198
21
168
31
0.0
0
LINE
8
E_PROTECTION
10
198
20
168
30
0.0
11
198
21
150
31
0.0
0
TEXT
8
E_TEXT
10
200
20
163.5
30
0.0
40
2.8
1
RCD TypeB
7
STANDARD
0
TEXT
8
E_TEXT
10
200
20
159
30
0.0
40
2.6
1
+MCB
7
STANDARD
0
LINE
8
E_PROTECTION
10
246
20
150
30
0.0
11
290
21
150
31
0.0
0
LINE
8
E_PROTECTION
10
290
20
150
30
0.0
11
290
21
168
31
0.0
0
LINE
8
E_PROTECTION
10
290
20
168
30
0.0
11
246
21
168
31
0.0
0
LINE
8
E_PROTECTION
10
246
20
168
30
0.0
11
246
21
150
31
0.0
0
TEXT
8
E_TEXT
10
248
20
163.5
30
0.0
40
2.8
1
RCD TypeB
7
STANDARD
0
TEXT
8
E_TEXT
10
248
20
159
30
0.0
40
2.6
1
+MCB
7
STANDARD
0
LINE
8
E_PROTECTION
10
294
20
150
30
0.0
11
338
21
150
31
0.0
0
LINE
8
E_PROTECTION
10
338
20
150
30
0.0
11
338
21
168
31
0.0
0
LINE
8
E_PROTECTION
10
338
20
168
30
0.0
11
294
21
168
31
0.0
0
LINE
8
E_PROTECTION
10
294
20
168
30
0.0
11
294
21
150
31
0.0
0
TEXT
8
E_TEXT
10
296
20
163.5
30
0.0
40
2.8
1
RCD TypeB
7
STANDARD
0
TEXT
8
E_TEXT
10
296
20
159
30
0.0
40
2.6
1
+MCB
7
STANDARD
0
LINE
8
E_PROTECTION
10
342
20
150
30
0.0
11
386
21
150
31
0.0
0
LINE
8
E_PROTECTION
10
386
20
150
30
0.0
11
386
21
168
31
0.0
0
LINE
8
E_PROTECTION
10
386
20
168
30
0.0
11
342
21
168
31
0.0
0
LINE
8
E_PROTECTION
10
342
20
168
30
0.0
11
342
21
150
31
0.0
0
TEXT
8
E_TEXT
10
344
20
163.5
30
0.0
40
2.8
1
RCD TypeB
7
STANDARD
0
TEXT
8
E_TEXT
10
344
20
159
30
0.0
40
2.6
1
+MCB
7
STANDARD
0
LINE
8
E_CABLES
10
172
20
200
30
0.0
11
172
21
168
31
0.0
0
LINE
8
E_CABLES
10
220
20
200
30
0.0
11
220
21
168
31
0.0
0
LINE
8
E_CABLES
10
268
20
200
30
0.0
11
268
21
168
31
0.0
0
LINE
8
E_CABLES
10
316
20
200
30
0.0
11
316
21
168
31
0.0
0
LINE
8
E_CABLES
10
364
20
200
30
0.0
11
364
21
168
31
0.0
0
LINE
8
E_BMS_EMS
10
150
20
110
30
0.0
11
350
21
110
31
0.0
0
LINE
8
E_BMS_EMS
10
350
20
110
30
0.0
11
350
21
128
31
0.0
0
LINE
8
E_BMS_EMS
10
350
20
128
30
0.0
11
150
21
128
31
0.0
0
LINE
8
E_BMS_EMS
10
150
20
128
30
0.0
11
150
21
110
31
0.0
0
TEXT
8
E_TEXT
10
152
20
123.5
30
0.0
40
2.8
1
DLM CONTROLLER -> EMS/BMS
7
STANDARD
0
TEXT
8
E_TEXT
10
152
20
119
30
0.0
40
2.6
1
managed 115.5kW (0.35)
7
STANDARD
0
TEXT
8
E_DIMENSIONS
10
14
20
47
30
0.0
40
2.6
1
NOTES: 30 stations x 11kW (3-ph), installed 330kW, managed 115.5kW; RCD Type B + SPD.
7
STANDARD
0
ENDSEC
0
EOF
