0
SECTION
2
HEADER
9
$ACADVER
1
AC1009
9
$INSUNITS
70
4
0
ENDSEC
0
SECTION
2
TABLES
0
TABLE
2
LTYPE
70
1
0
LTYPE
2
CONTINUOUS
70
0
3
Solid line
72
65
73
0
40
0.0
0
ENDTAB
0
TABLE
2
LAYER
70
14
0
LAYER
2
E_POWER_MAIN
70
0
62
1
6
CONTINUOUS
0
LAYER
2
E_POWER_FEEDERS
70
0
62
5
6
CONTINUOUS
0
LAYER
2
E_PROTECTION
70
0
62
30
6
CONTINUOUS
0
LAYER
2
E_CABLES
70
0
62
3
6
CONTINUOUS
0
LAYER
2
E_EARTHING
70
0
62
6
6
CONTINUOUS
0
LAYER
2
E_EV
70
0
62
4
6
CONTINUOUS
0
LAYER
2
E_PV
70
0
62
2
6
CONTINUOUS
0
LAYER
2
E_BESS
70
0
62
140
6
CONTINUOUS
0
LAYER
2
E_UPS_GEN
70
0
62
8
6
CONTINUOUS
0
LAYER
2
E_LIGHTING
70
0
62
40
6
CONTINUOUS
0
LAYER
2
E_BMS_EMS
70
0
62
150
6
CONTINUOUS
0
LAYER
2
E_TEXT
70
0
62
7
6
CONTINUOUS
0
LAYER
2
E_TITLE_BLOCK
70
0
62
7
6
CONTINUOUS
0
LAYER
2
E_DIMENSIONS
70
0
62
8
6
CONTINUOUS
0
ENDTAB
0
TABLE
2
STYLE
70
1
0
STYLE
2
STANDARD
70
0
40
0.0
41
1.0
50
0.0
71
0
42
2.5
3
txt
4

0
ENDTAB
0
ENDSEC
0
SECTION
2
ENTITIES
0
LINE
8
E_TITLE_BLOCK
10
8
20
8
30
0.0
11
412
21
8
31
0.0
0
LINE
8
E_TITLE_BLOCK
10
412
20
8
30
0.0
11
412
21
289
31
0.0
0
LINE
8
E_TITLE_BLOCK
10
412
20
289
30
0.0
11
8
21
289
31
0.0
0
LINE
8
E_TITLE_BLOCK
10
8
20
289
30
0.0
11
8
21
8
31
0.0
0
LINE
8
E_TITLE_BLOCK
10
10
20
10
30
0.0
11
410
21
10
31
0.0
0
LINE
8
E_TITLE_BLOCK
10
410
20
10
30
0.0
11
410
21
287
31
0.0
0
LINE
8
E_TITLE_BLOCK
10
410
20
287
30
0.0
11
10
21
287
31
0.0
0
LINE
8
E_TITLE_BLOCK
10
10
20
287
30
0.0
11
10
21
10
31
0.0
0
TEXT
8
E_TITLE_BLOCK
10
14
20
281
30
0.0
40
5.5
1
E-013   Lighting Emergency Lighting
7
STANDARD
0
LINE
8
E_TITLE_BLOCK
10
12
20
12
30
0.0
11
408
21
12
31
0.0
0
LINE
8
E_TITLE_BLOCK
10
408
20
12
30
0.0
11
408
21
44
31
0.0
0
LINE
8
E_TITLE_BLOCK
10
408
20
44
30
0.0
11
12
21
44
31
0.0
0
LINE
8
E_TITLE_BLOCK
10
12
20
44
30
0.0
11
12
21
12
31
0.0
0
LINE
8
E_TITLE_BLOCK
10
12
20
32
30
0.0
11
408
21
32
31
0.0
0
LINE
8
E_TITLE_BLOCK
10
12
20
23
30
0.0
11
408
21
23
31
0.0
0
LINE
8
E_TITLE_BLOCK
10
290
20
32
30
0.0
11
290
21
23
31
0.0
0
LINE
8
E_TITLE_BLOCK
10
150
20
12
30
0.0
11
150
21
23
31
0.0
0
LINE
8
E_TITLE_BLOCK
10
230
20
12
30
0.0
11
230
21
23
31
0.0
0
LINE
8
E_TITLE_BLOCK
10
300
20
12
30
0.0
11
300
21
23
31
0.0
0
LINE
8
E_TITLE_BLOCK
10
350
20
12
30
0.0
11
350
21
23
31
0.0
0
TEXT
8
E_TITLE_BLOCK
10
15
20
35.5
30
0.0
40
3
1
PROJECT: Smart Residential Neighborhood - Power Systems (Option B, LV 22/0.4kV)
7
STANDARD
0
TEXT
8
E_TITLE_BLOCK
10
305
20
35.5
30
0.0
40
2.8
1
MILESTONE 4 - FINAL
7
STANDARD
0
TEXT
8
E_TITLE_BLOCK
10
15
20
25.5
30
0.0
40
2.8
1
DRAWING: Lighting Emergency Lighting
7
STANDARD
0
TEXT
8
E_TITLE_BLOCK
10
293
20
25.5
30
0.0
40
2.8
1
DWG No.: E-013
7
STANDARD
0
TEXT
8
E_TITLE_BLOCK
10
15
20
16
30
0.0
40
2.6
1
STUDENT: __________
7
STANDARD
0
TEXT
8
E_TITLE_BLOCK
10
153
20
16
30
0.0
40
2.6
1
SUPERVISOR: ______
7
STANDARD
0
TEXT
8
E_TITLE_BLOCK
10
233
20
16
30
0.0
40
2.6
1
DATE: 2026-06-11
7
STANDARD
0
TEXT
8
E_TITLE_BLOCK
10
303
20
16
30
0.0
40
2.6
1
REV: B FINAL
7
STANDARD
0
TEXT
8
E_TITLE_BLOCK
10
353
20
16
30
0.0
40
2.6
1
SCALE: NTS
7
STANDARD
0
LINE
8
E_LIGHTING
10
40
20
245
30
0.0
11
120
21
245
31
0.0
0
LINE
8
E_LIGHTING
10
120
20
245
30
0.0
11
120
21
263
31
0.0
0
LINE
8
E_LIGHTING
10
120
20
263
30
0.0
11
40
21
263
31
0.0
0
LINE
8
E_LIGHTING
10
40
20
263
30
0.0
11
40
21
245
31
0.0
0
TEXT
8
E_TEXT
10
42
20
258.5
30
0.0
40
2.8
1
LIGHTING PANEL
7
STANDARD
0
TEXT
8
E_TEXT
10
42
20
254
30
0.0
40
2.6
1
from sub-board
7
STANDARD
0
LINE
8
E_LIGHTING
10
40
20
210
30
0.0
11
150
21
210
31
0.0
0
LINE
8
E_LIGHTING
10
150
20
210
30
0.0
11
150
21
228
31
0.0
0
LINE
8
E_LIGHTING
10
150
20
228
30
0.0
11
40
21
228
31
0.0
0
LINE
8
E_LIGHTING
10
40
20
228
30
0.0
11
40
21
210
31
0.0
0
TEXT
8
E_TEXT
10
42
20
223.5
30
0.0
40
2.8
1
LOBBY
7
STANDARD
0
TEXT
8
E_TEXT
10
42
20
219
30
0.0
40
2.6
1
200lux LED
7
STANDARD
0
LINE
8
E_CABLES
10
80
20
245
30
0.0
11
95
21
228
31
0.0
0
LINE
8
E_LIGHTING
10
40
20
180
30
0.0
11
150
21
180
31
0.0
0
LINE
8
E_LIGHTING
10
150
20
180
30
0.0
11
150
21
198
31
0.0
0
LINE
8
E_LIGHTING
10
150
20
198
30
0.0
11
40
21
198
31
0.0
0
LINE
8
E_LIGHTING
10
40
20
198
30
0.0
11
40
21
180
31
0.0
0
TEXT
8
E_TEXT
10
42
20
193.5
30
0.0
40
2.8
1
CORRIDORS
7
STANDARD
0
TEXT
8
E_TEXT
10
42
20
189
30
0.0
40
2.6
1
150lux LED
7
STANDARD
0
LINE
8
E_CABLES
10
80
20
245
30
0.0
11
95
21
198
31
0.0
0
LINE
8
E_LIGHTING
10
40
20
150
30
0.0
11
150
21
150
31
0.0
0
LINE
8
E_LIGHTING
10
150
20
150
30
0.0
11
150
21
168
31
0.0
0
LINE
8
E_LIGHTING
10
150
20
168
30
0.0
11
40
21
168
31
0.0
0
LINE
8
E_LIGHTING
10
40
20
168
30
0.0
11
40
21
150
31
0.0
0
TEXT
8
E_TEXT
10
42
20
163.5
30
0.0
40
2.8
1
EL.ROOM
7
STANDARD
0
TEXT
8
E_TEXT
10
42
20
159
30
0.0
40
2.6
1
300lux LED
7
STANDARD
0
LINE
8
E_CABLES
10
80
20
245
30
0.0
11
95
21
168
31
0.0
0
LINE
8
E_LIGHTING
10
40
20
120
30
0.0
11
150
21
120
31
0.0
0
LINE
8
E_LIGHTING
10
150
20
120
30
0.0
11
150
21
138
31
0.0
0
LINE
8
E_LIGHTING
10
150
20
138
30
0.0
11
40
21
138
31
0.0
0
LINE
8
E_LIGHTING
10
40
20
138
30
0.0
11
40
21
120
31
0.0
0
TEXT
8
E_TEXT
10
42
20
133.5
30
0.0
40
2.8
1
CAR PARK
7
STANDARD
0
TEXT
8
E_TEXT
10
42
20
129
30
0.0
40
2.6
1
75lux LED
7
STANDARD
0
LINE
8
E_CABLES
10
80
20
245
30
0.0
11
95
21
138
31
0.0
0
LINE
8
E_LIGHTING
10
40
20
90
30
0.0
11
150
21
90
31
0.0
0
LINE
8
E_LIGHTING
10
150
20
90
30
0.0
11
150
21
108
31
0.0
0
LINE
8
E_LIGHTING
10
150
20
108
30
0.0
11
40
21
108
31
0.0
0
LINE
8
E_LIGHTING
10
40
20
108
30
0.0
11
40
21
90
31
0.0
0
TEXT
8
E_TEXT
10
42
20
103.5
30
0.0
40
2.8
1
OUTDOOR
7
STANDARD
0
TEXT
8
E_TEXT
10
42
20
99
30
0.0
40
2.6
1
20-50lux
7
STANDARD
0
LINE
8
E_CABLES
10
80
20
245
30
0.0
11
95
21
108
31
0.0
0
LINE
8
E_UPS_GEN
10
250
20
200
30
0.0
11
360
21
200
31
0.0
0
LINE
8
E_UPS_GEN
10
360
20
200
30
0.0
11
360
21
220
31
0.0
0
LINE
8
E_UPS_GEN
10
360
20
220
30
0.0
11
250
21
220
31
0.0
0
LINE
8
E_UPS_GEN
10
250
20
220
30
0.0
11
250
21
200
31
0.0
0
TEXT
8
E_TEXT
10
252
20
215.5
30
0.0
40
2.8
1
EMERGENCY LIGHTING
7
STANDARD
0
TEXT
8
E_TEXT
10
252
20
211
30
0.0
40
2.6
1
UPS/GEN + 60-90min battery
7
STANDARD
0
LINE
8
E_LIGHTING
10
250
20
160
30
0.0
11
360
21
160
31
0.0
0
LINE
8
E_LIGHTING
10
360
20
160
30
0.0
11
360
21
178
31
0.0
0
LINE
8
E_LIGHTING
10
360
20
178
30
0.0
11
250
21
178
31
0.0
0
LINE
8
E_LIGHTING
10
250
20
178
30
0.0
11
250
21
160
31
0.0
0
TEXT
8
E_TEXT
10
252
20
173.5
30
0.0
40
2.8
1
EXIT SIGNS
7
STANDARD
0
TEXT
8
E_TEXT
10
252
20
169
30
0.0
40
2.6
1
escape routes
7
STANDARD
0
LINE
8
E_CABLES
10
305
20
200
30
0.0
11
305
21
178
31
0.0
0
TEXT
8
E_DIMENSIONS
10
14
20
47
30
0.0
40
2.6
1
NOTES: Lumen method per area; emergency lighting on UPS/gen with local battery.
7
STANDARD
0
ENDSEC
0
EOF
