0
SECTION
2
HEADER
9
$ACADVER
1
AC1009
9
$INSUNITS
70
4
0
ENDSEC
0
SECTION
2
TABLES
0
TABLE
2
LTYPE
70
1
0
LTYPE
2
CONTINUOUS
70
0
3
Solid line
72
65
73
0
40
0.0
0
ENDTAB
0
TABLE
2
LAYER
70
14
0
LAYER
2
E_POWER_MAIN
70
0
62
1
6
CONTINUOUS
0
LAYER
2
E_POWER_FEEDERS
70
0
62
5
6
CONTINUOUS
0
LAYER
2
E_PROTECTION
70
0
62
30
6
CONTINUOUS
0
LAYER
2
E_CABLES
70
0
62
3
6
CONTINUOUS
0
LAYER
2
E_EARTHING
70
0
62
6
6
CONTINUOUS
0
LAYER
2
E_EV
70
0
62
4
6
CONTINUOUS
0
LAYER
2
E_PV
70
0
62
2
6
CONTINUOUS
0
LAYER
2
E_BESS
70
0
62
140
6
CONTINUOUS
0
LAYER
2
E_UPS_GEN
70
0
62
8
6
CONTINUOUS
0
LAYER
2
E_LIGHTING
70
0
62
40
6
CONTINUOUS
0
LAYER
2
E_BMS_EMS
70
0
62
150
6
CONTINUOUS
0
LAYER
2
E_TEXT
70
0
62
7
6
CONTINUOUS
0
LAYER
2
E_TITLE_BLOCK
70
0
62
7
6
CONTINUOUS
0
LAYER
2
E_DIMENSIONS
70
0
62
8
6
CONTINUOUS
0
ENDTAB
0
TABLE
2
STYLE
70
1
0
STYLE
2
STANDARD
70
0
40
0.0
41
1.0
50
0.0
71
0
42
2.5
3
txt
4

0
ENDTAB
0
ENDSEC
0
SECTION
2
ENTITIES
0
LINE
8
E_TITLE_BLOCK
10
8
20
8
30
0.0
11
412
21
8
31
0.0
0
LINE
8
E_TITLE_BLOCK
10
412
20
8
30
0.0
11
412
21
289
31
0.0
0
LINE
8
E_TITLE_BLOCK
10
412
20
289
30
0.0
11
8
21
289
31
0.0
0
LINE
8
E_TITLE_BLOCK
10
8
20
289
30
0.0
11
8
21
8
31
0.0
0
LINE
8
E_TITLE_BLOCK
10
10
20
10
30
0.0
11
410
21
10
31
0.0
0
LINE
8
E_TITLE_BLOCK
10
410
20
10
30
0.0
11
410
21
287
31
0.0
0
LINE
8
E_TITLE_BLOCK
10
410
20
287
30
0.0
11
10
21
287
31
0.0
0
LINE
8
E_TITLE_BLOCK
10
10
20
287
30
0.0
11
10
21
10
31
0.0
0
TEXT
8
E_TITLE_BLOCK
10
14
20
281
30
0.0
40
5.5
1
E-017   Capacitor Bank PF Correction
7
STANDARD
0
LINE
8
E_TITLE_BLOCK
10
12
20
12
30
0.0
11
408
21
12
31
0.0
0
LINE
8
E_TITLE_BLOCK
10
408
20
12
30
0.0
11
408
21
44
31
0.0
0
LINE
8
E_TITLE_BLOCK
10
408
20
44
30
0.0
11
12
21
44
31
0.0
0
LINE
8
E_TITLE_BLOCK
10
12
20
44
30
0.0
11
12
21
12
31
0.0
0
LINE
8
E_TITLE_BLOCK
10
12
20
32
30
0.0
11
408
21
32
31
0.0
0
LINE
8
E_TITLE_BLOCK
10
12
20
23
30
0.0
11
408
21
23
31
0.0
0
LINE
8
E_TITLE_BLOCK
10
290
20
32
30
0.0
11
290
21
23
31
0.0
0
LINE
8
E_TITLE_BLOCK
10
150
20
12
30
0.0
11
150
21
23
31
0.0
0
LINE
8
E_TITLE_BLOCK
10
230
20
12
30
0.0
11
230
21
23
31
0.0
0
LINE
8
E_TITLE_BLOCK
10
300
20
12
30
0.0
11
300
21
23
31
0.0
0
LINE
8
E_TITLE_BLOCK
10
350
20
12
30
0.0
11
350
21
23
31
0.0
0
TEXT
8
E_TITLE_BLOCK
10
15
20
35.5
30
0.0
40
3
1
PROJECT: Smart Residential Neighborhood - Power Systems (Option B, LV 22/0.4kV)
7
STANDARD
0
TEXT
8
E_TITLE_BLOCK
10
305
20
35.5
30
0.0
40
2.8
1
MILESTONE 4 - FINAL
7
STANDARD
0
TEXT
8
E_TITLE_BLOCK
10
15
20
25.5
30
0.0
40
2.8
1
DRAWING: Capacitor Bank PF Correction
7
STANDARD
0
TEXT
8
E_TITLE_BLOCK
10
293
20
25.5
30
0.0
40
2.8
1
DWG No.: E-017
7
STANDARD
0
TEXT
8
E_TITLE_BLOCK
10
15
20
16
30
0.0
40
2.6
1
STUDENT: __________
7
STANDARD
0
TEXT
8
E_TITLE_BLOCK
10
153
20
16
30
0.0
40
2.6
1
SUPERVISOR: ______
7
STANDARD
0
TEXT
8
E_TITLE_BLOCK
10
233
20
16
30
0.0
40
2.6
1
DATE: 2026-06-11
7
STANDARD
0
TEXT
8
E_TITLE_BLOCK
10
303
20
16
30
0.0
40
2.6
1
REV: B FINAL
7
STANDARD
0
TEXT
8
E_TITLE_BLOCK
10
353
20
16
30
0.0
40
2.6
1
SCALE: NTS
7
STANDARD
0
LINE
8
E_POWER_MAIN
10
165
20
250
30
0.0
11
255
21
250
31
0.0
0
LINE
8
E_POWER_MAIN
10
255
20
250
30
0.0
11
255
21
268
31
0.0
0
LINE
8
E_POWER_MAIN
10
255
20
268
30
0.0
11
165
21
268
31
0.0
0
LINE
8
E_POWER_MAIN
10
165
20
268
30
0.0
11
165
21
250
31
0.0
0
TEXT
8
E_TEXT
10
167
20
263.5
30
0.0
40
2.8
1
MDB BUSBAR
7
STANDARD
0
TEXT
8
E_TEXT
10
167
20
259
30
0.0
40
2.6
1
2500A
7
STANDARD
0
LINE
8
E_PROTECTION
10
150
20
210
30
0.0
11
270
21
210
31
0.0
0
LINE
8
E_PROTECTION
10
270
20
210
30
0.0
11
270
21
232
31
0.0
0
LINE
8
E_PROTECTION
10
270
20
232
30
0.0
11
150
21
232
31
0.0
0
LINE
8
E_PROTECTION
10
150
20
232
30
0.0
11
150
21
210
31
0.0
0
TEXT
8
E_TEXT
10
152
20
227.5
30
0.0
40
2.8
1
PF CONTROLLER
7
STANDARD
0
TEXT
8
E_TEXT
10
152
20
223
30
0.0
40
2.6
1
target cos=0.95
7
STANDARD
0
LINE
8
E_CABLES
10
210
20
250
30
0.0
11
210
21
232
31
0.0
0
LINE
8
E_BESS
10
40
20
150
30
0.0
11
80
21
150
31
0.0
0
LINE
8
E_BESS
10
80
20
150
30
0.0
11
80
21
180
31
0.0
0
LINE
8
E_BESS
10
80
20
180
30
0.0
11
40
21
180
31
0.0
0
LINE
8
E_BESS
10
40
20
180
30
0.0
11
40
21
150
31
0.0
0
TEXT
8
E_TEXT
10
42
20
175.5
30
0.0
40
2.8
1
STEP 1
7
STANDARD
0
TEXT
8
E_TEXT
10
42
20
171
30
0.0
40
2.6
1
25kvar
7
STANDARD
0
LINE
8
E_CABLES
10
60
20
180
30
0.0
11
210
21
210
31
0.0
0
LINE
8
E_BESS
10
85
20
150
30
0.0
11
125
21
150
31
0.0
0
LINE
8
E_BESS
10
125
20
150
30
0.0
11
125
21
180
31
0.0
0
LINE
8
E_BESS
10
125
20
180
30
0.0
11
85
21
180
31
0.0
0
LINE
8
E_BESS
10
85
20
180
30
0.0
11
85
21
150
31
0.0
0
TEXT
8
E_TEXT
10
87
20
175.5
30
0.0
40
2.8
1
STEP 2
7
STANDARD
0
TEXT
8
E_TEXT
10
87
20
171
30
0.0
40
2.6
1
25kvar
7
STANDARD
0
LINE
8
E_CABLES
10
105
20
180
30
0.0
11
210
21
210
31
0.0
0
LINE
8
E_BESS
10
130
20
150
30
0.0
11
170
21
150
31
0.0
0
LINE
8
E_BESS
10
170
20
150
30
0.0
11
170
21
180
31
0.0
0
LINE
8
E_BESS
10
170
20
180
30
0.0
11
130
21
180
31
0.0
0
LINE
8
E_BESS
10
130
20
180
30
0.0
11
130
21
150
31
0.0
0
TEXT
8
E_TEXT
10
132
20
175.5
30
0.0
40
2.8
1
STEP 3
7
STANDARD
0
TEXT
8
E_TEXT
10
132
20
171
30
0.0
40
2.6
1
25kvar
7
STANDARD
0
LINE
8
E_CABLES
10
150
20
180
30
0.0
11
210
21
210
31
0.0
0
LINE
8
E_BESS
10
175
20
150
30
0.0
11
215
21
150
31
0.0
0
LINE
8
E_BESS
10
215
20
150
30
0.0
11
215
21
180
31
0.0
0
LINE
8
E_BESS
10
215
20
180
30
0.0
11
175
21
180
31
0.0
0
LINE
8
E_BESS
10
175
20
180
30
0.0
11
175
21
150
31
0.0
0
TEXT
8
E_TEXT
10
177
20
175.5
30
0.0
40
2.8
1
STEP 4
7
STANDARD
0
TEXT
8
E_TEXT
10
177
20
171
30
0.0
40
2.6
1
25kvar
7
STANDARD
0
LINE
8
E_CABLES
10
195
20
180
30
0.0
11
210
21
210
31
0.0
0
LINE
8
E_BESS
10
220
20
150
30
0.0
11
260
21
150
31
0.0
0
LINE
8
E_BESS
10
260
20
150
30
0.0
11
260
21
180
31
0.0
0
LINE
8
E_BESS
10
260
20
180
30
0.0
11
220
21
180
31
0.0
0
LINE
8
E_BESS
10
220
20
180
30
0.0
11
220
21
150
31
0.0
0
TEXT
8
E_TEXT
10
222
20
175.5
30
0.0
40
2.8
1
STEP 5
7
STANDARD
0
TEXT
8
E_TEXT
10
222
20
171
30
0.0
40
2.6
1
25kvar
7
STANDARD
0
LINE
8
E_CABLES
10
240
20
180
30
0.0
11
210
21
210
31
0.0
0
LINE
8
E_BESS
10
265
20
150
30
0.0
11
305
21
150
31
0.0
0
LINE
8
E_BESS
10
305
20
150
30
0.0
11
305
21
180
31
0.0
0
LINE
8
E_BESS
10
305
20
180
30
0.0
11
265
21
180
31
0.0
0
LINE
8
E_BESS
10
265
20
180
30
0.0
11
265
21
150
31
0.0
0
TEXT
8
E_TEXT
10
267
20
175.5
30
0.0
40
2.8
1
STEP 6
7
STANDARD
0
TEXT
8
E_TEXT
10
267
20
171
30
0.0
40
2.6
1
25kvar
7
STANDARD
0
LINE
8
E_CABLES
10
285
20
180
30
0.0
11
210
21
210
31
0.0
0
LINE
8
E_BESS
10
310
20
150
30
0.0
11
350
21
150
31
0.0
0
LINE
8
E_BESS
10
350
20
150
30
0.0
11
350
21
180
31
0.0
0
LINE
8
E_BESS
10
350
20
180
30
0.0
11
310
21
180
31
0.0
0
LINE
8
E_BESS
10
310
20
180
30
0.0
11
310
21
150
31
0.0
0
TEXT
8
E_TEXT
10
312
20
175.5
30
0.0
40
2.8
1
STEP 7
7
STANDARD
0
TEXT
8
E_TEXT
10
312
20
171
30
0.0
40
2.6
1
25kvar
7
STANDARD
0
LINE
8
E_CABLES
10
330
20
180
30
0.0
11
210
21
210
31
0.0
0
LINE
8
E_BESS
10
355
20
150
30
0.0
11
395
21
150
31
0.0
0
LINE
8
E_BESS
10
395
20
150
30
0.0
11
395
21
180
31
0.0
0
LINE
8
E_BESS
10
395
20
180
30
0.0
11
355
21
180
31
0.0
0
LINE
8
E_BESS
10
355
20
180
30
0.0
11
355
21
150
31
0.0
0
TEXT
8
E_TEXT
10
357
20
175.5
30
0.0
40
2.8
1
STEP 8
7
STANDARD
0
TEXT
8
E_TEXT
10
357
20
171
30
0.0
40
2.6
1
25kvar
7
STANDARD
0
LINE
8
E_CABLES
10
375
20
180
30
0.0
11
210
21
210
31
0.0
0
TEXT
8
E_TEXT
10
40
20
120
30
0.0
40
2.8
1
Total 200kvar (8x25kvar), Qc=P(tan f1-tan f2)~183kvar
7
STANDARD
0
TEXT
8
E_DIMENSIONS
10
40
20
108
30
0.0
40
2.6
1
Detuned reactors 7% SELECTED (PV/EV harmonics)
7
STANDARD
0
TEXT
8
E_DIMENSIONS
10
14
20
47
30
0.0
40
2.6
1
NOTES: Automatic capacitor bank at MDB; improves PF 0.90 -> 0.95.
7
STANDARD
0
ENDSEC
0
EOF
