<svg xmlns="http://www.w3.org/2000/svg" width="1800" height="1200" viewBox="0 0 1800 1200">
<rect width="1800" height="1200" fill="white" stroke="#1f2937" stroke-width="6"/>
<defs><marker id="arrow" markerWidth="10" markerHeight="10" refX="9" refY="3" orient="auto" markerUnits="strokeWidth"><path d="M0,0 L0,6 L9,3 z" fill="#1f2937"/></marker></defs>
<rect x="30" y="30" width="1740" height="120" fill="#eef4fb" stroke="#1f4e79" stroke-width="3"/>
<text x="60" y="98" font-family="Arial" font-size="44" fill="#17365d">E-012 BMS EMS Architecture</text>
<text x="1320" y="88" font-family="Arial" font-size="20" fill="#17365d">Final submission | Rev 0 | 2026-06-11</text>
<rect x="110" y="220" width="330" height="130" rx="18" fill="#e8f2ff" stroke="#26374a" stroke-width="3"/>
<text x="128" y="264" font-family="Arial" font-size="24" fill="#111827">EMS Server</text>
<rect x="520" y="220" width="330" height="130" rx="18" fill="#eefcf4" stroke="#26374a" stroke-width="3"/>
<text x="538" y="264" font-family="Arial" font-size="24" fill="#111827">MDB Meters</text>
<rect x="930" y="220" width="330" height="130" rx="18" fill="#fff7e6" stroke="#26374a" stroke-width="3"/>
<text x="948" y="264" font-family="Arial" font-size="24" fill="#111827">Transformer Meters</text>
<rect x="1340" y="220" width="330" height="130" rx="18" fill="#f5efff" stroke="#26374a" stroke-width="3"/>
<text x="1358" y="264" font-family="Arial" font-size="24" fill="#111827">EV DLM</text>
<rect x="110" y="430" width="330" height="130" rx="18" fill="#e8f2ff" stroke="#26374a" stroke-width="3"/>
<text x="128" y="474" font-family="Arial" font-size="24" fill="#111827">PV Controller</text>
<rect x="520" y="430" width="330" height="130" rx="18" fill="#eefcf4" stroke="#26374a" stroke-width="3"/>
<text x="538" y="474" font-family="Arial" font-size="24" fill="#111827">BESS BMS/PCS</text>
<rect x="930" y="430" width="330" height="130" rx="18" fill="#fff7e6" stroke="#26374a" stroke-width="3"/>
<text x="948" y="474" font-family="Arial" font-size="24" fill="#111827">Generator/ATS Status</text>
<rect x="1340" y="430" width="330" height="130" rx="18" fill="#f5efff" stroke="#26374a" stroke-width="3"/>
<text x="1358" y="474" font-family="Arial" font-size="24" fill="#111827">UPS Status</text>
<line x1="440" y1="285.0" x2="520" y2="285.0" stroke="#1f2937" stroke-width="4" marker-end="url(#arrow)"/>
<line x1="440" y1="285.0" x2="930" y2="285.0" stroke="#1f2937" stroke-width="4" marker-end="url(#arrow)"/>
<line x1="440" y1="285.0" x2="1340" y2="285.0" stroke="#1f2937" stroke-width="4" marker-end="url(#arrow)"/>
<line x1="275.0" y1="350" x2="275.0" y2="430" stroke="#1f2937" stroke-width="4" marker-end="url(#arrow)"/>
<line x1="440" y1="285.0" x2="520" y2="495.0" stroke="#1f2937" stroke-width="4" marker-end="url(#arrow)"/>
<line x1="440" y1="285.0" x2="930" y2="495.0" stroke="#1f2937" stroke-width="4" marker-end="url(#arrow)"/>
<line x1="440" y1="285.0" x2="1340" y2="495.0" stroke="#1f2937" stroke-width="4" marker-end="url(#arrow)"/>
<rect x="30" y="980" width="1740" height="170" fill="#fbfbfb" stroke="#9ca3af" stroke-width="2"/>
<text x="55" y="1028" font-family="Arial" font-size="20" fill="#111827">- EMS monitors demand and executes load shedding</text>
<text x="55" y="1066" font-family="Arial" font-size="20" fill="#111827">- Data points include V, I, kW, kVA, kWh, PF, status and alarms</text>
</svg>