<svg xmlns="http://www.w3.org/2000/svg" viewBox="0 0 420 297" width="1680" height="1188">
<rect x="0" y="0" width="420" height="297" fill="white"/>
<line x1="8" y1="289" x2="412" y2="289" stroke="#000000" stroke-width="0.4"/>
<line x1="412" y1="289" x2="412" y2="8" stroke="#000000" stroke-width="0.4"/>
<line x1="412" y1="8" x2="8" y2="8" stroke="#000000" stroke-width="0.4"/>
<line x1="8" y1="8" x2="8" y2="289" stroke="#000000" stroke-width="0.4"/>
<line x1="10" y1="287" x2="410" y2="287" stroke="#000000" stroke-width="0.4"/>
<line x1="410" y1="287" x2="410" y2="10" stroke="#000000" stroke-width="0.4"/>
<line x1="410" y1="10" x2="10" y2="10" stroke="#000000" stroke-width="0.4"/>
<line x1="10" y1="10" x2="10" y2="287" stroke="#000000" stroke-width="0.4"/>
<text x="14" y="16" font-family="Arial" font-size="5.5" fill="#000000">BV-03   Building View - Earthing Bonding</text>
<line x1="12" y1="285" x2="408" y2="285" stroke="#000000" stroke-width="0.4"/>
<line x1="408" y1="285" x2="408" y2="253" stroke="#000000" stroke-width="0.4"/>
<line x1="408" y1="253" x2="12" y2="253" stroke="#000000" stroke-width="0.4"/>
<line x1="12" y1="253" x2="12" y2="285" stroke="#000000" stroke-width="0.4"/>
<line x1="12" y1="265" x2="408" y2="265" stroke="#000000" stroke-width="0.4"/>
<line x1="12" y1="274" x2="408" y2="274" stroke="#000000" stroke-width="0.4"/>
<line x1="290" y1="265" x2="290" y2="274" stroke="#000000" stroke-width="0.4"/>
<line x1="150" y1="285" x2="150" y2="274" stroke="#000000" stroke-width="0.4"/>
<line x1="230" y1="285" x2="230" y2="274" stroke="#000000" stroke-width="0.4"/>
<line x1="300" y1="285" x2="300" y2="274" stroke="#000000" stroke-width="0.4"/>
<line x1="350" y1="285" x2="350" y2="274" stroke="#000000" stroke-width="0.4"/>
<text x="15" y="261.5" font-family="Arial" font-size="3" fill="#000000">PROJECT: Smart Residential Neighborhood - Power Systems (Option B, LV 22/0.4kV)</text>
<text x="305" y="261.5" font-family="Arial" font-size="2.8" fill="#000000">MILESTONE 4 - FINAL</text>
<text x="15" y="271.5" font-family="Arial" font-size="2.8" fill="#000000">DRAWING: Building View - Earthing Bonding</text>
<text x="293" y="271.5" font-family="Arial" font-size="2.8" fill="#000000">DWG No.: BV-03</text>
<text x="15" y="281" font-family="Arial" font-size="2.6" fill="#000000">STUDENT: __________</text>
<text x="153" y="281" font-family="Arial" font-size="2.6" fill="#000000">SUPERVISOR: ______</text>
<text x="233" y="281" font-family="Arial" font-size="2.6" fill="#000000">DATE: 2026-06-11</text>
<text x="303" y="281" font-family="Arial" font-size="2.6" fill="#000000">REV: B FINAL</text>
<text x="353" y="281" font-family="Arial" font-size="2.6" fill="#000000">SCALE: NTS</text>
<line x1="60" y1="237" x2="160" y2="237" stroke="#C00000" stroke-width="0.4"/>
<line x1="160" y1="237" x2="160" y2="42" stroke="#C00000" stroke-width="0.4"/>
<line x1="160" y1="42" x2="60" y2="42" stroke="#C00000" stroke-width="0.4"/>
<line x1="60" y1="42" x2="60" y2="237" stroke="#C00000" stroke-width="0.4"/>
<line x1="60" y1="219" x2="160" y2="219" stroke="#C00000" stroke-width="0.4"/>
<line x1="60" y1="206.36" x2="160" y2="206.36" stroke="#696969" stroke-width="0.4"/>
<line x1="60" y1="193.72" x2="160" y2="193.72" stroke="#696969" stroke-width="0.4"/>
<line x1="60" y1="181.08" x2="160" y2="181.08" stroke="#696969" stroke-width="0.4"/>
<line x1="60" y1="168.44" x2="160" y2="168.44" stroke="#696969" stroke-width="0.4"/>
<line x1="60" y1="155.8" x2="160" y2="155.8" stroke="#696969" stroke-width="0.4"/>
<line x1="60" y1="143.16" x2="160" y2="143.16" stroke="#696969" stroke-width="0.4"/>
<line x1="60" y1="130.52" x2="160" y2="130.52" stroke="#696969" stroke-width="0.4"/>
<line x1="60" y1="117.88" x2="160" y2="117.88" stroke="#696969" stroke-width="0.4"/>
<line x1="60" y1="105.24" x2="160" y2="105.24" stroke="#696969" stroke-width="0.4"/>
<line x1="60" y1="92.6" x2="160" y2="92.6" stroke="#696969" stroke-width="0.4"/>
<line x1="60" y1="79.96" x2="160" y2="79.96" stroke="#696969" stroke-width="0.4"/>
<line x1="60" y1="67.32" x2="160" y2="67.32" stroke="#696969" stroke-width="0.4"/>
<line x1="60" y1="54.68" x2="160" y2="54.68" stroke="#696969" stroke-width="0.4"/>
<line x1="70" y1="42" x2="150" y2="42" stroke="#B8860B" stroke-width="0.4"/>
<line x1="150" y1="42" x2="150" y2="34" stroke="#B8860B" stroke-width="0.4"/>
<line x1="150" y1="34" x2="70" y2="34" stroke="#B8860B" stroke-width="0.4"/>
<line x1="70" y1="34" x2="70" y2="42" stroke="#B8860B" stroke-width="0.4"/>
<text x="72" y="39.8" font-family="Arial" font-size="2.3" fill="#000000">ROOF PV ARRAY (200kWp total)</text>
<text x="62" y="227" font-family="Arial" font-size="2.3" fill="#000000">GROUND FLOOR - technical/public</text>
<text x="62" y="51" font-family="Arial" font-size="2.2" fill="#000000">FLOOR 14</text>
<text x="62" y="216.5" font-family="Arial" font-size="2.2" fill="#000000">FLOOR 1</text>
<text x="60" y="27" font-family="Arial" font-size="3.2" fill="#000000">BUILDING VIEW 3 - EARTHING AND BONDING</text>
<line x1="50" y1="243" x2="170" y2="243" stroke="#C000C0" stroke-width="0.4"/>
<text x="175" y="244" font-family="Arial" font-size="2.3" fill="#C000C0">FOUNDATION EARTH ELECTRODE (target Re &lt;= 1 ohm)</text>
<line x1="110" y1="243" x2="110" y2="235" stroke="#C000C0" stroke-width="0.4"/>
<line x1="95" y1="236" x2="135" y2="236" stroke="#C000C0" stroke-width="0.4"/>
<line x1="135" y1="236" x2="135" y2="223" stroke="#C000C0" stroke-width="0.4"/>
<line x1="135" y1="223" x2="95" y2="223" stroke="#C000C0" stroke-width="0.4"/>
<line x1="95" y1="223" x2="95" y2="236" stroke="#C000C0" stroke-width="0.4"/>
<text x="97" y="227.5" font-family="Arial" font-size="2.8" fill="#000000">MET</text>
<text x="97" y="232" font-family="Arial" font-size="2.6" fill="#000000">main earth bar</text>
<line x1="113" y1="223" x2="113" y2="47" stroke="#C000C0" stroke-width="0.4"/>
<text x="115" y="122" font-family="Arial" font-size="2.3" fill="#C000C0">PE riser (with feeder PE 150mm2)</text>
<circle cx="113" cy="212.68" r="0.8" stroke="#C000C0" stroke-width="0.4" fill="none"/>
<circle cx="113" cy="200.04" r="0.8" stroke="#C000C0" stroke-width="0.4" fill="none"/>
<circle cx="113" cy="187.4" r="0.8" stroke="#C000C0" stroke-width="0.4" fill="none"/>
<circle cx="113" cy="174.76" r="0.8" stroke="#C000C0" stroke-width="0.4" fill="none"/>
<circle cx="113" cy="162.12" r="0.8" stroke="#C000C0" stroke-width="0.4" fill="none"/>
<circle cx="113" cy="149.48" r="0.8" stroke="#C000C0" stroke-width="0.4" fill="none"/>
<circle cx="113" cy="136.84" r="0.8" stroke="#C000C0" stroke-width="0.4" fill="none"/>
<circle cx="113" cy="124.2" r="0.8" stroke="#C000C0" stroke-width="0.4" fill="none"/>
<circle cx="113" cy="111.56" r="0.8" stroke="#C000C0" stroke-width="0.4" fill="none"/>
<circle cx="113" cy="98.92" r="0.8" stroke="#C000C0" stroke-width="0.4" fill="none"/>
<circle cx="113" cy="86.28" r="0.8" stroke="#C000C0" stroke-width="0.4" fill="none"/>
<circle cx="113" cy="73.64" r="0.8" stroke="#C000C0" stroke-width="0.4" fill="none"/>
<circle cx="113" cy="61" r="0.8" stroke="#C000C0" stroke-width="0.4" fill="none"/>
<circle cx="113" cy="48.36" r="0.8" stroke="#C000C0" stroke-width="0.4" fill="none"/>
<text x="130" y="177" font-family="Arial" font-size="2.2" fill="#C000C0">floor PE bond at each floor panel</text>
<line x1="230" y1="207" x2="325" y2="207" stroke="#C000C0" stroke-width="0.4"/>
<line x1="325" y1="207" x2="325" y2="191" stroke="#C000C0" stroke-width="0.4"/>
<line x1="325" y1="191" x2="230" y2="191" stroke="#C000C0" stroke-width="0.4"/>
<line x1="230" y1="191" x2="230" y2="207" stroke="#C000C0" stroke-width="0.4"/>
<text x="232" y="195.5" font-family="Arial" font-size="2.8" fill="#000000">EQUIPOTENTIAL BONDING</text>
<text x="232" y="200" font-family="Arial" font-size="2.6" fill="#000000">water pipe / structure / lift rails</text>
<line x1="160" y1="212" x2="230" y2="200" stroke="#C000C0" stroke-width="0.4"/>
<line x1="230" y1="167" x2="325" y2="167" stroke="#C000C0" stroke-width="0.4"/>
<line x1="325" y1="167" x2="325" y2="151" stroke="#C000C0" stroke-width="0.4"/>
<line x1="325" y1="151" x2="230" y2="151" stroke="#C000C0" stroke-width="0.4"/>
<line x1="230" y1="151" x2="230" y2="167" stroke="#C000C0" stroke-width="0.4"/>
<text x="232" y="155.5" font-family="Arial" font-size="2.8" fill="#000000">BOND 16mm2</text>
<text x="232" y="160" font-family="Arial" font-size="2.6" fill="#000000">PV frames + roof equipment</text>
<line x1="150" y1="40" x2="230" y2="159" stroke="#C000C0" stroke-width="0.4"/>
<line x1="230" y1="127" x2="325" y2="127" stroke="#C000C0" stroke-width="0.4"/>
<line x1="325" y1="127" x2="325" y2="111" stroke="#C000C0" stroke-width="0.4"/>
<line x1="325" y1="111" x2="230" y2="111" stroke="#C000C0" stroke-width="0.4"/>
<line x1="230" y1="111" x2="230" y2="127" stroke="#C000C0" stroke-width="0.4"/>
<text x="232" y="115.5" font-family="Arial" font-size="2.8" fill="#000000">TN-S</text>
<text x="232" y="120" font-family="Arial" font-size="2.6" fill="#000000">N and PE separated from MET</text>
<text x="14" y="250" font-family="Arial" font-size="2.6" fill="#696969">NOTES: Earthing: foundation electrode -&gt; MET -&gt; PE riser -&gt; floor bonds; PV frames bonded; TN-S.</text>
</svg>
