<svg xmlns="http://www.w3.org/2000/svg" viewBox="0 0 420 297" width="1680" height="1188">
<rect x="0" y="0" width="420" height="297" fill="white"/>
<line x1="8" y1="289" x2="412" y2="289" stroke="#000000" stroke-width="0.4"/>
<line x1="412" y1="289" x2="412" y2="8" stroke="#000000" stroke-width="0.4"/>
<line x1="412" y1="8" x2="8" y2="8" stroke="#000000" stroke-width="0.4"/>
<line x1="8" y1="8" x2="8" y2="289" stroke="#000000" stroke-width="0.4"/>
<line x1="10" y1="287" x2="410" y2="287" stroke="#000000" stroke-width="0.4"/>
<line x1="410" y1="287" x2="410" y2="10" stroke="#000000" stroke-width="0.4"/>
<line x1="410" y1="10" x2="10" y2="10" stroke="#000000" stroke-width="0.4"/>
<line x1="10" y1="10" x2="10" y2="287" stroke="#000000" stroke-width="0.4"/>
<text x="14" y="16" font-family="Arial" font-size="5.5" fill="#000000">E-009   PV BESS EV SLD</text>
<line x1="12" y1="285" x2="408" y2="285" stroke="#000000" stroke-width="0.4"/>
<line x1="408" y1="285" x2="408" y2="253" stroke="#000000" stroke-width="0.4"/>
<line x1="408" y1="253" x2="12" y2="253" stroke="#000000" stroke-width="0.4"/>
<line x1="12" y1="253" x2="12" y2="285" stroke="#000000" stroke-width="0.4"/>
<line x1="12" y1="265" x2="408" y2="265" stroke="#000000" stroke-width="0.4"/>
<line x1="12" y1="274" x2="408" y2="274" stroke="#000000" stroke-width="0.4"/>
<line x1="290" y1="265" x2="290" y2="274" stroke="#000000" stroke-width="0.4"/>
<line x1="150" y1="285" x2="150" y2="274" stroke="#000000" stroke-width="0.4"/>
<line x1="230" y1="285" x2="230" y2="274" stroke="#000000" stroke-width="0.4"/>
<line x1="300" y1="285" x2="300" y2="274" stroke="#000000" stroke-width="0.4"/>
<line x1="350" y1="285" x2="350" y2="274" stroke="#000000" stroke-width="0.4"/>
<text x="15" y="261.5" font-family="Arial" font-size="3" fill="#000000">PROJECT: Smart Residential Neighborhood - Power Systems (Option B, LV 22/0.4kV)</text>
<text x="305" y="261.5" font-family="Arial" font-size="2.8" fill="#000000">MILESTONE 4 - FINAL</text>
<text x="15" y="271.5" font-family="Arial" font-size="2.8" fill="#000000">DRAWING: PV BESS EV SLD</text>
<text x="293" y="271.5" font-family="Arial" font-size="2.8" fill="#000000">DWG No.: E-009</text>
<text x="15" y="281" font-family="Arial" font-size="2.6" fill="#000000">STUDENT: __________</text>
<text x="153" y="281" font-family="Arial" font-size="2.6" fill="#000000">SUPERVISOR: ______</text>
<text x="233" y="281" font-family="Arial" font-size="2.6" fill="#000000">DATE: 2026-06-11</text>
<text x="303" y="281" font-family="Arial" font-size="2.6" fill="#000000">REV: B FINAL</text>
<text x="353" y="281" font-family="Arial" font-size="2.6" fill="#000000">SCALE: NTS</text>
<line x1="30" y1="57" x2="90" y2="57" stroke="#B8860B" stroke-width="0.4"/>
<line x1="90" y1="57" x2="90" y2="39" stroke="#B8860B" stroke-width="0.4"/>
<line x1="90" y1="39" x2="30" y2="39" stroke="#B8860B" stroke-width="0.4"/>
<line x1="30" y1="39" x2="30" y2="57" stroke="#B8860B" stroke-width="0.4"/>
<text x="32" y="43.5" font-family="Arial" font-size="2.8" fill="#000000">PV ARRAY</text>
<text x="32" y="48" font-family="Arial" font-size="2.6" fill="#000000">200kWp</text>
<line x1="30" y1="92" x2="90" y2="92" stroke="#B8860B" stroke-width="0.4"/>
<line x1="90" y1="92" x2="90" y2="76" stroke="#B8860B" stroke-width="0.4"/>
<line x1="90" y1="76" x2="30" y2="76" stroke="#B8860B" stroke-width="0.4"/>
<line x1="30" y1="76" x2="30" y2="92" stroke="#B8860B" stroke-width="0.4"/>
<text x="32" y="80.5" font-family="Arial" font-size="2.8" fill="#000000">INVERTER</text>
<text x="32" y="85" font-family="Arial" font-size="2.6" fill="#000000">4x50kW</text>
<line x1="30" y1="125" x2="90" y2="125" stroke="#B8860B" stroke-width="0.4"/>
<line x1="90" y1="125" x2="90" y2="109" stroke="#B8860B" stroke-width="0.4"/>
<line x1="90" y1="109" x2="30" y2="109" stroke="#B8860B" stroke-width="0.4"/>
<line x1="30" y1="109" x2="30" y2="125" stroke="#B8860B" stroke-width="0.4"/>
<text x="32" y="113.5" font-family="Arial" font-size="2.8" fill="#000000">PV PANEL</text>
<text x="32" y="118" font-family="Arial" font-size="2.6" fill="#000000">MCCB+SPD</text>
<line x1="60" y1="57" x2="60" y2="76" stroke="#007000" stroke-width="0.4"/>
<line x1="60" y1="92" x2="60" y2="109" stroke="#007000" stroke-width="0.4"/>
<line x1="165" y1="57" x2="235" y2="57" stroke="#008080" stroke-width="0.4"/>
<line x1="235" y1="57" x2="235" y2="39" stroke="#008080" stroke-width="0.4"/>
<line x1="235" y1="39" x2="165" y2="39" stroke="#008080" stroke-width="0.4"/>
<line x1="165" y1="39" x2="165" y2="57" stroke="#008080" stroke-width="0.4"/>
<text x="167" y="43.5" font-family="Arial" font-size="2.8" fill="#000000">BESS 250kW</text>
<text x="167" y="48" font-family="Arial" font-size="2.6" fill="#000000">500kWh (2h)</text>
<line x1="165" y1="92" x2="235" y2="92" stroke="#008080" stroke-width="0.4"/>
<line x1="235" y1="92" x2="235" y2="76" stroke="#008080" stroke-width="0.4"/>
<line x1="235" y1="76" x2="165" y2="76" stroke="#008080" stroke-width="0.4"/>
<line x1="165" y1="76" x2="165" y2="92" stroke="#008080" stroke-width="0.4"/>
<text x="167" y="80.5" font-family="Arial" font-size="2.8" fill="#000000">PCS / INVERTER</text>
<text x="167" y="85" font-family="Arial" font-size="2.6" fill="#000000">interlock</text>
<line x1="165" y1="125" x2="235" y2="125" stroke="#008080" stroke-width="0.4"/>
<line x1="235" y1="125" x2="235" y2="109" stroke="#008080" stroke-width="0.4"/>
<line x1="235" y1="109" x2="165" y2="109" stroke="#008080" stroke-width="0.4"/>
<line x1="165" y1="109" x2="165" y2="125" stroke="#008080" stroke-width="0.4"/>
<text x="167" y="113.5" font-family="Arial" font-size="2.8" fill="#000000">BESS PANEL</text>
<text x="167" y="118" font-family="Arial" font-size="2.6" fill="#000000">MCCB+SPD</text>
<line x1="200" y1="57" x2="200" y2="76" stroke="#007000" stroke-width="0.4"/>
<line x1="200" y1="92" x2="200" y2="109" stroke="#007000" stroke-width="0.4"/>
<line x1="310" y1="57" x2="380" y2="57" stroke="#008B8B" stroke-width="0.4"/>
<line x1="380" y1="57" x2="380" y2="39" stroke="#008B8B" stroke-width="0.4"/>
<line x1="380" y1="39" x2="310" y2="39" stroke="#008B8B" stroke-width="0.4"/>
<line x1="310" y1="39" x2="310" y2="57" stroke="#008B8B" stroke-width="0.4"/>
<text x="312" y="43.5" font-family="Arial" font-size="2.8" fill="#000000">EV 30x11kW</text>
<text x="312" y="48" font-family="Arial" font-size="2.6" fill="#000000">installed 330kW</text>
<line x1="310" y1="92" x2="380" y2="92" stroke="#008B8B" stroke-width="0.4"/>
<line x1="380" y1="92" x2="380" y2="76" stroke="#008B8B" stroke-width="0.4"/>
<line x1="380" y1="76" x2="310" y2="76" stroke="#008B8B" stroke-width="0.4"/>
<line x1="310" y1="76" x2="310" y2="92" stroke="#008B8B" stroke-width="0.4"/>
<text x="312" y="80.5" font-family="Arial" font-size="2.8" fill="#000000">EV PANEL</text>
<text x="312" y="85" font-family="Arial" font-size="2.6" fill="#000000">MCCB 250A / DLM</text>
<line x1="310" y1="125" x2="380" y2="125" stroke="#008B8B" stroke-width="0.4"/>
<line x1="380" y1="125" x2="380" y2="109" stroke="#008B8B" stroke-width="0.4"/>
<line x1="380" y1="109" x2="310" y2="109" stroke="#008B8B" stroke-width="0.4"/>
<line x1="310" y1="109" x2="310" y2="125" stroke="#008B8B" stroke-width="0.4"/>
<text x="312" y="113.5" font-family="Arial" font-size="2.8" fill="#000000">managed 115.5kW</text>
<text x="312" y="118" font-family="Arial" font-size="2.6" fill="#000000">DLM 0.35</text>
<line x1="345" y1="57" x2="345" y2="76" stroke="#007000" stroke-width="0.4"/>
<line x1="345" y1="92" x2="345" y2="109" stroke="#007000" stroke-width="0.4"/>
<line x1="30" y1="157" x2="380" y2="157" stroke="#C00000" stroke-width="0.4"/>
<line x1="380" y1="157" x2="380" y2="145" stroke="#C00000" stroke-width="0.4"/>
<line x1="380" y1="145" x2="30" y2="145" stroke="#C00000" stroke-width="0.4"/>
<line x1="30" y1="145" x2="30" y2="157" stroke="#C00000" stroke-width="0.4"/>
<text x="150" y="154" font-family="Arial" font-size="3" fill="#C00000">MDB 2500A / Icw 65kA</text>
<line x1="60" y1="125" x2="60" y2="145" stroke="#007000" stroke-width="0.4"/>
<line x1="200" y1="125" x2="200" y2="145" stroke="#007000" stroke-width="0.4"/>
<line x1="345" y1="125" x2="345" y2="145" stroke="#007000" stroke-width="0.4"/>
<text x="14" y="250" font-family="Arial" font-size="2.6" fill="#696969">NOTES: PV/BESS/EV integrated; no transformer downsizing. Anti-islanding + EMS interlock vs generator.</text>
</svg>
