<svg xmlns="http://www.w3.org/2000/svg" viewBox="0 0 420 297" width="1680" height="1188">
<rect x="0" y="0" width="420" height="297" fill="white"/>
<line x1="8" y1="289" x2="412" y2="289" stroke="#000000" stroke-width="0.4"/>
<line x1="412" y1="289" x2="412" y2="8" stroke="#000000" stroke-width="0.4"/>
<line x1="412" y1="8" x2="8" y2="8" stroke="#000000" stroke-width="0.4"/>
<line x1="8" y1="8" x2="8" y2="289" stroke="#000000" stroke-width="0.4"/>
<line x1="10" y1="287" x2="410" y2="287" stroke="#000000" stroke-width="0.4"/>
<line x1="410" y1="287" x2="410" y2="10" stroke="#000000" stroke-width="0.4"/>
<line x1="410" y1="10" x2="10" y2="10" stroke="#000000" stroke-width="0.4"/>
<line x1="10" y1="10" x2="10" y2="287" stroke="#000000" stroke-width="0.4"/>
<text x="14" y="16" font-family="Arial" font-size="5.5" fill="#000000">E-006   Underground Cable Routes</text>
<line x1="12" y1="285" x2="408" y2="285" stroke="#000000" stroke-width="0.4"/>
<line x1="408" y1="285" x2="408" y2="253" stroke="#000000" stroke-width="0.4"/>
<line x1="408" y1="253" x2="12" y2="253" stroke="#000000" stroke-width="0.4"/>
<line x1="12" y1="253" x2="12" y2="285" stroke="#000000" stroke-width="0.4"/>
<line x1="12" y1="265" x2="408" y2="265" stroke="#000000" stroke-width="0.4"/>
<line x1="12" y1="274" x2="408" y2="274" stroke="#000000" stroke-width="0.4"/>
<line x1="290" y1="265" x2="290" y2="274" stroke="#000000" stroke-width="0.4"/>
<line x1="150" y1="285" x2="150" y2="274" stroke="#000000" stroke-width="0.4"/>
<line x1="230" y1="285" x2="230" y2="274" stroke="#000000" stroke-width="0.4"/>
<line x1="300" y1="285" x2="300" y2="274" stroke="#000000" stroke-width="0.4"/>
<line x1="350" y1="285" x2="350" y2="274" stroke="#000000" stroke-width="0.4"/>
<text x="15" y="261.5" font-family="Arial" font-size="3" fill="#000000">PROJECT: Smart Residential Neighborhood - Power Systems (Option B, LV 22/0.4kV)</text>
<text x="305" y="261.5" font-family="Arial" font-size="2.8" fill="#000000">MILESTONE 4 - FINAL</text>
<text x="15" y="271.5" font-family="Arial" font-size="2.8" fill="#000000">DRAWING: Underground Cable Routes</text>
<text x="293" y="271.5" font-family="Arial" font-size="2.8" fill="#000000">DWG No.: E-006</text>
<text x="15" y="281" font-family="Arial" font-size="2.6" fill="#000000">STUDENT: __________</text>
<text x="153" y="281" font-family="Arial" font-size="2.6" fill="#000000">SUPERVISOR: ______</text>
<text x="233" y="281" font-family="Arial" font-size="2.6" fill="#000000">DATE: 2026-06-11</text>
<text x="303" y="281" font-family="Arial" font-size="2.6" fill="#000000">REV: B FINAL</text>
<text x="353" y="281" font-family="Arial" font-size="2.6" fill="#000000">SCALE: NTS</text>
<line x1="175" y1="227" x2="245" y2="227" stroke="#696969" stroke-width="0.4"/>
<line x1="245" y1="227" x2="245" y2="192" stroke="#696969" stroke-width="0.4"/>
<line x1="245" y1="192" x2="175" y2="192" stroke="#696969" stroke-width="0.4"/>
<line x1="175" y1="192" x2="175" y2="227" stroke="#696969" stroke-width="0.4"/>
<text x="182" y="209" font-family="Arial" font-size="2.8" fill="#000000">TX ROOM / MDB</text>
<line x1="210" y1="192" x2="80" y2="67" stroke="#007000" stroke-width="0.4"/>
<text x="120" y="122" font-family="Arial" font-size="2.6" fill="#007000">A: 2x(4x300) Cu, 40m</text>
<line x1="210" y1="192" x2="210" y2="67" stroke="#007000" stroke-width="0.4"/>
<text x="213" y="122" font-family="Arial" font-size="2.6" fill="#007000">B: 2x(4x300) Cu, 70m</text>
<line x1="210" y1="192" x2="340" y2="67" stroke="#007000" stroke-width="0.4"/>
<text x="280" y="122" font-family="Arial" font-size="2.6" fill="#007000">C: 2x(4x300) Cu, 100m</text>
<line x1="60" y1="67" x2="110" y2="67" stroke="#0000C0" stroke-width="0.4"/>
<line x1="110" y1="67" x2="110" y2="53" stroke="#0000C0" stroke-width="0.4"/>
<line x1="110" y1="53" x2="60" y2="53" stroke="#0000C0" stroke-width="0.4"/>
<line x1="60" y1="53" x2="60" y2="67" stroke="#0000C0" stroke-width="0.4"/>
<text x="62" y="57.5" font-family="Arial" font-size="2.8" fill="#000000">BLDG A</text>
<line x1="185" y1="67" x2="235" y2="67" stroke="#0000C0" stroke-width="0.4"/>
<line x1="235" y1="67" x2="235" y2="53" stroke="#0000C0" stroke-width="0.4"/>
<line x1="235" y1="53" x2="185" y2="53" stroke="#0000C0" stroke-width="0.4"/>
<line x1="185" y1="53" x2="185" y2="67" stroke="#0000C0" stroke-width="0.4"/>
<text x="187" y="57.5" font-family="Arial" font-size="2.8" fill="#000000">BLDG B</text>
<line x1="315" y1="67" x2="365" y2="67" stroke="#0000C0" stroke-width="0.4"/>
<line x1="365" y1="67" x2="365" y2="53" stroke="#0000C0" stroke-width="0.4"/>
<line x1="365" y1="53" x2="315" y2="53" stroke="#0000C0" stroke-width="0.4"/>
<line x1="315" y1="53" x2="315" y2="67" stroke="#0000C0" stroke-width="0.4"/>
<text x="317" y="57.5" font-family="Arial" font-size="2.8" fill="#000000">BLDG C</text>
<text x="40" y="177" font-family="Arial" font-size="2.6" fill="#696969">Trench: sand bed + warning tape + ducts, depth &gt;=0.8m</text>
<text x="14" y="250" font-family="Arial" font-size="2.6" fill="#696969">NOTES: Cable routes and sections per voltage-drop and short-circuit checks.</text>
</svg>
