<svg xmlns="http://www.w3.org/2000/svg" viewBox="0 0 420 297" width="1680" height="1188">
<rect x="0" y="0" width="420" height="297" fill="white"/>
<line x1="8" y1="289" x2="412" y2="289" stroke="#000000" stroke-width="0.4"/>
<line x1="412" y1="289" x2="412" y2="8" stroke="#000000" stroke-width="0.4"/>
<line x1="412" y1="8" x2="8" y2="8" stroke="#000000" stroke-width="0.4"/>
<line x1="8" y1="8" x2="8" y2="289" stroke="#000000" stroke-width="0.4"/>
<line x1="10" y1="287" x2="410" y2="287" stroke="#000000" stroke-width="0.4"/>
<line x1="410" y1="287" x2="410" y2="10" stroke="#000000" stroke-width="0.4"/>
<line x1="410" y1="10" x2="10" y2="10" stroke="#000000" stroke-width="0.4"/>
<line x1="10" y1="10" x2="10" y2="287" stroke="#000000" stroke-width="0.4"/>
<text x="14" y="16" font-family="Arial" font-size="5.5" fill="#000000">E-007   Transformer Room Layout</text>
<line x1="12" y1="285" x2="408" y2="285" stroke="#000000" stroke-width="0.4"/>
<line x1="408" y1="285" x2="408" y2="253" stroke="#000000" stroke-width="0.4"/>
<line x1="408" y1="253" x2="12" y2="253" stroke="#000000" stroke-width="0.4"/>
<line x1="12" y1="253" x2="12" y2="285" stroke="#000000" stroke-width="0.4"/>
<line x1="12" y1="265" x2="408" y2="265" stroke="#000000" stroke-width="0.4"/>
<line x1="12" y1="274" x2="408" y2="274" stroke="#000000" stroke-width="0.4"/>
<line x1="290" y1="265" x2="290" y2="274" stroke="#000000" stroke-width="0.4"/>
<line x1="150" y1="285" x2="150" y2="274" stroke="#000000" stroke-width="0.4"/>
<line x1="230" y1="285" x2="230" y2="274" stroke="#000000" stroke-width="0.4"/>
<line x1="300" y1="285" x2="300" y2="274" stroke="#000000" stroke-width="0.4"/>
<line x1="350" y1="285" x2="350" y2="274" stroke="#000000" stroke-width="0.4"/>
<text x="15" y="261.5" font-family="Arial" font-size="3" fill="#000000">PROJECT: Smart Residential Neighborhood - Power Systems (Option B, LV 22/0.4kV)</text>
<text x="305" y="261.5" font-family="Arial" font-size="2.8" fill="#000000">MILESTONE 4 - FINAL</text>
<text x="15" y="271.5" font-family="Arial" font-size="2.8" fill="#000000">DRAWING: Transformer Room Layout</text>
<text x="293" y="271.5" font-family="Arial" font-size="2.8" fill="#000000">DWG No.: E-007</text>
<text x="15" y="281" font-family="Arial" font-size="2.6" fill="#000000">STUDENT: __________</text>
<text x="153" y="281" font-family="Arial" font-size="2.6" fill="#000000">SUPERVISOR: ______</text>
<text x="233" y="281" font-family="Arial" font-size="2.6" fill="#000000">DATE: 2026-06-11</text>
<text x="303" y="281" font-family="Arial" font-size="2.6" fill="#000000">REV: B FINAL</text>
<text x="353" y="281" font-family="Arial" font-size="2.6" fill="#000000">SCALE: NTS</text>
<line x1="30" y1="227" x2="390" y2="227" stroke="#C00000" stroke-width="0.4"/>
<line x1="390" y1="227" x2="390" y2="27" stroke="#C00000" stroke-width="0.4"/>
<line x1="390" y1="27" x2="30" y2="27" stroke="#C00000" stroke-width="0.4"/>
<line x1="30" y1="27" x2="30" y2="227" stroke="#C00000" stroke-width="0.4"/>
<text x="150" y="35" font-family="Arial" font-size="3" fill="#C00000">TRANSFORMER ROOM 22/0.4kV</text>
<line x1="60" y1="97" x2="130" y2="97" stroke="#C00000" stroke-width="0.4"/>
<line x1="130" y1="97" x2="130" y2="57" stroke="#C00000" stroke-width="0.4"/>
<line x1="130" y1="57" x2="60" y2="57" stroke="#C00000" stroke-width="0.4"/>
<line x1="60" y1="57" x2="60" y2="97" stroke="#C00000" stroke-width="0.4"/>
<text x="62" y="61.5" font-family="Arial" font-size="2.8" fill="#000000">RMU 22kV</text>
<text x="62" y="66" font-family="Arial" font-size="2.6" fill="#000000">ring main unit</text>
<line x1="150" y1="147" x2="220" y2="147" stroke="#C00000" stroke-width="0.4"/>
<line x1="220" y1="147" x2="220" y2="97" stroke="#C00000" stroke-width="0.4"/>
<line x1="220" y1="97" x2="150" y2="97" stroke="#C00000" stroke-width="0.4"/>
<line x1="150" y1="97" x2="150" y2="147" stroke="#C00000" stroke-width="0.4"/>
<text x="152" y="101.5" font-family="Arial" font-size="2.8" fill="#000000">TR-1 1000kVA</text>
<text x="152" y="106" font-family="Arial" font-size="2.6" fill="#000000">22/0.4kV Dyn11</text>
<line x1="240" y1="147" x2="310" y2="147" stroke="#C00000" stroke-width="0.4"/>
<line x1="310" y1="147" x2="310" y2="97" stroke="#C00000" stroke-width="0.4"/>
<line x1="310" y1="97" x2="240" y2="97" stroke="#C00000" stroke-width="0.4"/>
<line x1="240" y1="97" x2="240" y2="147" stroke="#C00000" stroke-width="0.4"/>
<text x="242" y="101.5" font-family="Arial" font-size="2.8" fill="#000000">TR-2 1000kVA</text>
<text x="242" y="106" font-family="Arial" font-size="2.6" fill="#000000">22/0.4kV Dyn11</text>
<line x1="150" y1="207" x2="310" y2="207" stroke="#0000C0" stroke-width="0.4"/>
<line x1="310" y1="207" x2="310" y2="177" stroke="#0000C0" stroke-width="0.4"/>
<line x1="310" y1="177" x2="150" y2="177" stroke="#0000C0" stroke-width="0.4"/>
<line x1="150" y1="177" x2="150" y2="207" stroke="#0000C0" stroke-width="0.4"/>
<text x="152" y="181.5" font-family="Arial" font-size="2.8" fill="#000000">MDB 2500A / Icw 65kA</text>
<text x="152" y="186" font-family="Arial" font-size="2.6" fill="#000000">two-section</text>
<line x1="95" y1="97" x2="185" y2="97" stroke="#007000" stroke-width="0.4"/>
<line x1="185" y1="147" x2="185" y2="177" stroke="#007000" stroke-width="0.4"/>
<line x1="275" y1="147" x2="275" y2="177" stroke="#007000" stroke-width="0.4"/>
<text x="14" y="250" font-family="Arial" font-size="2.6" fill="#696969">NOTES: MV via RMU; 2 transformers feed the two-section MDB. Earthing pit TN-S.</text>
</svg>
