<svg xmlns="http://www.w3.org/2000/svg" viewBox="0 0 420 297" width="1680" height="1188">
<rect x="0" y="0" width="420" height="297" fill="white"/>
<line x1="8" y1="289" x2="412" y2="289" stroke="#000000" stroke-width="0.4"/>
<line x1="412" y1="289" x2="412" y2="8" stroke="#000000" stroke-width="0.4"/>
<line x1="412" y1="8" x2="8" y2="8" stroke="#000000" stroke-width="0.4"/>
<line x1="8" y1="8" x2="8" y2="289" stroke="#000000" stroke-width="0.4"/>
<line x1="10" y1="287" x2="410" y2="287" stroke="#000000" stroke-width="0.4"/>
<line x1="410" y1="287" x2="410" y2="10" stroke="#000000" stroke-width="0.4"/>
<line x1="410" y1="10" x2="10" y2="10" stroke="#000000" stroke-width="0.4"/>
<line x1="10" y1="10" x2="10" y2="287" stroke="#000000" stroke-width="0.4"/>
<text x="14" y="16" font-family="Arial" font-size="5.5" fill="#000000">E-001   Main SLD - Neighborhood</text>
<line x1="12" y1="285" x2="408" y2="285" stroke="#000000" stroke-width="0.4"/>
<line x1="408" y1="285" x2="408" y2="253" stroke="#000000" stroke-width="0.4"/>
<line x1="408" y1="253" x2="12" y2="253" stroke="#000000" stroke-width="0.4"/>
<line x1="12" y1="253" x2="12" y2="285" stroke="#000000" stroke-width="0.4"/>
<line x1="12" y1="265" x2="408" y2="265" stroke="#000000" stroke-width="0.4"/>
<line x1="12" y1="274" x2="408" y2="274" stroke="#000000" stroke-width="0.4"/>
<line x1="290" y1="265" x2="290" y2="274" stroke="#000000" stroke-width="0.4"/>
<line x1="150" y1="285" x2="150" y2="274" stroke="#000000" stroke-width="0.4"/>
<line x1="230" y1="285" x2="230" y2="274" stroke="#000000" stroke-width="0.4"/>
<line x1="300" y1="285" x2="300" y2="274" stroke="#000000" stroke-width="0.4"/>
<line x1="350" y1="285" x2="350" y2="274" stroke="#000000" stroke-width="0.4"/>
<text x="15" y="261.5" font-family="Arial" font-size="3" fill="#000000">PROJECT: Smart Residential Neighborhood - Power Systems (Option B, LV 22/0.4kV)</text>
<text x="305" y="261.5" font-family="Arial" font-size="2.8" fill="#000000">MILESTONE 4 - FINAL</text>
<text x="15" y="271.5" font-family="Arial" font-size="2.8" fill="#000000">DRAWING: Main SLD - Neighborhood</text>
<text x="293" y="271.5" font-family="Arial" font-size="2.8" fill="#000000">DWG No.: E-001</text>
<text x="15" y="281" font-family="Arial" font-size="2.6" fill="#000000">STUDENT: __________</text>
<text x="153" y="281" font-family="Arial" font-size="2.6" fill="#000000">SUPERVISOR: ______</text>
<text x="233" y="281" font-family="Arial" font-size="2.6" fill="#000000">DATE: 2026-06-11</text>
<text x="303" y="281" font-family="Arial" font-size="2.6" fill="#000000">REV: B FINAL</text>
<text x="353" y="281" font-family="Arial" font-size="2.6" fill="#000000">SCALE: NTS</text>
<text x="200" y="27" font-family="Arial" font-size="3.2" fill="#C00000">22kV NETWORK SUPPLY (incoming MV)</text>
<line x1="120" y1="29" x2="120" y2="39" stroke="#C00000" stroke-width="0.4"/>
<line x1="300" y1="29" x2="300" y2="39" stroke="#C00000" stroke-width="0.4"/>
<line x1="95" y1="57" x2="150" y2="57" stroke="#C00000" stroke-width="0.4"/>
<line x1="150" y1="57" x2="150" y2="39" stroke="#C00000" stroke-width="0.4"/>
<line x1="150" y1="39" x2="95" y2="39" stroke="#C00000" stroke-width="0.4"/>
<line x1="95" y1="39" x2="95" y2="57" stroke="#C00000" stroke-width="0.4"/>
<text x="97" y="43.5" font-family="Arial" font-size="2.8" fill="#000000">TR-1  22/0.4kV</text>
<text x="97" y="48" font-family="Arial" font-size="2.6" fill="#000000">1000kVA  Dyn11</text>
<line x1="275" y1="57" x2="330" y2="57" stroke="#C00000" stroke-width="0.4"/>
<line x1="330" y1="57" x2="330" y2="39" stroke="#C00000" stroke-width="0.4"/>
<line x1="330" y1="39" x2="275" y2="39" stroke="#C00000" stroke-width="0.4"/>
<line x1="275" y1="39" x2="275" y2="57" stroke="#C00000" stroke-width="0.4"/>
<text x="277" y="43.5" font-family="Arial" font-size="2.8" fill="#000000">TR-2  22/0.4kV</text>
<text x="277" y="48" font-family="Arial" font-size="2.6" fill="#000000">1000kVA  Dyn11</text>
<line x1="122" y1="57" x2="122" y2="72" stroke="#0000C0" stroke-width="0.4"/>
<line x1="302" y1="57" x2="302" y2="72" stroke="#0000C0" stroke-width="0.4"/>
<line x1="100" y1="85" x2="148" y2="85" stroke="#E07000" stroke-width="0.4"/>
<line x1="148" y1="85" x2="148" y2="72" stroke="#E07000" stroke-width="0.4"/>
<line x1="148" y1="72" x2="100" y2="72" stroke="#E07000" stroke-width="0.4"/>
<line x1="100" y1="72" x2="100" y2="85" stroke="#E07000" stroke-width="0.4"/>
<text x="102" y="76.5" font-family="Arial" font-size="2.8" fill="#000000">ACB 1600A</text>
<text x="102" y="81" font-family="Arial" font-size="2.6" fill="#000000">Icu/Ics 65kA</text>
<line x1="282" y1="85" x2="330" y2="85" stroke="#E07000" stroke-width="0.4"/>
<line x1="330" y1="85" x2="330" y2="72" stroke="#E07000" stroke-width="0.4"/>
<line x1="330" y1="72" x2="282" y2="72" stroke="#E07000" stroke-width="0.4"/>
<line x1="282" y1="72" x2="282" y2="85" stroke="#E07000" stroke-width="0.4"/>
<text x="284" y="76.5" font-family="Arial" font-size="2.8" fill="#000000">ACB 1600A</text>
<text x="284" y="81" font-family="Arial" font-size="2.6" fill="#000000">Icu/Ics 65kA</text>
<line x1="70" y1="102" x2="370" y2="102" stroke="#C00000" stroke-width="0.4"/>
<line x1="370" y1="102" x2="370" y2="90" stroke="#C00000" stroke-width="0.4"/>
<line x1="370" y1="90" x2="70" y2="90" stroke="#C00000" stroke-width="0.4"/>
<line x1="70" y1="90" x2="70" y2="102" stroke="#C00000" stroke-width="0.4"/>
<text x="150" y="99" font-family="Arial" font-size="3" fill="#C00000">MDB BUSBAR 2500A / Icw 65kA 1s  (TN-S)</text>
<line x1="200" y1="101" x2="240" y2="101" stroke="#E07000" stroke-width="0.4"/>
<line x1="240" y1="101" x2="240" y2="91" stroke="#E07000" stroke-width="0.4"/>
<line x1="240" y1="91" x2="200" y2="91" stroke="#E07000" stroke-width="0.4"/>
<line x1="200" y1="91" x2="200" y2="101" stroke="#E07000" stroke-width="0.4"/>
<text x="202" y="95.5" font-family="Arial" font-size="2.8" fill="#000000">BUS-TIE 1600A</text>
<line x1="70" y1="132" x2="110" y2="132" stroke="#0000C0" stroke-width="0.4"/>
<line x1="110" y1="132" x2="110" y2="116" stroke="#0000C0" stroke-width="0.4"/>
<line x1="110" y1="116" x2="70" y2="116" stroke="#0000C0" stroke-width="0.4"/>
<line x1="70" y1="116" x2="70" y2="132" stroke="#0000C0" stroke-width="0.4"/>
<text x="72" y="120.5" font-family="Arial" font-size="2.8" fill="#000000">BLDG A</text>
<text x="72" y="125" font-family="Arial" font-size="2.6" fill="#000000">MCCB 800A</text>
<line x1="120" y1="132" x2="160" y2="132" stroke="#0000C0" stroke-width="0.4"/>
<line x1="160" y1="132" x2="160" y2="116" stroke="#0000C0" stroke-width="0.4"/>
<line x1="160" y1="116" x2="120" y2="116" stroke="#0000C0" stroke-width="0.4"/>
<line x1="120" y1="116" x2="120" y2="132" stroke="#0000C0" stroke-width="0.4"/>
<text x="122" y="120.5" font-family="Arial" font-size="2.8" fill="#000000">BLDG B</text>
<text x="122" y="125" font-family="Arial" font-size="2.6" fill="#000000">MCCB 800A</text>
<line x1="170" y1="132" x2="210" y2="132" stroke="#0000C0" stroke-width="0.4"/>
<line x1="210" y1="132" x2="210" y2="116" stroke="#0000C0" stroke-width="0.4"/>
<line x1="210" y1="116" x2="170" y2="116" stroke="#0000C0" stroke-width="0.4"/>
<line x1="170" y1="116" x2="170" y2="132" stroke="#0000C0" stroke-width="0.4"/>
<text x="172" y="120.5" font-family="Arial" font-size="2.8" fill="#000000">BLDG C</text>
<text x="172" y="125" font-family="Arial" font-size="2.6" fill="#000000">MCCB 800A</text>
<line x1="220" y1="132" x2="260" y2="132" stroke="#008B8B" stroke-width="0.4"/>
<line x1="260" y1="132" x2="260" y2="116" stroke="#008B8B" stroke-width="0.4"/>
<line x1="260" y1="116" x2="220" y2="116" stroke="#008B8B" stroke-width="0.4"/>
<line x1="220" y1="116" x2="220" y2="132" stroke="#008B8B" stroke-width="0.4"/>
<text x="222" y="120.5" font-family="Arial" font-size="2.8" fill="#000000">EV PANEL</text>
<text x="222" y="125" font-family="Arial" font-size="2.6" fill="#000000">MCCB 250A</text>
<line x1="270" y1="132" x2="315" y2="132" stroke="#B8860B" stroke-width="0.4"/>
<line x1="315" y1="132" x2="315" y2="116" stroke="#B8860B" stroke-width="0.4"/>
<line x1="315" y1="116" x2="270" y2="116" stroke="#B8860B" stroke-width="0.4"/>
<line x1="270" y1="116" x2="270" y2="132" stroke="#B8860B" stroke-width="0.4"/>
<text x="272" y="120.5" font-family="Arial" font-size="2.8" fill="#000000">PV/BESS</text>
<text x="272" y="125" font-family="Arial" font-size="2.6" fill="#000000">MCCB 400A</text>
<line x1="325" y1="132" x2="370" y2="132" stroke="#696969" stroke-width="0.4"/>
<line x1="370" y1="132" x2="370" y2="116" stroke="#696969" stroke-width="0.4"/>
<line x1="370" y1="116" x2="325" y2="116" stroke="#696969" stroke-width="0.4"/>
<line x1="325" y1="116" x2="325" y2="132" stroke="#696969" stroke-width="0.4"/>
<text x="327" y="120.5" font-family="Arial" font-size="2.8" fill="#000000">GEN/ATS</text>
<text x="327" y="125" font-family="Arial" font-size="2.6" fill="#000000">300kVA</text>
<line x1="90" y1="102" x2="90" y2="116" stroke="#007000" stroke-width="0.4"/>
<line x1="140" y1="102" x2="140" y2="116" stroke="#007000" stroke-width="0.4"/>
<line x1="190" y1="102" x2="190" y2="116" stroke="#007000" stroke-width="0.4"/>
<line x1="240" y1="102" x2="240" y2="116" stroke="#007000" stroke-width="0.4"/>
<line x1="292" y1="102" x2="292" y2="116" stroke="#007000" stroke-width="0.4"/>
<line x1="347" y1="102" x2="347" y2="116" stroke="#007000" stroke-width="0.4"/>
<line x1="70" y1="157" x2="130" y2="157" stroke="#696969" stroke-width="0.4"/>
<line x1="130" y1="157" x2="130" y2="143" stroke="#696969" stroke-width="0.4"/>
<line x1="130" y1="143" x2="70" y2="143" stroke="#696969" stroke-width="0.4"/>
<line x1="70" y1="143" x2="70" y2="157" stroke="#696969" stroke-width="0.4"/>
<text x="72" y="147.5" font-family="Arial" font-size="2.8" fill="#000000">UPS 20kVA/8.75kWh</text>
<text x="72" y="152" font-family="Arial" font-size="2.6" fill="#000000">critical loads</text>
<line x1="140" y1="157" x2="200" y2="157" stroke="#E07000" stroke-width="0.4"/>
<line x1="200" y1="157" x2="200" y2="143" stroke="#E07000" stroke-width="0.4"/>
<line x1="200" y1="143" x2="140" y2="143" stroke="#E07000" stroke-width="0.4"/>
<line x1="140" y1="143" x2="140" y2="157" stroke="#E07000" stroke-width="0.4"/>
<text x="142" y="147.5" font-family="Arial" font-size="2.8" fill="#000000">PUBLIC PANEL</text>
<text x="142" y="152" font-family="Arial" font-size="2.6" fill="#000000">MCB 32A (23A)</text>
<line x1="210" y1="157" x2="270" y2="157" stroke="#E07000" stroke-width="0.4"/>
<line x1="270" y1="157" x2="270" y2="143" stroke="#E07000" stroke-width="0.4"/>
<line x1="270" y1="143" x2="210" y2="143" stroke="#E07000" stroke-width="0.4"/>
<line x1="210" y1="143" x2="210" y2="157" stroke="#E07000" stroke-width="0.4"/>
<text x="212" y="147.5" font-family="Arial" font-size="2.8" fill="#000000">CAP BANK 200kvar</text>
<text x="212" y="152" font-family="Arial" font-size="2.6" fill="#000000">detuned 7%, 0.90-&gt;0.95</text>
<text x="14" y="250" font-family="Arial" font-size="2.6" fill="#696969">NOTES: Demand 1312.7kVA(practical)/1603.7kVA(conservative); loading 65.6%/80.2%. Earthing TN-S.</text>
</svg>
