<svg xmlns="http://www.w3.org/2000/svg" viewBox="0 0 420 297" width="1680" height="1188">
<rect x="0" y="0" width="420" height="297" fill="white"/>
<line x1="8" y1="289" x2="412" y2="289" stroke="#000000" stroke-width="0.4"/>
<line x1="412" y1="289" x2="412" y2="8" stroke="#000000" stroke-width="0.4"/>
<line x1="412" y1="8" x2="8" y2="8" stroke="#000000" stroke-width="0.4"/>
<line x1="8" y1="8" x2="8" y2="289" stroke="#000000" stroke-width="0.4"/>
<line x1="10" y1="287" x2="410" y2="287" stroke="#000000" stroke-width="0.4"/>
<line x1="410" y1="287" x2="410" y2="10" stroke="#000000" stroke-width="0.4"/>
<line x1="410" y1="10" x2="10" y2="10" stroke="#000000" stroke-width="0.4"/>
<line x1="10" y1="10" x2="10" y2="287" stroke="#000000" stroke-width="0.4"/>
<text x="14" y="16" font-family="Arial" font-size="5.5" fill="#000000">E-015   EV Charging Detailed SLD</text>
<line x1="12" y1="285" x2="408" y2="285" stroke="#000000" stroke-width="0.4"/>
<line x1="408" y1="285" x2="408" y2="253" stroke="#000000" stroke-width="0.4"/>
<line x1="408" y1="253" x2="12" y2="253" stroke="#000000" stroke-width="0.4"/>
<line x1="12" y1="253" x2="12" y2="285" stroke="#000000" stroke-width="0.4"/>
<line x1="12" y1="265" x2="408" y2="265" stroke="#000000" stroke-width="0.4"/>
<line x1="12" y1="274" x2="408" y2="274" stroke="#000000" stroke-width="0.4"/>
<line x1="290" y1="265" x2="290" y2="274" stroke="#000000" stroke-width="0.4"/>
<line x1="150" y1="285" x2="150" y2="274" stroke="#000000" stroke-width="0.4"/>
<line x1="230" y1="285" x2="230" y2="274" stroke="#000000" stroke-width="0.4"/>
<line x1="300" y1="285" x2="300" y2="274" stroke="#000000" stroke-width="0.4"/>
<line x1="350" y1="285" x2="350" y2="274" stroke="#000000" stroke-width="0.4"/>
<text x="15" y="261.5" font-family="Arial" font-size="3" fill="#000000">PROJECT: Smart Residential Neighborhood - Power Systems (Option B, LV 22/0.4kV)</text>
<text x="305" y="261.5" font-family="Arial" font-size="2.8" fill="#000000">MILESTONE 4 - FINAL</text>
<text x="15" y="271.5" font-family="Arial" font-size="2.8" fill="#000000">DRAWING: EV Charging Detailed SLD</text>
<text x="293" y="271.5" font-family="Arial" font-size="2.8" fill="#000000">DWG No.: E-015</text>
<text x="15" y="281" font-family="Arial" font-size="2.6" fill="#000000">STUDENT: __________</text>
<text x="153" y="281" font-family="Arial" font-size="2.6" fill="#000000">SUPERVISOR: ______</text>
<text x="233" y="281" font-family="Arial" font-size="2.6" fill="#000000">DATE: 2026-06-11</text>
<text x="303" y="281" font-family="Arial" font-size="2.6" fill="#000000">REV: B FINAL</text>
<text x="353" y="281" font-family="Arial" font-size="2.6" fill="#000000">SCALE: NTS</text>
<line x1="40" y1="52" x2="110" y2="52" stroke="#C00000" stroke-width="0.4"/>
<line x1="110" y1="52" x2="110" y2="34" stroke="#C00000" stroke-width="0.4"/>
<line x1="110" y1="34" x2="40" y2="34" stroke="#C00000" stroke-width="0.4"/>
<line x1="40" y1="34" x2="40" y2="52" stroke="#C00000" stroke-width="0.4"/>
<text x="42" y="38.5" font-family="Arial" font-size="2.8" fill="#000000">FROM MDB</text>
<text x="42" y="43" font-family="Arial" font-size="2.6" fill="#000000">2500A</text>
<line x1="40" y1="92" x2="120" y2="92" stroke="#008B8B" stroke-width="0.4"/>
<line x1="120" y1="92" x2="120" y2="72" stroke="#008B8B" stroke-width="0.4"/>
<line x1="120" y1="72" x2="40" y2="72" stroke="#008B8B" stroke-width="0.4"/>
<line x1="40" y1="72" x2="40" y2="92" stroke="#008B8B" stroke-width="0.4"/>
<text x="42" y="76.5" font-family="Arial" font-size="2.8" fill="#000000">EV PANEL MAIN</text>
<text x="42" y="81" font-family="Arial" font-size="2.6" fill="#000000">MCCB 250A (~175A)</text>
<line x1="75" y1="52" x2="80" y2="72" stroke="#007000" stroke-width="0.4"/>
<line x1="150" y1="97" x2="194" y2="97" stroke="#008B8B" stroke-width="0.4"/>
<line x1="194" y1="97" x2="194" y2="75" stroke="#008B8B" stroke-width="0.4"/>
<line x1="194" y1="75" x2="150" y2="75" stroke="#008B8B" stroke-width="0.4"/>
<line x1="150" y1="75" x2="150" y2="97" stroke="#008B8B" stroke-width="0.4"/>
<text x="152" y="79.5" font-family="Arial" font-size="2.8" fill="#000000">GROUP 1</text>
<text x="152" y="84" font-family="Arial" font-size="2.6" fill="#000000">6x 11kW</text>
<line x1="120" y1="82" x2="150" y2="86" stroke="#007000" stroke-width="0.4"/>
<line x1="198" y1="97" x2="242" y2="97" stroke="#008B8B" stroke-width="0.4"/>
<line x1="242" y1="97" x2="242" y2="75" stroke="#008B8B" stroke-width="0.4"/>
<line x1="242" y1="75" x2="198" y2="75" stroke="#008B8B" stroke-width="0.4"/>
<line x1="198" y1="75" x2="198" y2="97" stroke="#008B8B" stroke-width="0.4"/>
<text x="200" y="79.5" font-family="Arial" font-size="2.8" fill="#000000">GROUP 2</text>
<text x="200" y="84" font-family="Arial" font-size="2.6" fill="#000000">6x 11kW</text>
<line x1="120" y1="82" x2="198" y2="86" stroke="#007000" stroke-width="0.4"/>
<line x1="246" y1="97" x2="290" y2="97" stroke="#008B8B" stroke-width="0.4"/>
<line x1="290" y1="97" x2="290" y2="75" stroke="#008B8B" stroke-width="0.4"/>
<line x1="290" y1="75" x2="246" y2="75" stroke="#008B8B" stroke-width="0.4"/>
<line x1="246" y1="75" x2="246" y2="97" stroke="#008B8B" stroke-width="0.4"/>
<text x="248" y="79.5" font-family="Arial" font-size="2.8" fill="#000000">GROUP 3</text>
<text x="248" y="84" font-family="Arial" font-size="2.6" fill="#000000">6x 11kW</text>
<line x1="120" y1="82" x2="246" y2="86" stroke="#007000" stroke-width="0.4"/>
<line x1="294" y1="97" x2="338" y2="97" stroke="#008B8B" stroke-width="0.4"/>
<line x1="338" y1="97" x2="338" y2="75" stroke="#008B8B" stroke-width="0.4"/>
<line x1="338" y1="75" x2="294" y2="75" stroke="#008B8B" stroke-width="0.4"/>
<line x1="294" y1="75" x2="294" y2="97" stroke="#008B8B" stroke-width="0.4"/>
<text x="296" y="79.5" font-family="Arial" font-size="2.8" fill="#000000">GROUP 4</text>
<text x="296" y="84" font-family="Arial" font-size="2.6" fill="#000000">6x 11kW</text>
<line x1="120" y1="82" x2="294" y2="86" stroke="#007000" stroke-width="0.4"/>
<line x1="342" y1="97" x2="386" y2="97" stroke="#008B8B" stroke-width="0.4"/>
<line x1="386" y1="97" x2="386" y2="75" stroke="#008B8B" stroke-width="0.4"/>
<line x1="386" y1="75" x2="342" y2="75" stroke="#008B8B" stroke-width="0.4"/>
<line x1="342" y1="75" x2="342" y2="97" stroke="#008B8B" stroke-width="0.4"/>
<text x="344" y="79.5" font-family="Arial" font-size="2.8" fill="#000000">GROUP 5</text>
<text x="344" y="84" font-family="Arial" font-size="2.6" fill="#000000">6x 11kW</text>
<line x1="120" y1="82" x2="342" y2="86" stroke="#007000" stroke-width="0.4"/>
<line x1="150" y1="147" x2="194" y2="147" stroke="#E07000" stroke-width="0.4"/>
<line x1="194" y1="147" x2="194" y2="129" stroke="#E07000" stroke-width="0.4"/>
<line x1="194" y1="129" x2="150" y2="129" stroke="#E07000" stroke-width="0.4"/>
<line x1="150" y1="129" x2="150" y2="147" stroke="#E07000" stroke-width="0.4"/>
<text x="152" y="133.5" font-family="Arial" font-size="2.8" fill="#000000">RCD TypeB</text>
<text x="152" y="138" font-family="Arial" font-size="2.6" fill="#000000">+MCB</text>
<line x1="198" y1="147" x2="242" y2="147" stroke="#E07000" stroke-width="0.4"/>
<line x1="242" y1="147" x2="242" y2="129" stroke="#E07000" stroke-width="0.4"/>
<line x1="242" y1="129" x2="198" y2="129" stroke="#E07000" stroke-width="0.4"/>
<line x1="198" y1="129" x2="198" y2="147" stroke="#E07000" stroke-width="0.4"/>
<text x="200" y="133.5" font-family="Arial" font-size="2.8" fill="#000000">RCD TypeB</text>
<text x="200" y="138" font-family="Arial" font-size="2.6" fill="#000000">+MCB</text>
<line x1="246" y1="147" x2="290" y2="147" stroke="#E07000" stroke-width="0.4"/>
<line x1="290" y1="147" x2="290" y2="129" stroke="#E07000" stroke-width="0.4"/>
<line x1="290" y1="129" x2="246" y2="129" stroke="#E07000" stroke-width="0.4"/>
<line x1="246" y1="129" x2="246" y2="147" stroke="#E07000" stroke-width="0.4"/>
<text x="248" y="133.5" font-family="Arial" font-size="2.8" fill="#000000">RCD TypeB</text>
<text x="248" y="138" font-family="Arial" font-size="2.6" fill="#000000">+MCB</text>
<line x1="294" y1="147" x2="338" y2="147" stroke="#E07000" stroke-width="0.4"/>
<line x1="338" y1="147" x2="338" y2="129" stroke="#E07000" stroke-width="0.4"/>
<line x1="338" y1="129" x2="294" y2="129" stroke="#E07000" stroke-width="0.4"/>
<line x1="294" y1="129" x2="294" y2="147" stroke="#E07000" stroke-width="0.4"/>
<text x="296" y="133.5" font-family="Arial" font-size="2.8" fill="#000000">RCD TypeB</text>
<text x="296" y="138" font-family="Arial" font-size="2.6" fill="#000000">+MCB</text>
<line x1="342" y1="147" x2="386" y2="147" stroke="#E07000" stroke-width="0.4"/>
<line x1="386" y1="147" x2="386" y2="129" stroke="#E07000" stroke-width="0.4"/>
<line x1="386" y1="129" x2="342" y2="129" stroke="#E07000" stroke-width="0.4"/>
<line x1="342" y1="129" x2="342" y2="147" stroke="#E07000" stroke-width="0.4"/>
<text x="344" y="133.5" font-family="Arial" font-size="2.8" fill="#000000">RCD TypeB</text>
<text x="344" y="138" font-family="Arial" font-size="2.6" fill="#000000">+MCB</text>
<line x1="172" y1="97" x2="172" y2="129" stroke="#007000" stroke-width="0.4"/>
<line x1="220" y1="97" x2="220" y2="129" stroke="#007000" stroke-width="0.4"/>
<line x1="268" y1="97" x2="268" y2="129" stroke="#007000" stroke-width="0.4"/>
<line x1="316" y1="97" x2="316" y2="129" stroke="#007000" stroke-width="0.4"/>
<line x1="364" y1="97" x2="364" y2="129" stroke="#007000" stroke-width="0.4"/>
<line x1="150" y1="187" x2="350" y2="187" stroke="#700070" stroke-width="0.4"/>
<line x1="350" y1="187" x2="350" y2="169" stroke="#700070" stroke-width="0.4"/>
<line x1="350" y1="169" x2="150" y2="169" stroke="#700070" stroke-width="0.4"/>
<line x1="150" y1="169" x2="150" y2="187" stroke="#700070" stroke-width="0.4"/>
<text x="152" y="173.5" font-family="Arial" font-size="2.8" fill="#000000">DLM CONTROLLER -&gt; EMS/BMS</text>
<text x="152" y="178" font-family="Arial" font-size="2.6" fill="#000000">managed 115.5kW (0.35)</text>
<text x="14" y="250" font-family="Arial" font-size="2.6" fill="#696969">NOTES: 30 stations x 11kW (3-ph), installed 330kW, managed 115.5kW; RCD Type B + SPD.</text>
</svg>
