<svg xmlns="http://www.w3.org/2000/svg" viewBox="0 0 420 297" width="1680" height="1188">
<rect x="0" y="0" width="420" height="297" fill="white"/>
<line x1="8" y1="289" x2="412" y2="289" stroke="#000000" stroke-width="0.4"/>
<line x1="412" y1="289" x2="412" y2="8" stroke="#000000" stroke-width="0.4"/>
<line x1="412" y1="8" x2="8" y2="8" stroke="#000000" stroke-width="0.4"/>
<line x1="8" y1="8" x2="8" y2="289" stroke="#000000" stroke-width="0.4"/>
<line x1="10" y1="287" x2="410" y2="287" stroke="#000000" stroke-width="0.4"/>
<line x1="410" y1="287" x2="410" y2="10" stroke="#000000" stroke-width="0.4"/>
<line x1="410" y1="10" x2="10" y2="10" stroke="#000000" stroke-width="0.4"/>
<line x1="10" y1="10" x2="10" y2="287" stroke="#000000" stroke-width="0.4"/>
<text x="14" y="16" font-family="Arial" font-size="5.5" fill="#000000">E-017   Capacitor Bank PF Correction</text>
<line x1="12" y1="285" x2="408" y2="285" stroke="#000000" stroke-width="0.4"/>
<line x1="408" y1="285" x2="408" y2="253" stroke="#000000" stroke-width="0.4"/>
<line x1="408" y1="253" x2="12" y2="253" stroke="#000000" stroke-width="0.4"/>
<line x1="12" y1="253" x2="12" y2="285" stroke="#000000" stroke-width="0.4"/>
<line x1="12" y1="265" x2="408" y2="265" stroke="#000000" stroke-width="0.4"/>
<line x1="12" y1="274" x2="408" y2="274" stroke="#000000" stroke-width="0.4"/>
<line x1="290" y1="265" x2="290" y2="274" stroke="#000000" stroke-width="0.4"/>
<line x1="150" y1="285" x2="150" y2="274" stroke="#000000" stroke-width="0.4"/>
<line x1="230" y1="285" x2="230" y2="274" stroke="#000000" stroke-width="0.4"/>
<line x1="300" y1="285" x2="300" y2="274" stroke="#000000" stroke-width="0.4"/>
<line x1="350" y1="285" x2="350" y2="274" stroke="#000000" stroke-width="0.4"/>
<text x="15" y="261.5" font-family="Arial" font-size="3" fill="#000000">PROJECT: Smart Residential Neighborhood - Power Systems (Option B, LV 22/0.4kV)</text>
<text x="305" y="261.5" font-family="Arial" font-size="2.8" fill="#000000">MILESTONE 4 - FINAL</text>
<text x="15" y="271.5" font-family="Arial" font-size="2.8" fill="#000000">DRAWING: Capacitor Bank PF Correction</text>
<text x="293" y="271.5" font-family="Arial" font-size="2.8" fill="#000000">DWG No.: E-017</text>
<text x="15" y="281" font-family="Arial" font-size="2.6" fill="#000000">STUDENT: __________</text>
<text x="153" y="281" font-family="Arial" font-size="2.6" fill="#000000">SUPERVISOR: ______</text>
<text x="233" y="281" font-family="Arial" font-size="2.6" fill="#000000">DATE: 2026-06-11</text>
<text x="303" y="281" font-family="Arial" font-size="2.6" fill="#000000">REV: B FINAL</text>
<text x="353" y="281" font-family="Arial" font-size="2.6" fill="#000000">SCALE: NTS</text>
<line x1="165" y1="47" x2="255" y2="47" stroke="#C00000" stroke-width="0.4"/>
<line x1="255" y1="47" x2="255" y2="29" stroke="#C00000" stroke-width="0.4"/>
<line x1="255" y1="29" x2="165" y2="29" stroke="#C00000" stroke-width="0.4"/>
<line x1="165" y1="29" x2="165" y2="47" stroke="#C00000" stroke-width="0.4"/>
<text x="167" y="33.5" font-family="Arial" font-size="2.8" fill="#000000">MDB BUSBAR</text>
<text x="167" y="38" font-family="Arial" font-size="2.6" fill="#000000">2500A</text>
<line x1="150" y1="87" x2="270" y2="87" stroke="#E07000" stroke-width="0.4"/>
<line x1="270" y1="87" x2="270" y2="65" stroke="#E07000" stroke-width="0.4"/>
<line x1="270" y1="65" x2="150" y2="65" stroke="#E07000" stroke-width="0.4"/>
<line x1="150" y1="65" x2="150" y2="87" stroke="#E07000" stroke-width="0.4"/>
<text x="152" y="69.5" font-family="Arial" font-size="2.8" fill="#000000">PF CONTROLLER</text>
<text x="152" y="74" font-family="Arial" font-size="2.6" fill="#000000">target cos=0.95</text>
<line x1="210" y1="47" x2="210" y2="65" stroke="#007000" stroke-width="0.4"/>
<line x1="40" y1="147" x2="80" y2="147" stroke="#008080" stroke-width="0.4"/>
<line x1="80" y1="147" x2="80" y2="117" stroke="#008080" stroke-width="0.4"/>
<line x1="80" y1="117" x2="40" y2="117" stroke="#008080" stroke-width="0.4"/>
<line x1="40" y1="117" x2="40" y2="147" stroke="#008080" stroke-width="0.4"/>
<text x="42" y="121.5" font-family="Arial" font-size="2.8" fill="#000000">STEP 1</text>
<text x="42" y="126" font-family="Arial" font-size="2.6" fill="#000000">25kvar</text>
<line x1="60" y1="117" x2="210" y2="87" stroke="#007000" stroke-width="0.4"/>
<line x1="85" y1="147" x2="125" y2="147" stroke="#008080" stroke-width="0.4"/>
<line x1="125" y1="147" x2="125" y2="117" stroke="#008080" stroke-width="0.4"/>
<line x1="125" y1="117" x2="85" y2="117" stroke="#008080" stroke-width="0.4"/>
<line x1="85" y1="117" x2="85" y2="147" stroke="#008080" stroke-width="0.4"/>
<text x="87" y="121.5" font-family="Arial" font-size="2.8" fill="#000000">STEP 2</text>
<text x="87" y="126" font-family="Arial" font-size="2.6" fill="#000000">25kvar</text>
<line x1="105" y1="117" x2="210" y2="87" stroke="#007000" stroke-width="0.4"/>
<line x1="130" y1="147" x2="170" y2="147" stroke="#008080" stroke-width="0.4"/>
<line x1="170" y1="147" x2="170" y2="117" stroke="#008080" stroke-width="0.4"/>
<line x1="170" y1="117" x2="130" y2="117" stroke="#008080" stroke-width="0.4"/>
<line x1="130" y1="117" x2="130" y2="147" stroke="#008080" stroke-width="0.4"/>
<text x="132" y="121.5" font-family="Arial" font-size="2.8" fill="#000000">STEP 3</text>
<text x="132" y="126" font-family="Arial" font-size="2.6" fill="#000000">25kvar</text>
<line x1="150" y1="117" x2="210" y2="87" stroke="#007000" stroke-width="0.4"/>
<line x1="175" y1="147" x2="215" y2="147" stroke="#008080" stroke-width="0.4"/>
<line x1="215" y1="147" x2="215" y2="117" stroke="#008080" stroke-width="0.4"/>
<line x1="215" y1="117" x2="175" y2="117" stroke="#008080" stroke-width="0.4"/>
<line x1="175" y1="117" x2="175" y2="147" stroke="#008080" stroke-width="0.4"/>
<text x="177" y="121.5" font-family="Arial" font-size="2.8" fill="#000000">STEP 4</text>
<text x="177" y="126" font-family="Arial" font-size="2.6" fill="#000000">25kvar</text>
<line x1="195" y1="117" x2="210" y2="87" stroke="#007000" stroke-width="0.4"/>
<line x1="220" y1="147" x2="260" y2="147" stroke="#008080" stroke-width="0.4"/>
<line x1="260" y1="147" x2="260" y2="117" stroke="#008080" stroke-width="0.4"/>
<line x1="260" y1="117" x2="220" y2="117" stroke="#008080" stroke-width="0.4"/>
<line x1="220" y1="117" x2="220" y2="147" stroke="#008080" stroke-width="0.4"/>
<text x="222" y="121.5" font-family="Arial" font-size="2.8" fill="#000000">STEP 5</text>
<text x="222" y="126" font-family="Arial" font-size="2.6" fill="#000000">25kvar</text>
<line x1="240" y1="117" x2="210" y2="87" stroke="#007000" stroke-width="0.4"/>
<line x1="265" y1="147" x2="305" y2="147" stroke="#008080" stroke-width="0.4"/>
<line x1="305" y1="147" x2="305" y2="117" stroke="#008080" stroke-width="0.4"/>
<line x1="305" y1="117" x2="265" y2="117" stroke="#008080" stroke-width="0.4"/>
<line x1="265" y1="117" x2="265" y2="147" stroke="#008080" stroke-width="0.4"/>
<text x="267" y="121.5" font-family="Arial" font-size="2.8" fill="#000000">STEP 6</text>
<text x="267" y="126" font-family="Arial" font-size="2.6" fill="#000000">25kvar</text>
<line x1="285" y1="117" x2="210" y2="87" stroke="#007000" stroke-width="0.4"/>
<line x1="310" y1="147" x2="350" y2="147" stroke="#008080" stroke-width="0.4"/>
<line x1="350" y1="147" x2="350" y2="117" stroke="#008080" stroke-width="0.4"/>
<line x1="350" y1="117" x2="310" y2="117" stroke="#008080" stroke-width="0.4"/>
<line x1="310" y1="117" x2="310" y2="147" stroke="#008080" stroke-width="0.4"/>
<text x="312" y="121.5" font-family="Arial" font-size="2.8" fill="#000000">STEP 7</text>
<text x="312" y="126" font-family="Arial" font-size="2.6" fill="#000000">25kvar</text>
<line x1="330" y1="117" x2="210" y2="87" stroke="#007000" stroke-width="0.4"/>
<line x1="355" y1="147" x2="395" y2="147" stroke="#008080" stroke-width="0.4"/>
<line x1="395" y1="147" x2="395" y2="117" stroke="#008080" stroke-width="0.4"/>
<line x1="395" y1="117" x2="355" y2="117" stroke="#008080" stroke-width="0.4"/>
<line x1="355" y1="117" x2="355" y2="147" stroke="#008080" stroke-width="0.4"/>
<text x="357" y="121.5" font-family="Arial" font-size="2.8" fill="#000000">STEP 8</text>
<text x="357" y="126" font-family="Arial" font-size="2.6" fill="#000000">25kvar</text>
<line x1="375" y1="117" x2="210" y2="87" stroke="#007000" stroke-width="0.4"/>
<text x="40" y="177" font-family="Arial" font-size="2.8" fill="#000000">Total 200kvar (8x25kvar), Qc=P(tan f1-tan f2)~183kvar</text>
<text x="40" y="189" font-family="Arial" font-size="2.6" fill="#696969">Detuned reactors 7% SELECTED (PV/EV harmonics)</text>
<text x="14" y="250" font-family="Arial" font-size="2.6" fill="#696969">NOTES: Automatic capacitor bank at MDB; improves PF 0.90 -&gt; 0.95.</text>
</svg>
