<svg xmlns="http://www.w3.org/2000/svg" viewBox="0 0 420 297" width="1680" height="1188">
<rect x="0" y="0" width="420" height="297" fill="white"/>
<line x1="8" y1="289" x2="412" y2="289" stroke="#000000" stroke-width="0.4"/>
<line x1="412" y1="289" x2="412" y2="8" stroke="#000000" stroke-width="0.4"/>
<line x1="412" y1="8" x2="8" y2="8" stroke="#000000" stroke-width="0.4"/>
<line x1="8" y1="8" x2="8" y2="289" stroke="#000000" stroke-width="0.4"/>
<line x1="10" y1="287" x2="410" y2="287" stroke="#000000" stroke-width="0.4"/>
<line x1="410" y1="287" x2="410" y2="10" stroke="#000000" stroke-width="0.4"/>
<line x1="410" y1="10" x2="10" y2="10" stroke="#000000" stroke-width="0.4"/>
<line x1="10" y1="10" x2="10" y2="287" stroke="#000000" stroke-width="0.4"/>
<text x="14" y="16" font-family="Arial" font-size="5.5" fill="#000000">E-014   Overall System Overview</text>
<line x1="12" y1="285" x2="408" y2="285" stroke="#000000" stroke-width="0.4"/>
<line x1="408" y1="285" x2="408" y2="253" stroke="#000000" stroke-width="0.4"/>
<line x1="408" y1="253" x2="12" y2="253" stroke="#000000" stroke-width="0.4"/>
<line x1="12" y1="253" x2="12" y2="285" stroke="#000000" stroke-width="0.4"/>
<line x1="12" y1="265" x2="408" y2="265" stroke="#000000" stroke-width="0.4"/>
<line x1="12" y1="274" x2="408" y2="274" stroke="#000000" stroke-width="0.4"/>
<line x1="290" y1="265" x2="290" y2="274" stroke="#000000" stroke-width="0.4"/>
<line x1="150" y1="285" x2="150" y2="274" stroke="#000000" stroke-width="0.4"/>
<line x1="230" y1="285" x2="230" y2="274" stroke="#000000" stroke-width="0.4"/>
<line x1="300" y1="285" x2="300" y2="274" stroke="#000000" stroke-width="0.4"/>
<line x1="350" y1="285" x2="350" y2="274" stroke="#000000" stroke-width="0.4"/>
<text x="15" y="261.5" font-family="Arial" font-size="3" fill="#000000">PROJECT: Smart Residential Neighborhood - Power Systems (Option B, LV 22/0.4kV)</text>
<text x="305" y="261.5" font-family="Arial" font-size="2.8" fill="#000000">MILESTONE 4 - FINAL</text>
<text x="15" y="271.5" font-family="Arial" font-size="2.8" fill="#000000">DRAWING: Overall System Overview</text>
<text x="293" y="271.5" font-family="Arial" font-size="2.8" fill="#000000">DWG No.: E-014</text>
<text x="15" y="281" font-family="Arial" font-size="2.6" fill="#000000">STUDENT: __________</text>
<text x="153" y="281" font-family="Arial" font-size="2.6" fill="#000000">SUPERVISOR: ______</text>
<text x="233" y="281" font-family="Arial" font-size="2.6" fill="#000000">DATE: 2026-06-11</text>
<text x="303" y="281" font-family="Arial" font-size="2.6" fill="#000000">REV: B FINAL</text>
<text x="353" y="281" font-family="Arial" font-size="2.6" fill="#000000">SCALE: NTS</text>
<line x1="165" y1="47" x2="255" y2="47" stroke="#C00000" stroke-width="0.4"/>
<line x1="255" y1="47" x2="255" y2="27" stroke="#C00000" stroke-width="0.4"/>
<line x1="255" y1="27" x2="165" y2="27" stroke="#C00000" stroke-width="0.4"/>
<line x1="165" y1="27" x2="165" y2="47" stroke="#C00000" stroke-width="0.4"/>
<text x="167" y="31.5" font-family="Arial" font-size="2.8" fill="#000000">22kV / 2x1000kVA</text>
<text x="167" y="36" font-family="Arial" font-size="2.6" fill="#000000">MDB 2500A/65kA</text>
<line x1="35" y1="107" x2="145" y2="107" stroke="#0000C0" stroke-width="0.4"/>
<line x1="145" y1="107" x2="145" y2="83" stroke="#0000C0" stroke-width="0.4"/>
<line x1="145" y1="83" x2="35" y2="83" stroke="#0000C0" stroke-width="0.4"/>
<line x1="35" y1="83" x2="35" y2="107" stroke="#0000C0" stroke-width="0.4"/>
<text x="37" y="87.5" font-family="Arial" font-size="2.8" fill="#000000">BUILDINGS A/B/C</text>
<line x1="90" y1="83" x2="210" y2="47" stroke="#007000" stroke-width="0.4"/>
<line x1="163" y1="107" x2="273" y2="107" stroke="#0000C0" stroke-width="0.4"/>
<line x1="273" y1="107" x2="273" y2="83" stroke="#0000C0" stroke-width="0.4"/>
<line x1="273" y1="83" x2="163" y2="83" stroke="#0000C0" stroke-width="0.4"/>
<line x1="163" y1="83" x2="163" y2="107" stroke="#0000C0" stroke-width="0.4"/>
<text x="165" y="87.5" font-family="Arial" font-size="2.8" fill="#000000">EV 330-&gt;115.5kW</text>
<line x1="218" y1="83" x2="210" y2="47" stroke="#007000" stroke-width="0.4"/>
<line x1="291" y1="107" x2="401" y2="107" stroke="#0000C0" stroke-width="0.4"/>
<line x1="401" y1="107" x2="401" y2="83" stroke="#0000C0" stroke-width="0.4"/>
<line x1="401" y1="83" x2="291" y2="83" stroke="#0000C0" stroke-width="0.4"/>
<line x1="291" y1="83" x2="291" y2="107" stroke="#0000C0" stroke-width="0.4"/>
<text x="293" y="87.5" font-family="Arial" font-size="2.8" fill="#000000">PV 200kWp</text>
<line x1="346" y1="83" x2="210" y2="47" stroke="#007000" stroke-width="0.4"/>
<line x1="35" y1="159" x2="145" y2="159" stroke="#0000C0" stroke-width="0.4"/>
<line x1="145" y1="159" x2="145" y2="135" stroke="#0000C0" stroke-width="0.4"/>
<line x1="145" y1="135" x2="35" y2="135" stroke="#0000C0" stroke-width="0.4"/>
<line x1="35" y1="135" x2="35" y2="159" stroke="#0000C0" stroke-width="0.4"/>
<text x="37" y="139.5" font-family="Arial" font-size="2.8" fill="#000000">BESS 250kW/500kWh</text>
<line x1="90" y1="135" x2="210" y2="47" stroke="#007000" stroke-width="0.4"/>
<line x1="163" y1="159" x2="273" y2="159" stroke="#0000C0" stroke-width="0.4"/>
<line x1="273" y1="159" x2="273" y2="135" stroke="#0000C0" stroke-width="0.4"/>
<line x1="273" y1="135" x2="163" y2="135" stroke="#0000C0" stroke-width="0.4"/>
<line x1="163" y1="135" x2="163" y2="159" stroke="#0000C0" stroke-width="0.4"/>
<text x="165" y="139.5" font-family="Arial" font-size="2.8" fill="#000000">GEN 300kVA + ATS</text>
<line x1="218" y1="135" x2="210" y2="47" stroke="#007000" stroke-width="0.4"/>
<line x1="291" y1="159" x2="401" y2="159" stroke="#0000C0" stroke-width="0.4"/>
<line x1="401" y1="159" x2="401" y2="135" stroke="#0000C0" stroke-width="0.4"/>
<line x1="401" y1="135" x2="291" y2="135" stroke="#0000C0" stroke-width="0.4"/>
<line x1="291" y1="135" x2="291" y2="159" stroke="#0000C0" stroke-width="0.4"/>
<text x="293" y="139.5" font-family="Arial" font-size="2.8" fill="#000000">UPS 20kVA</text>
<line x1="346" y1="135" x2="210" y2="47" stroke="#007000" stroke-width="0.4"/>
<line x1="35" y1="211" x2="145" y2="211" stroke="#0000C0" stroke-width="0.4"/>
<line x1="145" y1="211" x2="145" y2="187" stroke="#0000C0" stroke-width="0.4"/>
<line x1="145" y1="187" x2="35" y2="187" stroke="#0000C0" stroke-width="0.4"/>
<line x1="35" y1="187" x2="35" y2="211" stroke="#0000C0" stroke-width="0.4"/>
<text x="37" y="191.5" font-family="Arial" font-size="2.8" fill="#000000">PUBLIC + LIGHTING</text>
<line x1="90" y1="187" x2="210" y2="47" stroke="#007000" stroke-width="0.4"/>
<line x1="163" y1="211" x2="273" y2="211" stroke="#0000C0" stroke-width="0.4"/>
<line x1="273" y1="211" x2="273" y2="187" stroke="#0000C0" stroke-width="0.4"/>
<line x1="273" y1="187" x2="163" y2="187" stroke="#0000C0" stroke-width="0.4"/>
<line x1="163" y1="187" x2="163" y2="211" stroke="#0000C0" stroke-width="0.4"/>
<text x="165" y="191.5" font-family="Arial" font-size="2.8" fill="#000000">CAP 200kvar</text>
<line x1="218" y1="187" x2="210" y2="47" stroke="#007000" stroke-width="0.4"/>
<line x1="291" y1="211" x2="401" y2="211" stroke="#0000C0" stroke-width="0.4"/>
<line x1="401" y1="211" x2="401" y2="187" stroke="#0000C0" stroke-width="0.4"/>
<line x1="401" y1="187" x2="291" y2="187" stroke="#0000C0" stroke-width="0.4"/>
<line x1="291" y1="187" x2="291" y2="211" stroke="#0000C0" stroke-width="0.4"/>
<text x="293" y="191.5" font-family="Arial" font-size="2.8" fill="#000000">EMS/BMS</text>
<line x1="346" y1="187" x2="210" y2="47" stroke="#007000" stroke-width="0.4"/>
<text x="14" y="250" font-family="Arial" font-size="2.6" fill="#696969">NOTES: System overview: distribution + backup + innovation (PV/BESS/EV/EMS).</text>
</svg>
