<svg xmlns="http://www.w3.org/2000/svg" viewBox="0 0 420 297" width="1680" height="1188">
<rect x="0" y="0" width="420" height="297" fill="white"/>
<line x1="8" y1="289" x2="412" y2="289" stroke="#000000" stroke-width="0.4"/>
<line x1="412" y1="289" x2="412" y2="8" stroke="#000000" stroke-width="0.4"/>
<line x1="412" y1="8" x2="8" y2="8" stroke="#000000" stroke-width="0.4"/>
<line x1="8" y1="8" x2="8" y2="289" stroke="#000000" stroke-width="0.4"/>
<line x1="10" y1="287" x2="410" y2="287" stroke="#000000" stroke-width="0.4"/>
<line x1="410" y1="287" x2="410" y2="10" stroke="#000000" stroke-width="0.4"/>
<line x1="410" y1="10" x2="10" y2="10" stroke="#000000" stroke-width="0.4"/>
<line x1="10" y1="10" x2="10" y2="287" stroke="#000000" stroke-width="0.4"/>
<text x="14" y="16" font-family="Arial" font-size="5.5" fill="#000000">E-013   Lighting Emergency Lighting</text>
<line x1="12" y1="285" x2="408" y2="285" stroke="#000000" stroke-width="0.4"/>
<line x1="408" y1="285" x2="408" y2="253" stroke="#000000" stroke-width="0.4"/>
<line x1="408" y1="253" x2="12" y2="253" stroke="#000000" stroke-width="0.4"/>
<line x1="12" y1="253" x2="12" y2="285" stroke="#000000" stroke-width="0.4"/>
<line x1="12" y1="265" x2="408" y2="265" stroke="#000000" stroke-width="0.4"/>
<line x1="12" y1="274" x2="408" y2="274" stroke="#000000" stroke-width="0.4"/>
<line x1="290" y1="265" x2="290" y2="274" stroke="#000000" stroke-width="0.4"/>
<line x1="150" y1="285" x2="150" y2="274" stroke="#000000" stroke-width="0.4"/>
<line x1="230" y1="285" x2="230" y2="274" stroke="#000000" stroke-width="0.4"/>
<line x1="300" y1="285" x2="300" y2="274" stroke="#000000" stroke-width="0.4"/>
<line x1="350" y1="285" x2="350" y2="274" stroke="#000000" stroke-width="0.4"/>
<text x="15" y="261.5" font-family="Arial" font-size="3" fill="#000000">PROJECT: Smart Residential Neighborhood - Power Systems (Option B, LV 22/0.4kV)</text>
<text x="305" y="261.5" font-family="Arial" font-size="2.8" fill="#000000">MILESTONE 4 - FINAL</text>
<text x="15" y="271.5" font-family="Arial" font-size="2.8" fill="#000000">DRAWING: Lighting Emergency Lighting</text>
<text x="293" y="271.5" font-family="Arial" font-size="2.8" fill="#000000">DWG No.: E-013</text>
<text x="15" y="281" font-family="Arial" font-size="2.6" fill="#000000">STUDENT: __________</text>
<text x="153" y="281" font-family="Arial" font-size="2.6" fill="#000000">SUPERVISOR: ______</text>
<text x="233" y="281" font-family="Arial" font-size="2.6" fill="#000000">DATE: 2026-06-11</text>
<text x="303" y="281" font-family="Arial" font-size="2.6" fill="#000000">REV: B FINAL</text>
<text x="353" y="281" font-family="Arial" font-size="2.6" fill="#000000">SCALE: NTS</text>
<line x1="40" y1="52" x2="120" y2="52" stroke="#707000" stroke-width="0.4"/>
<line x1="120" y1="52" x2="120" y2="34" stroke="#707000" stroke-width="0.4"/>
<line x1="120" y1="34" x2="40" y2="34" stroke="#707000" stroke-width="0.4"/>
<line x1="40" y1="34" x2="40" y2="52" stroke="#707000" stroke-width="0.4"/>
<text x="42" y="38.5" font-family="Arial" font-size="2.8" fill="#000000">LIGHTING PANEL</text>
<text x="42" y="43" font-family="Arial" font-size="2.6" fill="#000000">from sub-board</text>
<line x1="40" y1="87" x2="150" y2="87" stroke="#707000" stroke-width="0.4"/>
<line x1="150" y1="87" x2="150" y2="69" stroke="#707000" stroke-width="0.4"/>
<line x1="150" y1="69" x2="40" y2="69" stroke="#707000" stroke-width="0.4"/>
<line x1="40" y1="69" x2="40" y2="87" stroke="#707000" stroke-width="0.4"/>
<text x="42" y="73.5" font-family="Arial" font-size="2.8" fill="#000000">LOBBY</text>
<text x="42" y="78" font-family="Arial" font-size="2.6" fill="#000000">200lux LED</text>
<line x1="80" y1="52" x2="95" y2="69" stroke="#007000" stroke-width="0.4"/>
<line x1="40" y1="117" x2="150" y2="117" stroke="#707000" stroke-width="0.4"/>
<line x1="150" y1="117" x2="150" y2="99" stroke="#707000" stroke-width="0.4"/>
<line x1="150" y1="99" x2="40" y2="99" stroke="#707000" stroke-width="0.4"/>
<line x1="40" y1="99" x2="40" y2="117" stroke="#707000" stroke-width="0.4"/>
<text x="42" y="103.5" font-family="Arial" font-size="2.8" fill="#000000">CORRIDORS</text>
<text x="42" y="108" font-family="Arial" font-size="2.6" fill="#000000">150lux LED</text>
<line x1="80" y1="52" x2="95" y2="99" stroke="#007000" stroke-width="0.4"/>
<line x1="40" y1="147" x2="150" y2="147" stroke="#707000" stroke-width="0.4"/>
<line x1="150" y1="147" x2="150" y2="129" stroke="#707000" stroke-width="0.4"/>
<line x1="150" y1="129" x2="40" y2="129" stroke="#707000" stroke-width="0.4"/>
<line x1="40" y1="129" x2="40" y2="147" stroke="#707000" stroke-width="0.4"/>
<text x="42" y="133.5" font-family="Arial" font-size="2.8" fill="#000000">EL.ROOM</text>
<text x="42" y="138" font-family="Arial" font-size="2.6" fill="#000000">300lux LED</text>
<line x1="80" y1="52" x2="95" y2="129" stroke="#007000" stroke-width="0.4"/>
<line x1="40" y1="177" x2="150" y2="177" stroke="#707000" stroke-width="0.4"/>
<line x1="150" y1="177" x2="150" y2="159" stroke="#707000" stroke-width="0.4"/>
<line x1="150" y1="159" x2="40" y2="159" stroke="#707000" stroke-width="0.4"/>
<line x1="40" y1="159" x2="40" y2="177" stroke="#707000" stroke-width="0.4"/>
<text x="42" y="163.5" font-family="Arial" font-size="2.8" fill="#000000">CAR PARK</text>
<text x="42" y="168" font-family="Arial" font-size="2.6" fill="#000000">75lux LED</text>
<line x1="80" y1="52" x2="95" y2="159" stroke="#007000" stroke-width="0.4"/>
<line x1="40" y1="207" x2="150" y2="207" stroke="#707000" stroke-width="0.4"/>
<line x1="150" y1="207" x2="150" y2="189" stroke="#707000" stroke-width="0.4"/>
<line x1="150" y1="189" x2="40" y2="189" stroke="#707000" stroke-width="0.4"/>
<line x1="40" y1="189" x2="40" y2="207" stroke="#707000" stroke-width="0.4"/>
<text x="42" y="193.5" font-family="Arial" font-size="2.8" fill="#000000">OUTDOOR</text>
<text x="42" y="198" font-family="Arial" font-size="2.6" fill="#000000">20-50lux</text>
<line x1="80" y1="52" x2="95" y2="189" stroke="#007000" stroke-width="0.4"/>
<line x1="250" y1="97" x2="360" y2="97" stroke="#696969" stroke-width="0.4"/>
<line x1="360" y1="97" x2="360" y2="77" stroke="#696969" stroke-width="0.4"/>
<line x1="360" y1="77" x2="250" y2="77" stroke="#696969" stroke-width="0.4"/>
<line x1="250" y1="77" x2="250" y2="97" stroke="#696969" stroke-width="0.4"/>
<text x="252" y="81.5" font-family="Arial" font-size="2.8" fill="#000000">EMERGENCY LIGHTING</text>
<text x="252" y="86" font-family="Arial" font-size="2.6" fill="#000000">UPS/GEN + 60-90min battery</text>
<line x1="250" y1="137" x2="360" y2="137" stroke="#707000" stroke-width="0.4"/>
<line x1="360" y1="137" x2="360" y2="119" stroke="#707000" stroke-width="0.4"/>
<line x1="360" y1="119" x2="250" y2="119" stroke="#707000" stroke-width="0.4"/>
<line x1="250" y1="119" x2="250" y2="137" stroke="#707000" stroke-width="0.4"/>
<text x="252" y="123.5" font-family="Arial" font-size="2.8" fill="#000000">EXIT SIGNS</text>
<text x="252" y="128" font-family="Arial" font-size="2.6" fill="#000000">escape routes</text>
<line x1="305" y1="97" x2="305" y2="119" stroke="#007000" stroke-width="0.4"/>
<text x="14" y="250" font-family="Arial" font-size="2.6" fill="#696969">NOTES: Lumen method per area; emergency lighting on UPS/gen with local battery.</text>
</svg>
