<svg xmlns="http://www.w3.org/2000/svg" viewBox="0 0 420 297" width="1680" height="1188">
<rect x="0" y="0" width="420" height="297" fill="white"/>
<line x1="8" y1="289" x2="412" y2="289" stroke="#000000" stroke-width="0.4"/>
<line x1="412" y1="289" x2="412" y2="8" stroke="#000000" stroke-width="0.4"/>
<line x1="412" y1="8" x2="8" y2="8" stroke="#000000" stroke-width="0.4"/>
<line x1="8" y1="8" x2="8" y2="289" stroke="#000000" stroke-width="0.4"/>
<line x1="10" y1="287" x2="410" y2="287" stroke="#000000" stroke-width="0.4"/>
<line x1="410" y1="287" x2="410" y2="10" stroke="#000000" stroke-width="0.4"/>
<line x1="410" y1="10" x2="10" y2="10" stroke="#000000" stroke-width="0.4"/>
<line x1="10" y1="10" x2="10" y2="287" stroke="#000000" stroke-width="0.4"/>
<text x="14" y="16" font-family="Arial" font-size="5.5" fill="#000000">E-018   Short Circuit Path To End User</text>
<line x1="12" y1="285" x2="408" y2="285" stroke="#000000" stroke-width="0.4"/>
<line x1="408" y1="285" x2="408" y2="253" stroke="#000000" stroke-width="0.4"/>
<line x1="408" y1="253" x2="12" y2="253" stroke="#000000" stroke-width="0.4"/>
<line x1="12" y1="253" x2="12" y2="285" stroke="#000000" stroke-width="0.4"/>
<line x1="12" y1="265" x2="408" y2="265" stroke="#000000" stroke-width="0.4"/>
<line x1="12" y1="274" x2="408" y2="274" stroke="#000000" stroke-width="0.4"/>
<line x1="290" y1="265" x2="290" y2="274" stroke="#000000" stroke-width="0.4"/>
<line x1="150" y1="285" x2="150" y2="274" stroke="#000000" stroke-width="0.4"/>
<line x1="230" y1="285" x2="230" y2="274" stroke="#000000" stroke-width="0.4"/>
<line x1="300" y1="285" x2="300" y2="274" stroke="#000000" stroke-width="0.4"/>
<line x1="350" y1="285" x2="350" y2="274" stroke="#000000" stroke-width="0.4"/>
<text x="15" y="261.5" font-family="Arial" font-size="3" fill="#000000">PROJECT: Smart Residential Neighborhood - Power Systems (Option B, LV 22/0.4kV)</text>
<text x="305" y="261.5" font-family="Arial" font-size="2.8" fill="#000000">MILESTONE 4 - FINAL</text>
<text x="15" y="271.5" font-family="Arial" font-size="2.8" fill="#000000">DRAWING: Short Circuit Path To End User</text>
<text x="293" y="271.5" font-family="Arial" font-size="2.8" fill="#000000">DWG No.: E-018</text>
<text x="15" y="281" font-family="Arial" font-size="2.6" fill="#000000">STUDENT: __________</text>
<text x="153" y="281" font-family="Arial" font-size="2.6" fill="#000000">SUPERVISOR: ______</text>
<text x="233" y="281" font-family="Arial" font-size="2.6" fill="#000000">DATE: 2026-06-11</text>
<text x="303" y="281" font-family="Arial" font-size="2.6" fill="#000000">REV: B FINAL</text>
<text x="353" y="281" font-family="Arial" font-size="2.6" fill="#000000">SCALE: NTS</text>
<line x1="90" y1="62" x2="240" y2="62" stroke="#E07000" stroke-width="0.4"/>
<line x1="240" y1="62" x2="240" y2="38" stroke="#E07000" stroke-width="0.4"/>
<line x1="240" y1="38" x2="90" y2="38" stroke="#E07000" stroke-width="0.4"/>
<line x1="90" y1="38" x2="90" y2="62" stroke="#E07000" stroke-width="0.4"/>
<text x="92" y="42.5" font-family="Arial" font-size="2.8" fill="#000000">TRANSFORMER</text>
<text x="92" y="47" font-family="Arial" font-size="2.6" fill="#000000">Ik ~ 24kA each</text>
<line x1="90" y1="102" x2="240" y2="102" stroke="#E07000" stroke-width="0.4"/>
<line x1="240" y1="102" x2="240" y2="78" stroke="#E07000" stroke-width="0.4"/>
<line x1="240" y1="78" x2="90" y2="78" stroke="#E07000" stroke-width="0.4"/>
<line x1="90" y1="78" x2="90" y2="102" stroke="#E07000" stroke-width="0.4"/>
<text x="92" y="82.5" font-family="Arial" font-size="2.8" fill="#000000">MDB BUSBAR</text>
<text x="92" y="87" font-family="Arial" font-size="2.6" fill="#000000">Ik 48kA / ACB 65kA</text>
<line x1="165" y1="78" x2="165" y2="62" stroke="#007000" stroke-width="0.4"/>
<line x1="90" y1="142" x2="240" y2="142" stroke="#E07000" stroke-width="0.4"/>
<line x1="240" y1="142" x2="240" y2="118" stroke="#E07000" stroke-width="0.4"/>
<line x1="240" y1="118" x2="90" y2="118" stroke="#E07000" stroke-width="0.4"/>
<line x1="90" y1="118" x2="90" y2="142" stroke="#E07000" stroke-width="0.4"/>
<text x="92" y="122.5" font-family="Arial" font-size="2.8" fill="#000000">BUILDING PANEL</text>
<text x="92" y="127" font-family="Arial" font-size="2.6" fill="#000000">Ik 25kA / MCCB 36kA</text>
<line x1="165" y1="118" x2="165" y2="102" stroke="#007000" stroke-width="0.4"/>
<line x1="90" y1="182" x2="240" y2="182" stroke="#E07000" stroke-width="0.4"/>
<line x1="240" y1="182" x2="240" y2="158" stroke="#E07000" stroke-width="0.4"/>
<line x1="240" y1="158" x2="90" y2="158" stroke="#E07000" stroke-width="0.4"/>
<line x1="90" y1="158" x2="90" y2="182" stroke="#E07000" stroke-width="0.4"/>
<text x="92" y="162.5" font-family="Arial" font-size="2.8" fill="#000000">APT PANEL</text>
<text x="92" y="167" font-family="Arial" font-size="2.6" fill="#000000">Ik 6kA / MCB 10kA</text>
<line x1="165" y1="158" x2="165" y2="142" stroke="#007000" stroke-width="0.4"/>
<line x1="90" y1="222" x2="240" y2="222" stroke="#E07000" stroke-width="0.4"/>
<line x1="240" y1="222" x2="240" y2="198" stroke="#E07000" stroke-width="0.4"/>
<line x1="240" y1="198" x2="90" y2="198" stroke="#E07000" stroke-width="0.4"/>
<line x1="90" y1="198" x2="90" y2="222" stroke="#E07000" stroke-width="0.4"/>
<text x="92" y="202.5" font-family="Arial" font-size="2.8" fill="#000000">FINAL CIRCUIT</text>
<text x="92" y="207" font-family="Arial" font-size="2.6" fill="#000000">Ik,min 0.30kA - trips</text>
<line x1="165" y1="198" x2="165" y2="182" stroke="#007000" stroke-width="0.4"/>
<text x="260" y="67" font-family="Arial" font-size="2.8" fill="#000000">Ik decreases with distance (cable impedance).</text>
<text x="260" y="82" font-family="Arial" font-size="2.6" fill="#000000">Each breaker Icu &gt; local Ik max.</text>
<text x="260" y="97" font-family="Arial" font-size="2.6" fill="#696969">Ik,min confirms trip at remote fault.</text>
<text x="14" y="250" font-family="Arial" font-size="2.6" fill="#696969">NOTES: Short-circuit path transformer -&gt; MDB -&gt; building -&gt; apartment -&gt; final circuit.</text>
</svg>
