<svg xmlns="http://www.w3.org/2000/svg" viewBox="0 0 420 297" width="1680" height="1188">
<rect x="0" y="0" width="420" height="297" fill="white"/>
<line x1="8" y1="289" x2="412" y2="289" stroke="#000000" stroke-width="0.4"/>
<line x1="412" y1="289" x2="412" y2="8" stroke="#000000" stroke-width="0.4"/>
<line x1="412" y1="8" x2="8" y2="8" stroke="#000000" stroke-width="0.4"/>
<line x1="8" y1="8" x2="8" y2="289" stroke="#000000" stroke-width="0.4"/>
<line x1="10" y1="287" x2="410" y2="287" stroke="#000000" stroke-width="0.4"/>
<line x1="410" y1="287" x2="410" y2="10" stroke="#000000" stroke-width="0.4"/>
<line x1="410" y1="10" x2="10" y2="10" stroke="#000000" stroke-width="0.4"/>
<line x1="10" y1="10" x2="10" y2="287" stroke="#000000" stroke-width="0.4"/>
<text x="14" y="16" font-family="Arial" font-size="5.5" fill="#000000">E-012   EMS BMS Architecture</text>
<line x1="12" y1="285" x2="408" y2="285" stroke="#000000" stroke-width="0.4"/>
<line x1="408" y1="285" x2="408" y2="253" stroke="#000000" stroke-width="0.4"/>
<line x1="408" y1="253" x2="12" y2="253" stroke="#000000" stroke-width="0.4"/>
<line x1="12" y1="253" x2="12" y2="285" stroke="#000000" stroke-width="0.4"/>
<line x1="12" y1="265" x2="408" y2="265" stroke="#000000" stroke-width="0.4"/>
<line x1="12" y1="274" x2="408" y2="274" stroke="#000000" stroke-width="0.4"/>
<line x1="290" y1="265" x2="290" y2="274" stroke="#000000" stroke-width="0.4"/>
<line x1="150" y1="285" x2="150" y2="274" stroke="#000000" stroke-width="0.4"/>
<line x1="230" y1="285" x2="230" y2="274" stroke="#000000" stroke-width="0.4"/>
<line x1="300" y1="285" x2="300" y2="274" stroke="#000000" stroke-width="0.4"/>
<line x1="350" y1="285" x2="350" y2="274" stroke="#000000" stroke-width="0.4"/>
<text x="15" y="261.5" font-family="Arial" font-size="3" fill="#000000">PROJECT: Smart Residential Neighborhood - Power Systems (Option B, LV 22/0.4kV)</text>
<text x="305" y="261.5" font-family="Arial" font-size="2.8" fill="#000000">MILESTONE 4 - FINAL</text>
<text x="15" y="271.5" font-family="Arial" font-size="2.8" fill="#000000">DRAWING: EMS BMS Architecture</text>
<text x="293" y="271.5" font-family="Arial" font-size="2.8" fill="#000000">DWG No.: E-012</text>
<text x="15" y="281" font-family="Arial" font-size="2.6" fill="#000000">STUDENT: __________</text>
<text x="153" y="281" font-family="Arial" font-size="2.6" fill="#000000">SUPERVISOR: ______</text>
<text x="233" y="281" font-family="Arial" font-size="2.6" fill="#000000">DATE: 2026-06-11</text>
<text x="303" y="281" font-family="Arial" font-size="2.6" fill="#000000">REV: B FINAL</text>
<text x="353" y="281" font-family="Arial" font-size="2.6" fill="#000000">SCALE: NTS</text>
<line x1="165" y1="57" x2="255" y2="57" stroke="#700070" stroke-width="0.4"/>
<line x1="255" y1="57" x2="255" y2="35" stroke="#700070" stroke-width="0.4"/>
<line x1="255" y1="35" x2="165" y2="35" stroke="#700070" stroke-width="0.4"/>
<line x1="165" y1="35" x2="165" y2="57" stroke="#700070" stroke-width="0.4"/>
<text x="167" y="39.5" font-family="Arial" font-size="2.8" fill="#000000">EMS / BMS</text>
<text x="167" y="44" font-family="Arial" font-size="2.6" fill="#000000">central controller</text>
<line x1="40" y1="117" x2="140" y2="117" stroke="#700070" stroke-width="0.4"/>
<line x1="140" y1="117" x2="140" y2="95" stroke="#700070" stroke-width="0.4"/>
<line x1="140" y1="95" x2="40" y2="95" stroke="#700070" stroke-width="0.4"/>
<line x1="40" y1="95" x2="40" y2="117" stroke="#700070" stroke-width="0.4"/>
<text x="42" y="99.5" font-family="Arial" font-size="2.8" fill="#000000">PV 200kWp</text>
<text x="42" y="104" font-family="Arial" font-size="2.6" fill="#000000">comms</text>
<line x1="90" y1="95" x2="210" y2="57" stroke="#007000" stroke-width="0.4"/>
<line x1="170" y1="117" x2="270" y2="117" stroke="#700070" stroke-width="0.4"/>
<line x1="270" y1="117" x2="270" y2="95" stroke="#700070" stroke-width="0.4"/>
<line x1="270" y1="95" x2="170" y2="95" stroke="#700070" stroke-width="0.4"/>
<line x1="170" y1="95" x2="170" y2="117" stroke="#700070" stroke-width="0.4"/>
<text x="172" y="99.5" font-family="Arial" font-size="2.8" fill="#000000">BESS 250kW</text>
<text x="172" y="104" font-family="Arial" font-size="2.6" fill="#000000">comms</text>
<line x1="220" y1="95" x2="210" y2="57" stroke="#007000" stroke-width="0.4"/>
<line x1="300" y1="117" x2="400" y2="117" stroke="#700070" stroke-width="0.4"/>
<line x1="400" y1="117" x2="400" y2="95" stroke="#700070" stroke-width="0.4"/>
<line x1="400" y1="95" x2="300" y2="95" stroke="#700070" stroke-width="0.4"/>
<line x1="300" y1="95" x2="300" y2="117" stroke="#700070" stroke-width="0.4"/>
<text x="302" y="99.5" font-family="Arial" font-size="2.8" fill="#000000">EV DLM 115.5kW</text>
<text x="302" y="104" font-family="Arial" font-size="2.6" fill="#000000">comms</text>
<line x1="350" y1="95" x2="210" y2="57" stroke="#007000" stroke-width="0.4"/>
<line x1="40" y1="177" x2="140" y2="177" stroke="#700070" stroke-width="0.4"/>
<line x1="140" y1="177" x2="140" y2="155" stroke="#700070" stroke-width="0.4"/>
<line x1="140" y1="155" x2="40" y2="155" stroke="#700070" stroke-width="0.4"/>
<line x1="40" y1="155" x2="40" y2="177" stroke="#700070" stroke-width="0.4"/>
<text x="42" y="159.5" font-family="Arial" font-size="2.8" fill="#000000">METERS</text>
<text x="42" y="164" font-family="Arial" font-size="2.6" fill="#000000">comms</text>
<line x1="90" y1="155" x2="210" y2="57" stroke="#007000" stroke-width="0.4"/>
<line x1="170" y1="177" x2="270" y2="177" stroke="#700070" stroke-width="0.4"/>
<line x1="270" y1="177" x2="270" y2="155" stroke="#700070" stroke-width="0.4"/>
<line x1="270" y1="155" x2="170" y2="155" stroke="#700070" stroke-width="0.4"/>
<line x1="170" y1="155" x2="170" y2="177" stroke="#700070" stroke-width="0.4"/>
<text x="172" y="159.5" font-family="Arial" font-size="2.8" fill="#000000">GENERATOR</text>
<text x="172" y="164" font-family="Arial" font-size="2.6" fill="#000000">comms</text>
<line x1="220" y1="155" x2="210" y2="57" stroke="#007000" stroke-width="0.4"/>
<line x1="300" y1="177" x2="400" y2="177" stroke="#700070" stroke-width="0.4"/>
<line x1="400" y1="177" x2="400" y2="155" stroke="#700070" stroke-width="0.4"/>
<line x1="400" y1="155" x2="300" y2="155" stroke="#700070" stroke-width="0.4"/>
<line x1="300" y1="155" x2="300" y2="177" stroke="#700070" stroke-width="0.4"/>
<text x="302" y="159.5" font-family="Arial" font-size="2.8" fill="#000000">CAP BANK</text>
<text x="302" y="164" font-family="Arial" font-size="2.6" fill="#000000">comms</text>
<line x1="350" y1="155" x2="210" y2="57" stroke="#007000" stroke-width="0.4"/>
<text x="14" y="250" font-family="Arial" font-size="2.6" fill="#696969">NOTES: EMS monitors and controls PV/BESS/EV/meters/gen via Modbus/IEC protocols.</text>
</svg>
