<svg xmlns="http://www.w3.org/2000/svg" viewBox="0 0 420 297" width="1680" height="1188">
<rect x="0" y="0" width="420" height="297" fill="white"/>
<line x1="8" y1="289" x2="412" y2="289" stroke="#000000" stroke-width="0.4"/>
<line x1="412" y1="289" x2="412" y2="8" stroke="#000000" stroke-width="0.4"/>
<line x1="412" y1="8" x2="8" y2="8" stroke="#000000" stroke-width="0.4"/>
<line x1="8" y1="8" x2="8" y2="289" stroke="#000000" stroke-width="0.4"/>
<line x1="10" y1="287" x2="410" y2="287" stroke="#000000" stroke-width="0.4"/>
<line x1="410" y1="287" x2="410" y2="10" stroke="#000000" stroke-width="0.4"/>
<line x1="410" y1="10" x2="10" y2="10" stroke="#000000" stroke-width="0.4"/>
<line x1="10" y1="10" x2="10" y2="287" stroke="#000000" stroke-width="0.4"/>
<text x="14" y="16" font-family="Arial" font-size="5.5" fill="#000000">E-011   Protection Selectivity</text>
<line x1="12" y1="285" x2="408" y2="285" stroke="#000000" stroke-width="0.4"/>
<line x1="408" y1="285" x2="408" y2="253" stroke="#000000" stroke-width="0.4"/>
<line x1="408" y1="253" x2="12" y2="253" stroke="#000000" stroke-width="0.4"/>
<line x1="12" y1="253" x2="12" y2="285" stroke="#000000" stroke-width="0.4"/>
<line x1="12" y1="265" x2="408" y2="265" stroke="#000000" stroke-width="0.4"/>
<line x1="12" y1="274" x2="408" y2="274" stroke="#000000" stroke-width="0.4"/>
<line x1="290" y1="265" x2="290" y2="274" stroke="#000000" stroke-width="0.4"/>
<line x1="150" y1="285" x2="150" y2="274" stroke="#000000" stroke-width="0.4"/>
<line x1="230" y1="285" x2="230" y2="274" stroke="#000000" stroke-width="0.4"/>
<line x1="300" y1="285" x2="300" y2="274" stroke="#000000" stroke-width="0.4"/>
<line x1="350" y1="285" x2="350" y2="274" stroke="#000000" stroke-width="0.4"/>
<text x="15" y="261.5" font-family="Arial" font-size="3" fill="#000000">PROJECT: Smart Residential Neighborhood - Power Systems (Option B, LV 22/0.4kV)</text>
<text x="305" y="261.5" font-family="Arial" font-size="2.8" fill="#000000">MILESTONE 4 - FINAL</text>
<text x="15" y="271.5" font-family="Arial" font-size="2.8" fill="#000000">DRAWING: Protection Selectivity</text>
<text x="293" y="271.5" font-family="Arial" font-size="2.8" fill="#000000">DWG No.: E-011</text>
<text x="15" y="281" font-family="Arial" font-size="2.6" fill="#000000">STUDENT: __________</text>
<text x="153" y="281" font-family="Arial" font-size="2.6" fill="#000000">SUPERVISOR: ______</text>
<text x="233" y="281" font-family="Arial" font-size="2.6" fill="#000000">DATE: 2026-06-11</text>
<text x="303" y="281" font-family="Arial" font-size="2.6" fill="#000000">REV: B FINAL</text>
<text x="353" y="281" font-family="Arial" font-size="2.6" fill="#000000">SCALE: NTS</text>
<line x1="60" y1="62" x2="180" y2="62" stroke="#E07000" stroke-width="0.4"/>
<line x1="180" y1="62" x2="180" y2="40" stroke="#E07000" stroke-width="0.4"/>
<line x1="180" y1="40" x2="60" y2="40" stroke="#E07000" stroke-width="0.4"/>
<line x1="60" y1="40" x2="60" y2="62" stroke="#E07000" stroke-width="0.4"/>
<text x="62" y="44.5" font-family="Arial" font-size="2.8" fill="#000000">ACB 1600A</text>
<text x="62" y="49" font-family="Arial" font-size="2.6" fill="#000000">Icu 65kA  LSIG  ST=200ms</text>
<line x1="60" y1="96" x2="180" y2="96" stroke="#E07000" stroke-width="0.4"/>
<line x1="180" y1="96" x2="180" y2="74" stroke="#E07000" stroke-width="0.4"/>
<line x1="180" y1="74" x2="60" y2="74" stroke="#E07000" stroke-width="0.4"/>
<line x1="60" y1="74" x2="60" y2="96" stroke="#E07000" stroke-width="0.4"/>
<text x="62" y="78.5" font-family="Arial" font-size="2.8" fill="#000000">MCCB 800A</text>
<text x="62" y="83" font-family="Arial" font-size="2.6" fill="#000000">Icu 36kA  LSI  ST=100ms</text>
<line x1="120" y1="74" x2="120" y2="62" stroke="#007000" stroke-width="0.4"/>
<line x1="60" y1="130" x2="180" y2="130" stroke="#E07000" stroke-width="0.4"/>
<line x1="180" y1="130" x2="180" y2="108" stroke="#E07000" stroke-width="0.4"/>
<line x1="180" y1="108" x2="60" y2="108" stroke="#E07000" stroke-width="0.4"/>
<line x1="60" y1="108" x2="60" y2="130" stroke="#E07000" stroke-width="0.4"/>
<text x="62" y="112.5" font-family="Arial" font-size="2.8" fill="#000000">MCCB 80A</text>
<text x="62" y="117" font-family="Arial" font-size="2.6" fill="#000000">Icu 25kA  LI  50ms</text>
<line x1="120" y1="108" x2="120" y2="96" stroke="#007000" stroke-width="0.4"/>
<line x1="60" y1="164" x2="180" y2="164" stroke="#E07000" stroke-width="0.4"/>
<line x1="180" y1="164" x2="180" y2="142" stroke="#E07000" stroke-width="0.4"/>
<line x1="180" y1="142" x2="60" y2="142" stroke="#E07000" stroke-width="0.4"/>
<line x1="60" y1="142" x2="60" y2="164" stroke="#E07000" stroke-width="0.4"/>
<text x="62" y="146.5" font-family="Arial" font-size="2.8" fill="#000000">MCB+RCD 3x25A</text>
<text x="62" y="151" font-family="Arial" font-size="2.6" fill="#000000">10kA  C  RCD 30mA TypeA</text>
<line x1="120" y1="142" x2="120" y2="130" stroke="#007000" stroke-width="0.4"/>
<line x1="60" y1="198" x2="180" y2="198" stroke="#E07000" stroke-width="0.4"/>
<line x1="180" y1="198" x2="180" y2="176" stroke="#E07000" stroke-width="0.4"/>
<line x1="180" y1="176" x2="60" y2="176" stroke="#E07000" stroke-width="0.4"/>
<line x1="60" y1="176" x2="60" y2="198" stroke="#E07000" stroke-width="0.4"/>
<text x="62" y="180.5" font-family="Arial" font-size="2.8" fill="#000000">MCB C16</text>
<text x="62" y="185" font-family="Arial" font-size="2.6" fill="#000000">final circuit  instant</text>
<line x1="120" y1="176" x2="120" y2="164" stroke="#007000" stroke-width="0.4"/>
<text x="210" y="62" font-family="Arial" font-size="2.8" fill="#000000">Selectivity: time grading + current grading</text>
<text x="210" y="77" font-family="Arial" font-size="2.6" fill="#000000">Lower-level breaker trips before upstream.</text>
<text x="210" y="92" font-family="Arial" font-size="2.6" fill="#696969">Settings matched to LSIG trip characteristics.</text>
<text x="14" y="250" font-family="Arial" font-size="2.6" fill="#696969">NOTES: Five protection levels, MDB ACB to final MCB; final LSIG settings per ch.12 table.</text>
</svg>
